<?xml version="1.0" encoding="utf-8"?>
<!-- Generator: Adobe Illustrator 16.0.0, SVG Export Plug-In . SVG Version: 6.00 Build 0)  -->
<!DOCTYPE svg PUBLIC "-//W3C//DTD SVG 1.1//EN" "http://www.w3.org/Graphics/SVG/1.1/DTD/svg11.dtd">
<svg version="1.1" id="Layer_1" xmlns="http://www.w3.org/2000/svg" xmlns:xlink="http://www.w3.org/1999/xlink" x="0px" y="0px"
	 width="35px" height="35px" viewBox="0 0 35 35" enable-background="new 0 0 35 35" xml:space="preserve">
<path fill="#777777" d="M28.436,0H6.564C2.94,0,0,2.94,0,6.564v21.872C0,32.061,2.94,35,6.564,35h21.872
	C32.061,35,35,32.061,35,28.436V6.564C35,2.94,32.061,0,28.436,0z M8.019,8.75H26.98c1.275,0,2.186,1.023,2.185,2.255
	c0,1.14-1.345,2.509-2.231,3.1c-2.029,1.342-4.056,2.644-6.086,3.965c-0.865,0.568-2.299,1.615-3.349,1.615
	s-2.485-1.047-3.349-1.615c-2.006-1.321-4.079-2.577-6.085-3.919c-0.957-0.637-2.232-1.983-2.232-3.215
	C5.833,9.73,6.813,8.75,8.019,8.75z M29.166,24.064c0,1.207-0.98,2.186-2.186,2.186H8.02c-1.206,0-2.186-0.98-2.186-2.186v-9.937
	c0.525,0.389,0.933,0.887,1.458,1.229c2.119,1.459,4.352,2.758,6.471,4.215c1.07,0.75,2.392,1.574,3.737,1.574
	c1.346,0,2.668-0.824,3.736-1.574c2.119-1.459,4.33-2.776,6.473-4.192c0.547-0.342,1.025-0.774,1.457-1.252V24.064z"/>
</svg>
