<?xml version="1.0" encoding="utf-8"?>
<!-- Generator: Adobe Illustrator 16.0.0, SVG Export Plug-In . SVG Version: 6.00 Build 0)  -->
<!DOCTYPE svg PUBLIC "-//W3C//DTD SVG 1.1//EN" "http://www.w3.org/Graphics/SVG/1.1/DTD/svg11.dtd">
<svg version="1.1" id="Layer_1" xmlns="http://www.w3.org/2000/svg" xmlns:xlink="http://www.w3.org/1999/xlink" x="0px" y="0px"
	 width="35px" height="35px" viewBox="0 0 35 35" enable-background="new 0 0 35 35" xml:space="preserve">
<g>
	<path fill="#3B5999" d="M28.436,0H6.564C2.94,0,0,2.94,0,6.564v21.872C0,32.061,2.94,35,6.564,35h12.122V21.441h-4.558v-5.286
		h4.558V12.26c0-4.514,2.78-6.973,6.813-6.973c1.914,0,3.578,0.136,4.057,0.204v4.717l-2.779,0.023
		c-2.213,0-2.621,1.025-2.621,2.551v3.374h5.219l-0.686,5.286h-4.533V35h4.281C32.061,35,35,32.061,35,28.436V6.564
		C35,2.94,32.061,0,28.436,0z"/>
</g>
</svg>
