<?xml version="1.0" encoding="utf-8"?>
<!-- Generator: Adobe Illustrator 16.0.0, SVG Export Plug-In . SVG Version: 6.00 Build 0)  -->
<!DOCTYPE svg PUBLIC "-//W3C//DTD SVG 1.1//EN" "http://www.w3.org/Graphics/SVG/1.1/DTD/svg11.dtd">
<svg version="1.1" id="Layer_1" xmlns="http://www.w3.org/2000/svg" xmlns:xlink="http://www.w3.org/1999/xlink" x="0px" y="0px"
	 width="40px" height="7.471px" viewBox="0 24.541 40 7.471" enable-background="new 0 24.541 40 7.471" xml:space="preserve">
<g>
	<g>
		<path fill="#555555" d="M40,25.751c0,0.317-0.143,0.604-0.402,0.854c-0.242,0.219-0.555,0.344-0.906,0.344
			c-0.377,0-0.688-0.125-0.938-0.344c-0.254-0.25-0.384-0.536-0.384-0.854c0-0.336,0.13-0.621,0.384-0.859
			c0.25-0.229,0.561-0.352,0.938-0.352c0.353,0,0.664,0.121,0.906,0.352C39.857,25.13,40,25.416,40,25.751z M39.7,25.751
			c0-0.272-0.106-0.487-0.296-0.67c-0.205-0.189-0.439-0.283-0.713-0.283c-0.28,0-0.537,0.094-0.742,0.283
			c-0.195,0.183-0.29,0.396-0.29,0.67c0,0.26,0.095,0.471,0.29,0.664c0.205,0.191,0.462,0.272,0.742,0.272
			c0.272,0,0.508-0.081,0.713-0.272C39.594,26.222,39.7,26.011,39.7,25.751z M39.387,26.321h-0.383l-0.396-0.442h-0.129v0.442
			h-0.295v-1.194h0.469c0.098,0,0.156,0,0.228,0.002c0.039,0.004,0.087,0.037,0.158,0.037c0.052,0.039,0.084,0.088,0.122,0.121
			c0.031,0.035,0.039,0.104,0.039,0.159c0,0.101-0.039,0.158-0.078,0.228c-0.055,0.053-0.117,0.086-0.207,0.117L39.387,26.321z
			 M38.848,25.479c0-0.034,0-0.058-0.029-0.067c-0.006-0.021-0.01-0.051-0.039-0.051c-0.022-0.003-0.049-0.037-0.088-0.037
			c-0.033,0-0.063,0-0.098,0h-0.115v0.35h0.094c0.035,0,0.08-0.002,0.119-0.004c0.039-0.033,0.068-0.033,0.092-0.063
			c0.025-0.008,0.031-0.027,0.064-0.04C38.848,25.544,38.848,25.517,38.848,25.479z"/>
	</g>
	<g>
		<path fill="#555555" d="M1.489,32.005c-0.314,0-0.597-0.024-0.833-0.082C0.42,31.859,0.205,31.802,0,31.705V30.83h0.092
			c0.209,0.155,0.426,0.273,0.679,0.369c0.249,0.098,0.491,0.131,0.724,0.131c0.058,0,0.136-0.004,0.231-0.031
			c0.1,0,0.178-0.037,0.233-0.039c0.075-0.036,0.139-0.078,0.181-0.117c0.052-0.066,0.077-0.125,0.077-0.221
			c0-0.092-0.039-0.164-0.118-0.215c-0.079-0.072-0.174-0.107-0.295-0.133c-0.134-0.027-0.29-0.058-0.447-0.096
			C1.2,30.444,1.046,30.414,0.908,30.36c-0.313-0.096-0.542-0.231-0.675-0.407c-0.142-0.164-0.215-0.373-0.215-0.646
			c0-0.352,0.166-0.629,0.499-0.857c0.313-0.211,0.722-0.314,1.213-0.314c0.239,0,0.485,0.035,0.722,0.072
			c0.252,0.045,0.458,0.086,0.658,0.181v0.842H3.018c-0.156-0.118-0.343-0.212-0.564-0.276c-0.217-0.097-0.436-0.129-0.668-0.129
			c-0.095,0-0.173,0.004-0.251,0.01c-0.062,0.018-0.139,0.028-0.217,0.058c-0.065,0.026-0.126,0.088-0.173,0.127
			C1.1,29.074,1.082,29.14,1.082,29.195c0,0.104,0.031,0.163,0.107,0.229c0.076,0.058,0.22,0.119,0.424,0.156
			c0.139,0.03,0.278,0.055,0.409,0.08c0.12,0.014,0.261,0.076,0.405,0.11c0.28,0.084,0.494,0.21,0.636,0.367s0.209,0.38,0.209,0.627
			c0,0.378-0.158,0.69-0.487,0.903C2.471,31.884,2.035,32.005,1.489,32.005z"/>
		<path fill="#555555" d="M3.349,31.949l1.388-3.742h1.128l1.39,3.742H6.189l-0.262-0.771H4.64l-0.257,0.771H3.349z M6.161,26.798
			L5.33,27.783H4.677l0.565-0.984H6.161z M5.708,30.481l-0.425-1.215l-0.418,1.215H5.708z"/>
		<path fill="#555555" d="M15.146,31.949h-1.028V29.46l-0.738,1.592h-0.701l-0.753-1.592v2.488H10.96v-3.742h1.186l0.911,1.842
			l0.901-1.842h1.188V31.949z"/>
		<path fill="#555555" d="M15.557,31.949l1.385-3.742h1.115l1.388,3.742h-1.057l-0.253-0.771h-1.294l-0.25,0.771H15.557z
			 M17.9,30.481l-0.411-1.215l-0.418,1.215H17.9z"/>
		<path fill="#555555" d="M21.621,32.009c-0.625,0-1.094-0.174-1.469-0.502c-0.358-0.336-0.533-0.809-0.533-1.428
			c0-0.6,0.175-1.068,0.541-1.412c0.367-0.377,0.865-0.533,1.461-0.533c0.156,0,0.313,0,0.436,0.035
			c0.133,0.004,0.262,0.031,0.385,0.058c0.084,0.024,0.201,0.063,0.313,0.103c0.117,0.039,0.188,0.08,0.272,0.119v0.881H22.91
			c-0.039-0.031-0.109-0.101-0.195-0.141c-0.066-0.05-0.156-0.115-0.247-0.171c-0.104-0.038-0.188-0.103-0.313-0.136
			c-0.123-0.03-0.25-0.051-0.377-0.051c-0.123,0-0.272,0.021-0.397,0.056c-0.128,0.063-0.228,0.124-0.345,0.224
			c-0.107,0.092-0.194,0.223-0.26,0.393c-0.055,0.16-0.092,0.352-0.092,0.578c0,0.217,0.037,0.437,0.094,0.592
			c0.063,0.156,0.156,0.275,0.277,0.373c0.098,0.097,0.215,0.158,0.348,0.19c0.133,0.062,0.259,0.062,0.408,0.062
			c0.123,0,0.244,0,0.371-0.037c0.129-0.055,0.221-0.09,0.313-0.156c0.103-0.051,0.182-0.089,0.256-0.156
			c0.058-0.053,0.121-0.088,0.179-0.119h0.1v0.862c-0.088,0.038-0.188,0.076-0.273,0.11c-0.104,0.033-0.195,0.084-0.313,0.087
			c-0.125,0.062-0.252,0.075-0.353,0.095C21.973,32.003,21.816,32.009,21.621,32.009z"/>
		<path fill="#555555" d="M27.09,31.949h-1.029v-1.666h-1.406v1.666h-1.039v-3.742h1.039v1.373h1.406v-1.373h1.029V31.949z"/>
		<path fill="#555555" d="M27.493,31.949l1.386-3.742h1.119l1.387,3.742h-1.066l-0.26-0.771h-1.283l-0.239,0.771H27.493z
			 M29.842,30.481l-0.408-1.215l-0.43,1.215H29.842z"/>
		<path fill="#555555" d="M35.449,30.08c0,0.342-0.078,0.653-0.256,0.936c-0.161,0.283-0.369,0.479-0.631,0.63
			c-0.207,0.122-0.441,0.204-0.683,0.239c-0.26,0.039-0.536,0.064-0.813,0.064h-1.289v-3.742h1.289c0.273,0,0.554,0.018,0.813,0.045
			c0.24,0.039,0.476,0.115,0.688,0.233c0.279,0.156,0.488,0.376,0.646,0.653C35.371,29.384,35.449,29.697,35.449,30.08z
			 M34.396,30.076c0-0.258-0.043-0.463-0.146-0.629c-0.092-0.181-0.219-0.313-0.438-0.428c-0.121-0.064-0.277-0.104-0.435-0.104
			c-0.13-0.025-0.313-0.026-0.54-0.026h-0.021v2.342h0.021c0.229,0,0.424-0.002,0.594-0.007c0.158-0.004,0.299-0.047,0.45-0.121
			c0.16-0.118,0.277-0.238,0.372-0.402C34.354,30.517,34.396,30.322,34.396,30.076z"/>
		<path fill="#555555" d="M39.785,30.078c0,0.596-0.156,1.063-0.527,1.416c-0.346,0.342-0.84,0.518-1.443,0.518
			c-0.621,0-1.114-0.178-1.467-0.52c-0.352-0.351-0.531-0.818-0.531-1.414c0-0.603,0.181-1.084,0.531-1.437
			c0.353-0.351,0.846-0.507,1.467-0.507c0.604,0,1.099,0.156,1.443,0.507C39.629,28.992,39.785,29.475,39.785,30.078z M38.73,30.076
			c0-0.223-0.039-0.418-0.078-0.574c-0.047-0.155-0.117-0.299-0.201-0.392c-0.072-0.098-0.189-0.155-0.297-0.223
			c-0.121-0.034-0.213-0.058-0.34-0.058c-0.131,0-0.254,0.021-0.338,0.053c-0.119,0.033-0.225,0.125-0.31,0.228
			c-0.078,0.089-0.155,0.222-0.194,0.38c-0.065,0.17-0.089,0.363-0.089,0.588c0,0.215,0.022,0.4,0.089,0.557
			c0.039,0.156,0.096,0.281,0.194,0.389c0.078,0.118,0.185,0.178,0.308,0.212c0.088,0.063,0.215,0.063,0.34,0.063
			c0.127,0,0.222,0,0.346-0.065c0.123-0.036,0.219-0.129,0.303-0.213c0.072-0.11,0.146-0.229,0.191-0.386
			C38.725,30.479,38.73,30.294,38.73,30.076z"/>
	</g>
</g>
</svg>
