<?xml version="1.0" encoding="utf-8"?>
<!-- Generator: Adobe Illustrator 16.0.0, SVG Export Plug-In . SVG Version: 6.00 Build 0)  -->
<!DOCTYPE svg PUBLIC "-//W3C//DTD SVG 1.1//EN" "http://www.w3.org/Graphics/SVG/1.1/DTD/svg11.dtd">
<svg version="1.1" id="Layer_1" xmlns="http://www.w3.org/2000/svg" xmlns:xlink="http://www.w3.org/1999/xlink" x="0px" y="0px"
	 width="44.672px" height="50px" viewBox="0 0 44.672 50" enable-background="new 0 0 44.672 50" xml:space="preserve">
<g>
	<g>
		<g>
			<path fill="#264038" d="M2.234,45.543c0,0.018-0.003,0.031-0.008,0.042c-0.007,0.011-0.021,0.021-0.044,0.028
				c-0.021,0.007-0.054,0.012-0.098,0.016c-0.044,0.002-0.103,0.004-0.176,0.004c-0.061,0-0.112-0.002-0.148-0.004
				c-0.037-0.004-0.068-0.01-0.088-0.018c-0.022-0.008-0.037-0.018-0.047-0.03c-0.01-0.014-0.017-0.028-0.021-0.046l-0.259-0.645
				c-0.032-0.072-0.062-0.139-0.093-0.193c-0.029-0.058-0.062-0.105-0.098-0.143c-0.037-0.038-0.078-0.066-0.127-0.086
				c-0.047-0.02-0.103-0.027-0.164-0.027H0.682v1.098c0,0.016-0.005,0.028-0.015,0.041c-0.01,0.012-0.027,0.021-0.049,0.027
				c-0.022,0.009-0.052,0.014-0.088,0.019c-0.039,0.005-0.086,0.007-0.145,0.007c-0.056,0-0.103-0.002-0.142-0.007
				c-0.036-0.005-0.068-0.01-0.09-0.019c-0.022-0.007-0.037-0.016-0.047-0.027c-0.01-0.013-0.012-0.025-0.012-0.041V42.92
				c0-0.066,0.015-0.113,0.049-0.143c0.034-0.028,0.075-0.043,0.124-0.043h0.747c0.076,0,0.137,0.001,0.188,0.005
				c0.049,0.003,0.093,0.006,0.132,0.01c0.117,0.017,0.22,0.046,0.314,0.085c0.091,0.041,0.171,0.094,0.234,0.158
				C1.951,43.056,2,43.134,2.034,43.222c0.034,0.089,0.051,0.19,0.051,0.304c0,0.098-0.012,0.186-0.036,0.265
				s-0.062,0.15-0.107,0.213c-0.049,0.062-0.107,0.117-0.176,0.162c-0.071,0.046-0.151,0.084-0.239,0.112
				c0.044,0.021,0.083,0.047,0.122,0.076c0.036,0.03,0.073,0.065,0.107,0.108c0.031,0.041,0.063,0.09,0.093,0.144
				c0.029,0.055,0.059,0.116,0.088,0.185l0.244,0.569c0.02,0.056,0.036,0.098,0.044,0.123C2.231,45.509,2.234,45.528,2.234,45.543z
				 M1.479,43.586c0-0.095-0.021-0.176-0.065-0.241c-0.044-0.064-0.112-0.11-0.21-0.137c-0.032-0.009-0.063-0.015-0.103-0.02
				c-0.039-0.004-0.091-0.006-0.156-0.006H0.682v0.819h0.298c0.083,0,0.156-0.012,0.22-0.031c0.061-0.02,0.112-0.047,0.156-0.085
				c0.039-0.036,0.07-0.079,0.093-0.131C1.468,43.705,1.479,43.647,1.479,43.586z"/>
			<path fill="#264038" d="M4.375,45.391c0,0.043-0.002,0.078-0.007,0.107c-0.003,0.029-0.008,0.053-0.015,0.069
				c-0.008,0.019-0.018,0.03-0.029,0.039c-0.01,0.01-0.022,0.013-0.037,0.013H2.84c-0.049,0-0.091-0.014-0.125-0.043
				s-0.051-0.077-0.051-0.142V42.92c0-0.066,0.017-0.113,0.051-0.143c0.034-0.028,0.076-0.043,0.125-0.043h1.44
				c0.012,0,0.024,0.004,0.034,0.011c0.01,0.008,0.02,0.021,0.026,0.039c0.008,0.019,0.013,0.042,0.018,0.071
				s0.005,0.066,0.005,0.111c0,0.041,0,0.076-0.005,0.105s-0.01,0.053-0.018,0.07c-0.007,0.017-0.017,0.031-0.026,0.04
				c-0.01,0.007-0.022,0.011-0.034,0.011H3.25v0.705h0.871c0.013,0,0.024,0.003,0.037,0.012c0.01,0.008,0.02,0.021,0.026,0.039
				c0.008,0.017,0.015,0.039,0.018,0.068c0.005,0.029,0.005,0.063,0.005,0.105c0,0.043,0,0.08-0.005,0.107
				c-0.003,0.028-0.01,0.052-0.018,0.067c-0.007,0.018-0.017,0.029-0.026,0.038c-0.013,0.006-0.024,0.01-0.037,0.01H3.25v0.814
				h1.037c0.015,0,0.027,0.004,0.037,0.012c0.012,0.009,0.021,0.022,0.029,0.039c0.007,0.019,0.012,0.042,0.015,0.071
				C4.373,45.312,4.375,45.347,4.375,45.391z"/>
			<path fill="#264038" d="M7.256,45.4c0.018,0.054,0.029,0.097,0.034,0.128c0.003,0.03-0.002,0.054-0.02,0.069
				c-0.015,0.017-0.044,0.025-0.085,0.029c-0.042,0.004-0.101,0.006-0.174,0.006c-0.075,0-0.134,0-0.176-0.003
				c-0.041-0.003-0.075-0.007-0.098-0.014c-0.021-0.007-0.036-0.017-0.046-0.028s-0.018-0.026-0.022-0.046l-0.195-0.58H5.394
				L5.21,45.526c-0.007,0.021-0.015,0.038-0.024,0.052c-0.01,0.016-0.026,0.025-0.046,0.033c-0.022,0.008-0.054,0.014-0.093,0.018
				c-0.039,0.002-0.091,0.004-0.154,0.004c-0.068,0-0.122-0.002-0.161-0.007s-0.065-0.015-0.08-0.032s-0.02-0.041-0.015-0.072
				s0.015-0.073,0.034-0.125l0.889-2.56c0.01-0.025,0.02-0.045,0.031-0.063c0.013-0.015,0.029-0.025,0.057-0.034
				c0.026-0.008,0.063-0.015,0.107-0.017c0.046-0.001,0.107-0.003,0.183-0.003c0.088,0,0.159,0.002,0.21,0.003
				c0.052,0.002,0.093,0.009,0.122,0.017c0.029,0.009,0.049,0.02,0.062,0.035c0.015,0.018,0.024,0.039,0.034,0.068L7.256,45.4z
				 M5.931,43.286L5.931,43.286l-0.41,1.226h0.82L5.931,43.286z"/>
			<path fill="#264038" d="M9.749,44.755c0,0.103-0.015,0.195-0.042,0.278c-0.029,0.083-0.068,0.156-0.117,0.221
				c-0.051,0.063-0.109,0.118-0.178,0.165c-0.071,0.045-0.146,0.084-0.229,0.113c-0.083,0.03-0.171,0.053-0.267,0.065
				c-0.095,0.016-0.2,0.021-0.314,0.021h-0.77c-0.049,0-0.09-0.014-0.122-0.043c-0.034-0.029-0.051-0.077-0.051-0.142V42.92
				c0-0.066,0.017-0.113,0.051-0.143c0.032-0.028,0.073-0.043,0.122-0.043h0.726c0.176,0,0.327,0.015,0.449,0.044
				c0.124,0.03,0.227,0.074,0.31,0.136c0.086,0.061,0.149,0.137,0.193,0.229s0.068,0.199,0.068,0.324c0,0.07-0.01,0.137-0.027,0.199
				c-0.02,0.061-0.044,0.117-0.078,0.167c-0.034,0.052-0.078,0.097-0.127,0.134c-0.049,0.038-0.104,0.07-0.171,0.094
				c0.083,0.016,0.159,0.042,0.228,0.078c0.068,0.037,0.129,0.085,0.181,0.145c0.051,0.058,0.093,0.127,0.122,0.207
				C9.734,44.568,9.749,44.656,9.749,44.755z M8.989,43.54c0-0.059-0.007-0.111-0.026-0.156c-0.018-0.046-0.044-0.085-0.078-0.116
				c-0.037-0.03-0.083-0.054-0.137-0.069s-0.127-0.024-0.218-0.024H8.235v0.75h0.327c0.085,0,0.151-0.012,0.202-0.031
				c0.052-0.02,0.093-0.047,0.127-0.083c0.032-0.035,0.059-0.075,0.073-0.122C8.982,43.642,8.989,43.592,8.989,43.54z M9.141,44.775
				c0-0.068-0.012-0.128-0.034-0.181c-0.021-0.053-0.056-0.097-0.098-0.132c-0.044-0.037-0.098-0.063-0.166-0.083
				c-0.065-0.019-0.153-0.029-0.261-0.029H8.235v0.82h0.422c0.083,0,0.151-0.009,0.208-0.025c0.056-0.017,0.103-0.042,0.144-0.076
				c0.042-0.032,0.073-0.074,0.096-0.124C9.129,44.895,9.141,44.839,9.141,44.775z"/>
			<path fill="#264038" d="M10.809,45.539c0,0.016-0.005,0.028-0.015,0.041c-0.01,0.012-0.027,0.021-0.049,0.027
				c-0.022,0.009-0.052,0.014-0.088,0.019c-0.039,0.005-0.086,0.007-0.145,0.007c-0.056,0-0.103-0.002-0.142-0.007
				c-0.036-0.005-0.068-0.01-0.09-0.019c-0.022-0.007-0.039-0.016-0.049-0.027c-0.01-0.013-0.013-0.025-0.013-0.041v-2.725
				c0-0.014,0.003-0.027,0.013-0.04c0.01-0.012,0.026-0.021,0.051-0.029c0.022-0.007,0.052-0.013,0.091-0.019
				c0.036-0.003,0.083-0.006,0.139-0.006c0.059,0,0.105,0.003,0.145,0.006c0.036,0.006,0.065,0.012,0.088,0.019
				c0.021,0.008,0.039,0.018,0.049,0.029c0.01,0.013,0.015,0.026,0.015,0.04V45.539z"/>
			<path fill="#264038" d="M13.022,45.375c0,0.044-0.002,0.082-0.007,0.112c-0.003,0.03-0.01,0.055-0.018,0.075
				c-0.007,0.02-0.015,0.034-0.026,0.044c-0.013,0.009-0.024,0.013-0.039,0.013h-1.323c-0.049,0-0.088-0.014-0.122-0.043
				s-0.052-0.077-0.052-0.142v-2.62c0-0.014,0.005-0.027,0.015-0.04c0.01-0.012,0.027-0.021,0.049-0.029
				c0.022-0.007,0.052-0.013,0.091-0.019c0.036-0.003,0.085-0.006,0.142-0.006c0.059,0,0.104,0.003,0.142,0.006
				c0.036,0.006,0.068,0.012,0.09,0.019c0.022,0.008,0.037,0.018,0.047,0.029c0.01,0.013,0.015,0.026,0.015,0.04v2.321h0.908
				c0.015,0,0.026,0.003,0.039,0.012c0.012,0.009,0.02,0.022,0.026,0.04c0.008,0.02,0.015,0.045,0.018,0.074
				C13.021,45.292,13.022,45.33,13.022,45.375z"/>
			<path fill="#264038" d="M13.955,45.539c0,0.016-0.005,0.028-0.015,0.041c-0.01,0.012-0.024,0.021-0.046,0.027
				c-0.022,0.009-0.054,0.014-0.091,0.019c-0.036,0.005-0.085,0.007-0.142,0.007c-0.056,0-0.104-0.002-0.142-0.007
				c-0.039-0.005-0.068-0.01-0.09-0.019c-0.024-0.007-0.039-0.016-0.049-0.027c-0.01-0.013-0.015-0.025-0.015-0.041v-2.725
				c0-0.014,0.005-0.027,0.015-0.04c0.01-0.012,0.026-0.021,0.049-0.029c0.024-0.007,0.054-0.013,0.09-0.019
				c0.037-0.003,0.086-0.006,0.142-0.006c0.057,0,0.105,0.003,0.142,0.006c0.037,0.006,0.068,0.012,0.091,0.019
				c0.021,0.008,0.036,0.018,0.046,0.029c0.01,0.013,0.015,0.026,0.015,0.04V45.539z"/>
			<path fill="#264038" d="M16.504,42.977c0,0.042-0.002,0.079-0.005,0.108c-0.002,0.03-0.01,0.056-0.017,0.074
				c-0.008,0.019-0.018,0.032-0.027,0.042c-0.012,0.01-0.024,0.012-0.036,0.012h-0.723v2.326c0,0.016-0.005,0.028-0.015,0.041
				c-0.01,0.012-0.027,0.021-0.049,0.027c-0.022,0.009-0.054,0.014-0.091,0.019c-0.036,0.005-0.085,0.007-0.142,0.007
				c-0.056,0-0.103-0.002-0.142-0.007c-0.036-0.005-0.068-0.01-0.09-0.019c-0.022-0.007-0.037-0.016-0.049-0.027
				c-0.01-0.013-0.015-0.025-0.015-0.041v-2.326h-0.721c-0.015,0-0.029-0.002-0.039-0.012s-0.02-0.023-0.026-0.042
				c-0.008-0.019-0.013-0.044-0.018-0.074c-0.002-0.029-0.005-0.066-0.005-0.108c0-0.047,0.003-0.084,0.005-0.115
				c0.005-0.031,0.01-0.057,0.018-0.074c0.007-0.019,0.017-0.033,0.026-0.041s0.024-0.012,0.039-0.012h2.034
				c0.012,0,0.024,0.004,0.036,0.012c0.01,0.008,0.02,0.022,0.027,0.041c0.007,0.018,0.015,0.043,0.017,0.074
				C16.502,42.893,16.504,42.93,16.504,42.977z"/>
			<path fill="#264038" d="M18.794,45.4c0.018,0.054,0.029,0.097,0.034,0.128c0.003,0.03-0.002,0.054-0.02,0.069
				c-0.015,0.017-0.044,0.025-0.085,0.029c-0.044,0.004-0.101,0.006-0.174,0.006c-0.075,0-0.134,0-0.176-0.003
				c-0.044-0.003-0.075-0.007-0.098-0.014c-0.021-0.007-0.039-0.017-0.046-0.028c-0.01-0.012-0.018-0.026-0.022-0.046l-0.195-0.58
				h-1.081l-0.186,0.564c-0.005,0.021-0.013,0.038-0.022,0.052c-0.01,0.016-0.026,0.025-0.046,0.033
				c-0.022,0.008-0.054,0.014-0.093,0.018c-0.039,0.002-0.091,0.004-0.154,0.004c-0.068,0-0.122-0.002-0.161-0.007
				s-0.065-0.015-0.08-0.032s-0.02-0.041-0.015-0.072s0.015-0.073,0.034-0.125l0.889-2.56c0.01-0.025,0.02-0.045,0.031-0.063
				c0.013-0.015,0.029-0.025,0.057-0.034c0.026-0.008,0.063-0.015,0.107-0.017c0.046-0.001,0.107-0.003,0.183-0.003
				c0.088,0,0.159,0.002,0.21,0.003c0.052,0.002,0.093,0.009,0.122,0.017c0.029,0.009,0.049,0.02,0.062,0.035
				c0.015,0.018,0.024,0.039,0.034,0.068L18.794,45.4z M17.469,43.286L17.469,43.286l-0.41,1.226h0.82L17.469,43.286z"/>
			<path fill="#264038" d="M20.599,45.767c0.026,0.058,0.046,0.107,0.059,0.151c0.012,0.043,0.02,0.086,0.02,0.126
				c0,0.067-0.015,0.127-0.039,0.176s-0.059,0.089-0.103,0.12s-0.093,0.055-0.151,0.07s-0.12,0.023-0.188,0.023
				c-0.063,0-0.124-0.004-0.181-0.014c-0.056-0.009-0.103-0.019-0.139-0.029c-0.037-0.01-0.062-0.02-0.078-0.027
				c-0.015-0.006-0.027-0.017-0.032-0.027c-0.007-0.013-0.012-0.027-0.015-0.047c-0.002-0.019-0.005-0.044-0.005-0.077
				c0-0.059,0.005-0.1,0.018-0.123c0.01-0.023,0.029-0.035,0.061-0.035h0.259c0.042,0,0.076-0.009,0.096-0.027
				c0.021-0.02,0.034-0.045,0.034-0.077c0-0.018-0.005-0.037-0.013-0.06c-0.007-0.022-0.017-0.045-0.026-0.069l-0.076-0.172
				c-0.127-0.016-0.251-0.053-0.371-0.109c-0.122-0.055-0.231-0.139-0.334-0.25c-0.103-0.112-0.184-0.259-0.244-0.44
				c-0.059-0.182-0.091-0.394-0.091-0.635c0-0.244,0.034-0.463,0.101-0.651c0.063-0.191,0.156-0.352,0.273-0.481
				s0.259-0.228,0.422-0.293c0.164-0.067,0.345-0.101,0.545-0.101c0.078,0,0.156,0.007,0.229,0.02
				c0.075,0.014,0.144,0.031,0.207,0.053s0.12,0.047,0.171,0.074c0.052,0.028,0.086,0.053,0.105,0.072
				c0.02,0.021,0.034,0.038,0.041,0.051c0.008,0.014,0.013,0.03,0.018,0.051c0.005,0.021,0.01,0.047,0.01,0.073
				c0.005,0.029,0.005,0.064,0.005,0.104c0,0.047-0.003,0.084-0.005,0.115c-0.003,0.031-0.008,0.057-0.015,0.076
				c-0.01,0.02-0.018,0.033-0.027,0.041c-0.012,0.01-0.021,0.015-0.036,0.015c-0.022,0-0.052-0.014-0.086-0.04
				c-0.034-0.025-0.078-0.054-0.132-0.086c-0.054-0.033-0.119-0.063-0.192-0.088c-0.076-0.025-0.166-0.037-0.269-0.037
				c-0.115,0-0.218,0.022-0.308,0.069c-0.091,0.046-0.166,0.113-0.229,0.2c-0.063,0.088-0.112,0.192-0.145,0.316
				c-0.031,0.123-0.049,0.262-0.049,0.417c0,0.169,0.018,0.315,0.052,0.439c0.036,0.123,0.085,0.228,0.151,0.307
				c0.063,0.08,0.142,0.14,0.231,0.179c0.093,0.041,0.195,0.059,0.311,0.059c0.1,0,0.188-0.011,0.266-0.035
				c0.076-0.024,0.142-0.051,0.198-0.08c0.054-0.031,0.1-0.058,0.134-0.082c0.034-0.023,0.062-0.035,0.081-0.035
				c0.015,0,0.029,0.002,0.036,0.008c0.01,0.007,0.018,0.019,0.022,0.037c0.005,0.018,0.01,0.043,0.015,0.073
				c0.002,0.032,0.005,0.075,0.005,0.13c0,0.036-0.003,0.068-0.005,0.094c-0.003,0.026-0.005,0.049-0.01,0.066
				c-0.005,0.019-0.01,0.035-0.018,0.048c-0.007,0.014-0.02,0.028-0.036,0.047c-0.018,0.017-0.049,0.039-0.096,0.064
				c-0.046,0.026-0.098,0.053-0.153,0.074c-0.059,0.022-0.115,0.04-0.171,0.053c-0.057,0.013-0.11,0.021-0.159,0.025L20.599,45.767z
				"/>
			<path fill="#264038" d="M23.978,45.4c0.02,0.054,0.029,0.097,0.034,0.128c0.005,0.03-0.003,0.054-0.018,0.069
				c-0.017,0.017-0.046,0.025-0.088,0.029c-0.041,0.004-0.098,0.006-0.171,0.006c-0.075,0-0.134,0-0.178-0.003
				s-0.073-0.007-0.098-0.014c-0.022-0.007-0.037-0.017-0.047-0.028c-0.007-0.012-0.015-0.026-0.021-0.046l-0.193-0.58h-1.084
				l-0.183,0.564c-0.005,0.021-0.015,0.038-0.024,0.052c-0.01,0.016-0.024,0.025-0.047,0.033c-0.021,0.008-0.051,0.014-0.09,0.018
				c-0.039,0.002-0.093,0.004-0.156,0.004c-0.068,0-0.122-0.002-0.161-0.007c-0.037-0.005-0.063-0.015-0.078-0.032
				s-0.022-0.041-0.018-0.072s0.018-0.073,0.034-0.125l0.889-2.56c0.01-0.025,0.02-0.045,0.032-0.063
				c0.012-0.015,0.031-0.025,0.056-0.034c0.027-0.008,0.063-0.015,0.11-0.017c0.046-0.001,0.107-0.003,0.181-0.003
				c0.088,0,0.158,0.002,0.21,0.003c0.054,0.002,0.093,0.009,0.122,0.017c0.029,0.009,0.051,0.02,0.063,0.035
				c0.012,0.018,0.021,0.039,0.031,0.068L23.978,45.4z M23.147,41.973c0-0.024,0.01-0.04,0.036-0.048
				c0.024-0.007,0.071-0.011,0.14-0.011c0.065,0,0.112,0.006,0.134,0.016c0.022,0.013,0.034,0.034,0.034,0.068
				c0,0.171-0.041,0.302-0.127,0.391c-0.083,0.09-0.205,0.133-0.361,0.133c-0.085,0-0.156-0.011-0.215-0.033
				s-0.109-0.048-0.156-0.076c-0.046-0.027-0.09-0.053-0.127-0.076c-0.039-0.022-0.078-0.033-0.124-0.033
				c-0.049,0-0.086,0.013-0.107,0.041c-0.022,0.028-0.032,0.069-0.032,0.121c0,0.014-0.005,0.024-0.01,0.03
				c-0.007,0.009-0.017,0.014-0.034,0.019c-0.015,0.004-0.031,0.005-0.054,0.006c-0.021,0.002-0.049,0.002-0.078,0.002
				c-0.068,0-0.112-0.004-0.137-0.016c-0.021-0.012-0.034-0.034-0.034-0.068c0-0.084,0.013-0.16,0.034-0.226
				c0.022-0.064,0.054-0.12,0.098-0.162c0.042-0.046,0.093-0.078,0.154-0.102c0.059-0.022,0.127-0.034,0.202-0.034
				c0.086,0,0.159,0.012,0.215,0.034c0.059,0.023,0.112,0.049,0.156,0.077c0.047,0.029,0.088,0.055,0.127,0.076
				c0.039,0.023,0.081,0.035,0.125,0.035s0.078-0.012,0.103-0.036C23.133,42.075,23.147,42.032,23.147,41.973z M22.654,43.286
				h-0.003l-0.407,1.226h0.817L22.654,43.286z"/>
			<path fill="#264038" d="M26.86,44.143c0,0.241-0.029,0.453-0.088,0.643c-0.061,0.189-0.148,0.35-0.266,0.48
				c-0.117,0.133-0.262,0.232-0.435,0.302c-0.174,0.068-0.374,0.104-0.604,0.104c-0.222,0-0.417-0.029-0.586-0.09
				c-0.168-0.059-0.305-0.147-0.417-0.269c-0.112-0.119-0.195-0.273-0.252-0.459c-0.056-0.186-0.085-0.406-0.085-0.66
				c0-0.233,0.031-0.443,0.09-0.629c0.062-0.187,0.149-0.347,0.267-0.478c0.117-0.13,0.261-0.23,0.435-0.3
				c0.176-0.069,0.376-0.104,0.603-0.104c0.22,0,0.413,0.029,0.579,0.088c0.168,0.056,0.308,0.146,0.42,0.266
				s0.197,0.273,0.254,0.457C26.834,43.677,26.86,43.895,26.86,44.143z M26.245,44.175c0-0.151-0.012-0.289-0.034-0.414
				c-0.024-0.123-0.065-0.23-0.122-0.319c-0.059-0.087-0.134-0.155-0.227-0.205c-0.098-0.048-0.215-0.072-0.356-0.072
				c-0.146,0-0.267,0.028-0.361,0.082c-0.098,0.055-0.176,0.127-0.237,0.219c-0.059,0.089-0.1,0.195-0.124,0.315
				c-0.024,0.121-0.039,0.251-0.039,0.385c0,0.159,0.015,0.3,0.039,0.426c0.021,0.126,0.063,0.232,0.117,0.321
				c0.059,0.09,0.134,0.157,0.229,0.205c0.095,0.047,0.215,0.069,0.358,0.069c0.145,0,0.264-0.026,0.361-0.079
				c0.096-0.054,0.174-0.127,0.234-0.22c0.059-0.092,0.101-0.199,0.125-0.321C26.233,44.443,26.245,44.314,26.245,44.175z"/>
		</g>
		<g>
			<path fill="#264038" d="M30.74,44.545c0,0.177-0.024,0.334-0.078,0.475c-0.052,0.141-0.127,0.259-0.229,0.355
				c-0.101,0.095-0.225,0.17-0.374,0.221c-0.148,0.05-0.319,0.076-0.513,0.076c-0.183,0-0.344-0.023-0.488-0.068
				c-0.144-0.046-0.266-0.114-0.366-0.207c-0.1-0.092-0.176-0.207-0.227-0.344c-0.054-0.139-0.081-0.299-0.081-0.482v-1.756
				c0-0.014,0.005-0.027,0.015-0.04c0.008-0.012,0.024-0.021,0.047-0.029c0.024-0.007,0.054-0.013,0.093-0.019
				c0.036-0.003,0.083-0.006,0.142-0.006c0.056,0,0.103,0.003,0.139,0.006c0.037,0.006,0.068,0.012,0.091,0.019
				c0.021,0.008,0.039,0.018,0.046,0.029c0.01,0.013,0.015,0.026,0.015,0.04v1.705c0,0.113,0.015,0.212,0.044,0.296
				c0.027,0.085,0.068,0.154,0.122,0.209c0.052,0.055,0.115,0.097,0.188,0.123c0.073,0.028,0.156,0.042,0.246,0.042
				c0.091,0,0.176-0.014,0.247-0.043c0.073-0.028,0.134-0.068,0.186-0.123c0.051-0.054,0.09-0.121,0.117-0.2
				c0.026-0.079,0.041-0.171,0.041-0.272v-1.736c0-0.014,0.005-0.027,0.013-0.04c0.01-0.012,0.024-0.021,0.049-0.029
				c0.021-0.007,0.051-0.013,0.09-0.019c0.037-0.003,0.083-0.006,0.142-0.006c0.057,0,0.103,0.003,0.137,0.006
				c0.039,0.006,0.068,0.012,0.091,0.019c0.021,0.008,0.039,0.018,0.046,0.029c0.01,0.013,0.013,0.026,0.013,0.04V44.545z"/>
			<path fill="#264038" d="M33.509,45.543c0,0.018-0.003,0.031-0.01,0.042c-0.005,0.011-0.02,0.021-0.042,0.028
				c-0.021,0.007-0.056,0.012-0.1,0.016c-0.042,0.002-0.101,0.004-0.174,0.004c-0.063,0-0.114-0.002-0.151-0.004
				c-0.036-0.004-0.065-0.01-0.088-0.018c-0.021-0.008-0.036-0.018-0.046-0.03c-0.008-0.014-0.015-0.028-0.022-0.046l-0.256-0.645
				c-0.034-0.072-0.063-0.139-0.093-0.193c-0.029-0.058-0.063-0.105-0.098-0.143c-0.039-0.038-0.081-0.066-0.127-0.086
				c-0.049-0.02-0.103-0.027-0.166-0.027h-0.184v1.098c0,0.016-0.005,0.028-0.015,0.041c-0.01,0.012-0.024,0.021-0.046,0.027
				c-0.024,0.009-0.054,0.014-0.091,0.019c-0.036,0.005-0.085,0.007-0.142,0.007c-0.056,0-0.103-0.002-0.142-0.007
				s-0.068-0.01-0.09-0.019c-0.024-0.007-0.039-0.016-0.047-0.027c-0.01-0.013-0.015-0.025-0.015-0.041V42.92
				c0-0.066,0.018-0.113,0.052-0.143c0.034-0.028,0.073-0.043,0.122-0.043h0.747c0.075,0,0.139,0.001,0.188,0.005
				c0.049,0.003,0.093,0.006,0.135,0.01c0.114,0.017,0.22,0.046,0.313,0.085c0.093,0.041,0.173,0.094,0.236,0.158
				c0.066,0.063,0.115,0.142,0.149,0.229c0.034,0.089,0.049,0.19,0.049,0.304c0,0.098-0.01,0.186-0.034,0.265
				s-0.062,0.15-0.11,0.213c-0.046,0.062-0.104,0.117-0.176,0.162c-0.07,0.046-0.148,0.084-0.239,0.112
				c0.047,0.021,0.086,0.047,0.122,0.076c0.039,0.03,0.076,0.065,0.107,0.108c0.034,0.041,0.066,0.09,0.096,0.144
				c0.029,0.055,0.059,0.116,0.085,0.185l0.244,0.569c0.022,0.056,0.037,0.098,0.044,0.123
				C33.506,45.509,33.509,45.528,33.509,45.543z M32.752,43.586c0-0.095-0.02-0.176-0.063-0.241
				c-0.044-0.064-0.115-0.11-0.213-0.137c-0.029-0.009-0.063-0.015-0.1-0.02c-0.039-0.004-0.093-0.006-0.159-0.006h-0.264v0.819
				h0.301c0.083,0,0.156-0.012,0.217-0.031c0.062-0.02,0.115-0.047,0.156-0.085c0.042-0.036,0.073-0.079,0.096-0.131
				C32.742,43.705,32.752,43.647,32.752,43.586z"/>
			<path fill="#264038" d="M36.028,44.755c0,0.103-0.015,0.195-0.044,0.278c-0.027,0.083-0.068,0.156-0.117,0.221
				c-0.049,0.063-0.107,0.118-0.176,0.165c-0.071,0.045-0.146,0.084-0.232,0.113c-0.08,0.03-0.171,0.053-0.264,0.065
				c-0.095,0.016-0.2,0.021-0.314,0.021h-0.77c-0.049,0-0.09-0.014-0.122-0.043c-0.034-0.029-0.051-0.077-0.051-0.142V42.92
				c0-0.066,0.017-0.113,0.051-0.143c0.032-0.028,0.073-0.043,0.122-0.043h0.726c0.176,0,0.327,0.015,0.449,0.044
				c0.122,0.03,0.225,0.074,0.31,0.136c0.083,0.061,0.149,0.137,0.193,0.229s0.068,0.199,0.068,0.324c0,0.07-0.01,0.137-0.029,0.199
				c-0.018,0.061-0.044,0.117-0.076,0.167c-0.036,0.052-0.078,0.097-0.127,0.134c-0.051,0.038-0.107,0.07-0.171,0.094
				c0.081,0.016,0.159,0.042,0.228,0.078c0.068,0.037,0.129,0.085,0.181,0.145c0.051,0.058,0.09,0.127,0.119,0.207
				C36.014,44.568,36.028,44.656,36.028,44.755z M35.269,43.54c0-0.059-0.01-0.111-0.026-0.156
				c-0.018-0.046-0.044-0.085-0.081-0.116c-0.034-0.03-0.08-0.054-0.134-0.069s-0.127-0.024-0.218-0.024h-0.295v0.75h0.327
				c0.085,0,0.151-0.012,0.202-0.031c0.052-0.02,0.093-0.047,0.127-0.083c0.032-0.035,0.057-0.075,0.073-0.122
				C35.262,43.642,35.269,43.592,35.269,43.54z M35.418,44.775c0-0.068-0.01-0.128-0.032-0.181
				c-0.024-0.053-0.056-0.097-0.098-0.132c-0.044-0.037-0.098-0.063-0.166-0.083c-0.068-0.019-0.153-0.029-0.261-0.029h-0.347v0.82
				h0.422c0.081,0,0.151-0.009,0.208-0.025c0.054-0.017,0.103-0.042,0.144-0.076c0.042-0.032,0.073-0.074,0.096-0.124
				C35.408,44.895,35.418,44.839,35.418,44.775z"/>
			<path fill="#264038" d="M38.86,45.4c0.02,0.054,0.029,0.097,0.034,0.128c0.005,0.03,0,0.054-0.018,0.069
				c-0.017,0.017-0.044,0.025-0.088,0.029c-0.041,0.004-0.098,0.006-0.171,0.006c-0.075,0-0.134,0-0.178-0.003
				c-0.042-0.003-0.073-0.007-0.096-0.014c-0.021-0.007-0.039-0.017-0.046-0.028c-0.01-0.012-0.018-0.026-0.024-0.046l-0.193-0.58
				h-1.084l-0.183,0.564c-0.005,0.021-0.015,0.038-0.024,0.052c-0.008,0.016-0.024,0.025-0.047,0.033
				c-0.02,0.008-0.051,0.014-0.09,0.018c-0.039,0.002-0.091,0.004-0.154,0.004c-0.07,0-0.124-0.002-0.161-0.007
				c-0.039-0.005-0.065-0.015-0.08-0.032s-0.02-0.041-0.015-0.072c0.002-0.031,0.015-0.073,0.034-0.125l0.889-2.56
				c0.007-0.025,0.02-0.045,0.029-0.063c0.012-0.015,0.031-0.025,0.059-0.034c0.024-0.008,0.061-0.015,0.107-0.017
				c0.046-0.001,0.107-0.003,0.183-0.003c0.088,0,0.159,0.002,0.21,0.003c0.052,0.002,0.093,0.009,0.12,0.017
				c0.031,0.009,0.051,0.02,0.063,0.035c0.012,0.018,0.024,0.039,0.034,0.068L38.86,45.4z M37.537,43.286h-0.003l-0.407,1.226h0.817
				L37.537,43.286z"/>
			<path fill="#264038" d="M41.644,45.414c0,0.034-0.005,0.064-0.018,0.092c-0.012,0.026-0.026,0.05-0.049,0.066
				c-0.02,0.019-0.041,0.031-0.07,0.039c-0.027,0.008-0.054,0.013-0.083,0.013h-0.249c-0.054,0-0.098-0.005-0.137-0.017
				c-0.037-0.01-0.073-0.029-0.103-0.056c-0.034-0.028-0.063-0.064-0.096-0.111c-0.029-0.048-0.061-0.107-0.1-0.182l-0.718-1.351
				c-0.042-0.08-0.083-0.166-0.127-0.26c-0.042-0.092-0.083-0.183-0.115-0.27h-0.005c0.005,0.107,0.01,0.214,0.013,0.32
				c0.005,0.105,0.005,0.216,0.005,0.329v1.509c0,0.015-0.003,0.028-0.013,0.04c-0.007,0.013-0.021,0.021-0.041,0.029
				c-0.022,0.01-0.047,0.015-0.083,0.02c-0.034,0.005-0.078,0.007-0.13,0.007c-0.054,0-0.095-0.002-0.129-0.007
				s-0.062-0.01-0.081-0.02c-0.02-0.009-0.034-0.017-0.041-0.029c-0.008-0.012-0.01-0.025-0.01-0.04v-2.593
				c0-0.069,0.02-0.122,0.061-0.157c0.042-0.035,0.091-0.053,0.149-0.053h0.314c0.059,0,0.105,0.005,0.145,0.015
				c0.036,0.01,0.073,0.025,0.103,0.049c0.029,0.022,0.059,0.053,0.088,0.092c0.024,0.04,0.051,0.089,0.08,0.146l0.562,1.055
				c0.034,0.064,0.066,0.127,0.098,0.188c0.032,0.062,0.063,0.124,0.093,0.186s0.059,0.122,0.086,0.183
				c0.029,0.059,0.056,0.118,0.083,0.177h0.002c-0.002-0.103-0.007-0.213-0.01-0.325c-0.002-0.112-0.002-0.221-0.002-0.323v-1.353
				c0-0.016,0.005-0.029,0.012-0.041c0.01-0.012,0.024-0.022,0.047-0.032c0.02-0.007,0.046-0.015,0.08-0.019
				c0.037-0.004,0.078-0.006,0.132-0.006c0.052,0,0.093,0.002,0.127,0.006c0.037,0.004,0.062,0.012,0.081,0.019
				c0.017,0.01,0.031,0.021,0.039,0.032c0.007,0.012,0.01,0.025,0.01,0.041V45.414z"/>
			<path fill="#264038" d="M44.637,45.4c0.017,0.054,0.029,0.097,0.034,0.128c0.005,0.03-0.003,0.054-0.02,0.069
				c-0.018,0.017-0.044,0.025-0.086,0.029c-0.041,0.004-0.1,0.006-0.173,0.006s-0.135,0-0.176-0.003
				c-0.044-0.003-0.076-0.007-0.098-0.014c-0.022-0.007-0.039-0.017-0.047-0.028c-0.007-0.012-0.017-0.026-0.021-0.046l-0.193-0.58
				h-1.084l-0.186,0.564c-0.002,0.021-0.012,0.038-0.021,0.052c-0.01,0.016-0.027,0.025-0.047,0.033
				c-0.021,0.008-0.051,0.014-0.09,0.018c-0.042,0.002-0.093,0.004-0.156,0.004c-0.068,0-0.122-0.002-0.161-0.007
				s-0.066-0.015-0.081-0.032c-0.012-0.018-0.02-0.041-0.015-0.072c0.003-0.031,0.015-0.073,0.034-0.125l0.889-2.56
				c0.008-0.025,0.02-0.045,0.032-0.063c0.012-0.015,0.029-0.025,0.056-0.034c0.027-0.008,0.063-0.015,0.11-0.017
				c0.044-0.001,0.104-0.003,0.181-0.003c0.088,0,0.158,0.002,0.21,0.003c0.051,0.002,0.093,0.009,0.122,0.017
				c0.029,0.009,0.049,0.02,0.063,0.035c0.012,0.018,0.021,0.039,0.031,0.068L44.637,45.4z M43.311,43.286h-0.002L42.9,44.512h0.818
				L43.311,43.286z"/>
		</g>
	</g>
	<g>
		<g>
			<path fill="#9CA69E" d="M0.467,49.92c0,0.01-0.005,0.018-0.008,0.025c-0.005,0.006-0.015,0.012-0.026,0.016
				c-0.01,0.005-0.027,0.009-0.047,0.011c-0.02,0.004-0.044,0.005-0.073,0.005s-0.051-0.001-0.073-0.005
				c-0.02-0.002-0.036-0.006-0.046-0.011c-0.013-0.004-0.022-0.01-0.027-0.016c-0.005-0.008-0.007-0.016-0.007-0.025v-2.205
				c0-0.01,0.005-0.018,0.01-0.024s0.012-0.014,0.026-0.019c0.013-0.002,0.027-0.006,0.047-0.01c0.02-0.002,0.044-0.005,0.07-0.005
				c0.029,0,0.054,0.003,0.073,0.005c0.02,0.004,0.037,0.008,0.047,0.01c0.012,0.005,0.021,0.012,0.026,0.019
				c0.003,0.007,0.008,0.015,0.008,0.024V49.92z"/>
		</g>
		<g>
			<path fill="#9CA69E" d="M2.889,49.84c0,0.023-0.005,0.043-0.013,0.061c-0.007,0.017-0.02,0.03-0.031,0.041
				c-0.013,0.01-0.027,0.018-0.044,0.021c-0.015,0.007-0.032,0.009-0.047,0.009h-0.1c-0.034,0-0.062-0.003-0.086-0.011
				c-0.024-0.006-0.046-0.019-0.068-0.035c-0.021-0.018-0.041-0.041-0.063-0.07c-0.021-0.03-0.044-0.066-0.068-0.113l-0.7-1.306
				c-0.037-0.068-0.073-0.14-0.11-0.213c-0.036-0.074-0.073-0.146-0.104-0.216H1.45c0.003,0.086,0.003,0.172,0.005,0.262
				c0,0.089,0.003,0.176,0.003,0.265v1.386c0,0.008-0.003,0.016-0.01,0.023c-0.003,0.008-0.013,0.014-0.024,0.018
				c-0.01,0.005-0.027,0.009-0.047,0.011c-0.02,0.004-0.044,0.005-0.073,0.005c-0.031,0-0.056-0.001-0.075-0.005
				c-0.02-0.002-0.034-0.006-0.044-0.011c-0.013-0.004-0.02-0.01-0.024-0.018s-0.01-0.016-0.01-0.023v-2.121
				c0-0.046,0.015-0.079,0.041-0.102c0.027-0.02,0.057-0.027,0.088-0.027h0.151c0.034,0,0.063,0.002,0.088,0.007
				c0.024,0.007,0.047,0.018,0.063,0.029c0.02,0.014,0.039,0.033,0.057,0.058c0.017,0.024,0.034,0.055,0.056,0.092l0.537,1.008
				c0.034,0.063,0.066,0.121,0.096,0.181c0.031,0.059,0.061,0.115,0.09,0.173c0.029,0.057,0.057,0.113,0.086,0.168
				c0.026,0.055,0.056,0.109,0.083,0.166h0.002c-0.002-0.094-0.005-0.19-0.005-0.292c0-0.103,0-0.198,0-0.293V47.72
				c0-0.007,0.003-0.016,0.008-0.022s0.012-0.013,0.024-0.02c0.012-0.006,0.026-0.008,0.046-0.011
				c0.02-0.002,0.044-0.003,0.076-0.003c0.029,0,0.051,0.001,0.073,0.003c0.02,0.003,0.034,0.005,0.044,0.011
				c0.012,0.007,0.021,0.013,0.026,0.02s0.008,0.016,0.008,0.022V49.84z"/>
		</g>
		<g>
			<path fill="#9CA69E" d="M5.015,47.799c0,0.024-0.002,0.043-0.005,0.061c-0.002,0.016-0.005,0.029-0.012,0.04
				c-0.005,0.01-0.01,0.017-0.018,0.021c-0.007,0.004-0.017,0.007-0.026,0.007H4.307v1.992c0,0.01-0.002,0.018-0.007,0.025
				c-0.005,0.006-0.013,0.012-0.024,0.016c-0.013,0.005-0.027,0.009-0.047,0.011c-0.02,0.004-0.044,0.005-0.073,0.005
				s-0.054-0.001-0.073-0.005c-0.02-0.002-0.036-0.006-0.049-0.011c-0.012-0.004-0.02-0.01-0.024-0.016
				c-0.005-0.008-0.007-0.016-0.007-0.025v-1.992H3.357c-0.01,0-0.02-0.003-0.027-0.007c-0.007-0.005-0.015-0.012-0.02-0.021
				c-0.005-0.011-0.007-0.024-0.012-0.04c-0.003-0.018-0.003-0.036-0.003-0.061c0-0.021,0-0.041,0.003-0.059
				c0.005-0.017,0.007-0.03,0.012-0.043c0.005-0.01,0.013-0.017,0.02-0.021c0.008-0.004,0.018-0.006,0.027-0.006h1.597
				c0.01,0,0.02,0.002,0.026,0.006c0.008,0.005,0.013,0.012,0.018,0.021c0.007,0.013,0.01,0.026,0.012,0.043
				C5.013,47.758,5.015,47.777,5.015,47.799z"/>
		</g>
		<g>
			<path fill="#9CA69E" d="M6.699,49.84c0,0.021,0,0.039-0.002,0.057c-0.003,0.016-0.008,0.029-0.013,0.039
				c-0.007,0.011-0.012,0.018-0.021,0.023c-0.008,0.004-0.015,0.007-0.024,0.007H5.535c-0.027,0-0.054-0.01-0.076-0.028
				c-0.024-0.017-0.036-0.05-0.036-0.096v-2.049c0-0.045,0.012-0.078,0.036-0.098c0.022-0.019,0.049-0.025,0.076-0.025h1.091
				c0.008,0,0.018,0.002,0.024,0.006c0.008,0.005,0.015,0.012,0.02,0.021c0.005,0.013,0.008,0.025,0.013,0.042
				c0.002,0.015,0.005,0.035,0.005,0.06c0,0.021-0.003,0.039-0.005,0.055c-0.005,0.018-0.008,0.029-0.013,0.039
				s-0.012,0.018-0.02,0.022c-0.007,0.005-0.017,0.007-0.024,0.007H5.728v0.722h0.77c0.01,0,0.02,0.001,0.026,0.008
				c0.008,0.005,0.015,0.013,0.02,0.021c0.005,0.01,0.01,0.022,0.013,0.039c0,0.018,0.002,0.036,0.002,0.059
				s-0.002,0.04-0.002,0.056c-0.003,0.016-0.008,0.027-0.013,0.037c-0.005,0.009-0.012,0.016-0.02,0.02
				c-0.007,0.005-0.017,0.008-0.026,0.008h-0.77v0.821h0.911c0.01,0,0.017,0.003,0.024,0.006c0.01,0.005,0.015,0.014,0.021,0.023
				c0.005,0.01,0.01,0.023,0.013,0.039C6.699,49.796,6.699,49.816,6.699,49.84z"/>
		</g>
		<g>
			<path fill="#9CA69E" d="M8.465,49.833c0,0.022,0,0.042-0.003,0.06c-0.002,0.015-0.007,0.029-0.012,0.04s-0.013,0.021-0.02,0.024
				c-0.008,0.006-0.018,0.009-0.029,0.009H7.388c-0.029,0-0.054-0.01-0.078-0.028c-0.024-0.017-0.036-0.05-0.036-0.096v-2.127
				c0-0.01,0.002-0.018,0.007-0.024s0.013-0.014,0.024-0.019c0.013-0.002,0.029-0.006,0.049-0.01
				c0.02-0.002,0.044-0.005,0.073-0.005S7.48,47.66,7.5,47.662c0.02,0.004,0.034,0.008,0.047,0.01
				c0.012,0.005,0.02,0.012,0.024,0.019s0.007,0.015,0.007,0.024v1.986h0.823c0.012,0,0.021,0.002,0.029,0.008
				c0.007,0.006,0.015,0.013,0.02,0.023c0.005,0.01,0.01,0.023,0.012,0.039C8.465,49.789,8.465,49.809,8.465,49.833z"/>
		</g>
		<g>
			<path fill="#9CA69E" d="M9.183,49.92c0,0.01-0.003,0.018-0.008,0.025c-0.005,0.006-0.012,0.012-0.024,0.016
				c-0.012,0.005-0.026,0.009-0.046,0.011c-0.02,0.004-0.044,0.005-0.073,0.005s-0.054-0.001-0.073-0.005
				c-0.02-0.002-0.037-0.006-0.049-0.011c-0.013-0.004-0.02-0.01-0.024-0.016C8.88,49.938,8.877,49.93,8.877,49.92v-2.205
				c0-0.01,0.003-0.018,0.008-0.024s0.015-0.014,0.026-0.019c0.013-0.002,0.029-0.006,0.049-0.01
				c0.02-0.002,0.042-0.005,0.071-0.005s0.054,0.003,0.073,0.005c0.02,0.004,0.034,0.008,0.046,0.01
				c0.013,0.005,0.02,0.012,0.024,0.019s0.008,0.015,0.008,0.024V49.92z"/>
		</g>
		<g>
			<path fill="#9CA69E" d="M11.595,47.98c0,0.023,0,0.043-0.003,0.061c-0.002,0.016-0.007,0.031-0.012,0.041
				c-0.005,0.013-0.01,0.021-0.018,0.025c-0.007,0.004-0.015,0.007-0.024,0.007c-0.012,0-0.036-0.011-0.07-0.034
				c-0.032-0.022-0.078-0.048-0.132-0.074c-0.057-0.027-0.122-0.053-0.2-0.075c-0.078-0.021-0.171-0.032-0.276-0.032
				c-0.127,0-0.241,0.022-0.342,0.069c-0.1,0.045-0.186,0.109-0.254,0.19c-0.07,0.082-0.124,0.178-0.161,0.291
				c-0.036,0.113-0.056,0.234-0.056,0.367c0,0.146,0.02,0.275,0.061,0.391c0.042,0.111,0.098,0.208,0.169,0.286
				c0.073,0.078,0.158,0.138,0.259,0.177c0.1,0.042,0.21,0.062,0.329,0.062c0.071,0,0.145-0.009,0.218-0.025
				c0.07-0.018,0.139-0.043,0.202-0.077v-0.67H10.75c-0.02,0-0.034-0.009-0.044-0.031c-0.01-0.02-0.015-0.051-0.015-0.092
				c0-0.023,0-0.042,0.002-0.059c0.003-0.017,0.008-0.029,0.013-0.039s0.012-0.018,0.02-0.022c0.007-0.005,0.015-0.007,0.024-0.007
				h0.732c0.012,0,0.024,0.002,0.039,0.007c0.012,0.005,0.024,0.013,0.034,0.022c0.01,0.008,0.02,0.021,0.024,0.037
				c0.007,0.018,0.01,0.037,0.01,0.058v0.875c0,0.032-0.005,0.058-0.018,0.081c-0.01,0.021-0.031,0.041-0.065,0.059
				c-0.034,0.017-0.081,0.035-0.135,0.056c-0.054,0.02-0.109,0.038-0.168,0.052c-0.059,0.015-0.117,0.024-0.176,0.031
				c-0.059,0.008-0.117,0.012-0.176,0.012c-0.179,0-0.337-0.027-0.477-0.082c-0.139-0.057-0.256-0.135-0.354-0.236
				s-0.171-0.223-0.22-0.365c-0.052-0.143-0.078-0.301-0.078-0.476c0-0.183,0.029-0.349,0.083-0.495
				c0.056-0.148,0.132-0.275,0.231-0.379c0.101-0.104,0.223-0.186,0.361-0.242c0.14-0.057,0.296-0.086,0.467-0.086
				c0.088,0,0.168,0.008,0.246,0.023c0.076,0.015,0.145,0.034,0.205,0.054c0.062,0.021,0.11,0.044,0.151,0.067
				c0.039,0.023,0.068,0.043,0.083,0.06c0.018,0.016,0.027,0.034,0.032,0.054C11.592,47.914,11.595,47.943,11.595,47.98z"/>
		</g>
		<g>
			<path fill="#9CA69E" d="M13.516,49.84c0,0.021,0,0.039-0.002,0.057c-0.003,0.016-0.008,0.029-0.013,0.039
				c-0.007,0.011-0.012,0.018-0.021,0.023c-0.008,0.004-0.015,0.007-0.024,0.007h-1.104c-0.027,0-0.052-0.01-0.076-0.028
				c-0.024-0.017-0.036-0.05-0.036-0.096v-2.049c0-0.045,0.012-0.078,0.036-0.098c0.024-0.019,0.049-0.025,0.076-0.025h1.091
				c0.01,0,0.018,0.002,0.024,0.006c0.008,0.005,0.015,0.012,0.02,0.021c0.005,0.013,0.008,0.025,0.013,0.042
				c0.002,0.015,0.005,0.035,0.005,0.06c0,0.021-0.003,0.039-0.005,0.055c-0.005,0.018-0.008,0.029-0.013,0.039
				s-0.012,0.018-0.02,0.022c-0.007,0.005-0.015,0.007-0.024,0.007h-0.898v0.722h0.77c0.01,0,0.02,0.001,0.026,0.008
				c0.008,0.005,0.015,0.013,0.02,0.021c0.005,0.01,0.01,0.022,0.013,0.039c0,0.018,0.002,0.036,0.002,0.059
				s-0.002,0.04-0.002,0.056c-0.003,0.016-0.008,0.027-0.013,0.037c-0.005,0.009-0.012,0.016-0.02,0.02
				c-0.007,0.005-0.017,0.008-0.026,0.008h-0.77v0.821h0.911c0.01,0,0.017,0.003,0.024,0.006c0.01,0.005,0.015,0.014,0.021,0.023
				c0.005,0.01,0.01,0.023,0.013,0.039C13.516,49.796,13.516,49.816,13.516,49.84z"/>
		</g>
		<g>
			<path fill="#9CA69E" d="M15.825,49.84c0,0.023-0.002,0.043-0.012,0.061c-0.008,0.017-0.018,0.03-0.029,0.041
				c-0.015,0.01-0.029,0.018-0.044,0.021c-0.015,0.007-0.032,0.009-0.049,0.009h-0.101c-0.031,0-0.061-0.003-0.083-0.011
				c-0.024-0.006-0.046-0.019-0.068-0.035c-0.021-0.018-0.044-0.041-0.065-0.07c-0.02-0.03-0.042-0.066-0.066-0.113l-0.7-1.306
				c-0.037-0.068-0.073-0.14-0.112-0.213c-0.037-0.074-0.071-0.146-0.103-0.216h-0.005c0.002,0.086,0.005,0.172,0.005,0.262
				c0.002,0.089,0.002,0.176,0.002,0.265v1.386c0,0.008-0.002,0.016-0.007,0.023s-0.015,0.014-0.024,0.018
				c-0.013,0.005-0.027,0.009-0.047,0.011c-0.02,0.004-0.044,0.005-0.075,0.005c-0.029,0-0.054-0.001-0.073-0.005
				c-0.02-0.002-0.034-0.006-0.047-0.011c-0.012-0.004-0.02-0.01-0.024-0.018s-0.007-0.016-0.007-0.023v-2.121
				c0-0.046,0.015-0.079,0.039-0.102c0.029-0.02,0.059-0.027,0.09-0.027h0.149c0.036,0,0.065,0.002,0.09,0.007
				c0.022,0.007,0.044,0.018,0.063,0.029c0.02,0.014,0.037,0.033,0.054,0.058c0.018,0.024,0.037,0.055,0.057,0.092l0.539,1.008
				c0.032,0.063,0.066,0.121,0.096,0.181c0.031,0.059,0.061,0.115,0.09,0.173c0.027,0.057,0.057,0.113,0.086,0.168
				c0.026,0.055,0.054,0.109,0.083,0.166l0,0c-0.003-0.094-0.003-0.19-0.005-0.292c0-0.103,0-0.198,0-0.293V47.72
				c0-0.007,0.002-0.016,0.007-0.022s0.015-0.013,0.027-0.02c0.012-0.006,0.026-0.008,0.046-0.011
				c0.02-0.002,0.044-0.003,0.076-0.003c0.026,0,0.051,0.001,0.07,0.003c0.02,0.003,0.037,0.005,0.047,0.011
				c0.012,0.007,0.02,0.013,0.024,0.02s0.007,0.016,0.007,0.022V49.84z"/>
		</g>
		<g>
			<path fill="#9CA69E" d="M17.952,47.799c0,0.024,0,0.043-0.003,0.061c-0.002,0.016-0.007,0.029-0.012,0.04
				c-0.005,0.01-0.013,0.017-0.02,0.021c-0.008,0.004-0.018,0.007-0.024,0.007h-0.649v1.992c0,0.01,0,0.018-0.005,0.025
				c-0.005,0.006-0.015,0.012-0.024,0.016c-0.013,0.005-0.029,0.009-0.049,0.011c-0.02,0.004-0.044,0.005-0.073,0.005
				c-0.027,0-0.054-0.001-0.073-0.005c-0.02-0.002-0.034-0.006-0.047-0.011c-0.012-0.004-0.021-0.01-0.026-0.016
				c-0.005-0.008-0.005-0.016-0.005-0.025v-1.992h-0.647c-0.01,0-0.017-0.003-0.026-0.007c-0.008-0.005-0.013-0.012-0.018-0.021
				c-0.005-0.011-0.01-0.024-0.012-0.04c-0.003-0.018-0.005-0.036-0.005-0.061c0-0.021,0.002-0.041,0.005-0.059
				c0.002-0.017,0.007-0.03,0.012-0.043c0.005-0.01,0.01-0.017,0.018-0.021c0.01-0.004,0.017-0.006,0.026-0.006h1.6
				c0.007,0,0.017,0.002,0.024,0.006c0.007,0.005,0.015,0.012,0.02,0.021c0.005,0.013,0.01,0.026,0.012,0.043
				C17.952,47.758,17.952,47.777,17.952,47.799z"/>
		</g>
		<g>
			<path fill="#9CA69E" d="M19.639,49.84c0,0.021-0.002,0.039-0.005,0.057c-0.002,0.016-0.005,0.029-0.012,0.039
				c-0.005,0.011-0.013,0.018-0.02,0.023c-0.008,0.004-0.018,0.007-0.027,0.007h-1.101c-0.027,0-0.054-0.01-0.078-0.028
				c-0.024-0.017-0.037-0.05-0.037-0.096v-2.049c0-0.045,0.013-0.078,0.037-0.098c0.024-0.019,0.051-0.025,0.078-0.025h1.089
				c0.01,0,0.02,0.002,0.026,0.006c0.008,0.005,0.013,0.012,0.018,0.021c0.005,0.013,0.01,0.025,0.012,0.042
				c0.003,0.015,0.005,0.035,0.005,0.06c0,0.021-0.002,0.039-0.005,0.055c-0.002,0.018-0.007,0.029-0.012,0.039
				s-0.01,0.018-0.018,0.022c-0.007,0.005-0.017,0.007-0.026,0.007h-0.898v0.722h0.771c0.01,0,0.02,0.001,0.024,0.008
				c0.01,0.005,0.015,0.013,0.02,0.021c0.007,0.01,0.01,0.022,0.012,0.039c0.003,0.018,0.005,0.036,0.005,0.059
				s-0.002,0.04-0.005,0.056c-0.002,0.016-0.005,0.027-0.012,0.037c-0.005,0.009-0.01,0.016-0.02,0.02
				c-0.005,0.005-0.015,0.008-0.024,0.008h-0.771v0.821h0.91c0.01,0,0.02,0.003,0.027,0.006c0.007,0.005,0.015,0.014,0.02,0.023
				c0.007,0.01,0.01,0.023,0.012,0.039C19.637,49.796,19.639,49.816,19.639,49.84z"/>
		</g>
		<g>
			<path fill="#9CA69E" d="M22.313,49.84c0,0.021-0.003,0.039-0.005,0.057c-0.003,0.016-0.008,0.029-0.013,0.039
				c-0.007,0.011-0.012,0.018-0.021,0.023c-0.008,0.004-0.015,0.007-0.024,0.007h-1.104c-0.027,0-0.052-0.01-0.076-0.028
				c-0.024-0.017-0.036-0.05-0.036-0.096v-2.049c0-0.045,0.012-0.078,0.036-0.098c0.024-0.019,0.049-0.025,0.076-0.025h1.091
				c0.01,0,0.018,0.002,0.024,0.006c0.008,0.005,0.015,0.012,0.02,0.021c0.005,0.013,0.01,0.025,0.013,0.042
				c0.002,0.015,0.005,0.035,0.005,0.06c0,0.021-0.003,0.039-0.005,0.055c-0.003,0.018-0.008,0.029-0.013,0.039
				s-0.012,0.018-0.02,0.022c-0.007,0.005-0.015,0.007-0.024,0.007h-0.898v0.722h0.771c0.008,0,0.018,0.001,0.024,0.008
				c0.008,0.005,0.015,0.013,0.02,0.021c0.005,0.01,0.01,0.022,0.013,0.039c0.002,0.018,0.002,0.036,0.002,0.059s0,0.04-0.002,0.056
				c-0.003,0.016-0.008,0.027-0.013,0.037c-0.005,0.009-0.012,0.016-0.02,0.02c-0.007,0.005-0.017,0.008-0.024,0.008h-0.771v0.821
				h0.911c0.01,0,0.017,0.003,0.024,0.006c0.01,0.005,0.015,0.014,0.021,0.023c0.005,0.01,0.01,0.023,0.013,0.039
				C22.31,49.796,22.313,49.816,22.313,49.84z"/>
		</g>
		<g>
			<path fill="#9CA69E" d="M24.941,49.321c0,0.107-0.021,0.204-0.061,0.288c-0.039,0.083-0.096,0.155-0.166,0.213
				c-0.071,0.06-0.151,0.104-0.247,0.133C24.373,49.984,24.271,50,24.158,50c-0.076,0-0.146-0.008-0.213-0.021
				c-0.065-0.013-0.124-0.028-0.178-0.048c-0.049-0.019-0.093-0.038-0.127-0.058c-0.034-0.021-0.062-0.038-0.073-0.052
				c-0.013-0.016-0.024-0.032-0.029-0.055c-0.008-0.021-0.013-0.051-0.013-0.088c0-0.026,0.003-0.047,0.005-0.064
				c0.003-0.018,0.008-0.031,0.01-0.043c0.005-0.01,0.013-0.017,0.02-0.021c0.008-0.004,0.015-0.006,0.024-0.006
				c0.018,0,0.039,0.011,0.071,0.03c0.029,0.02,0.068,0.042,0.117,0.065c0.044,0.025,0.103,0.047,0.168,0.066
				c0.068,0.021,0.145,0.031,0.232,0.031c0.065,0,0.127-0.01,0.183-0.026c0.054-0.017,0.103-0.043,0.142-0.075
				c0.042-0.033,0.071-0.072,0.091-0.12c0.021-0.048,0.031-0.102,0.031-0.161c0-0.066-0.015-0.121-0.044-0.167
				c-0.029-0.047-0.068-0.087-0.117-0.122c-0.046-0.035-0.103-0.066-0.166-0.096c-0.061-0.029-0.124-0.059-0.19-0.089
				c-0.065-0.03-0.129-0.063-0.188-0.101c-0.063-0.036-0.117-0.08-0.166-0.129c-0.049-0.05-0.088-0.108-0.12-0.175
				c-0.029-0.067-0.044-0.147-0.044-0.241c0-0.096,0.018-0.182,0.052-0.257s0.083-0.138,0.146-0.188
				c0.061-0.052,0.137-0.091,0.222-0.117c0.086-0.027,0.179-0.039,0.276-0.039c0.054,0,0.103,0.003,0.156,0.012
				c0.049,0.01,0.098,0.022,0.144,0.037c0.047,0.013,0.086,0.03,0.122,0.049c0.037,0.019,0.059,0.034,0.071,0.044
				c0.01,0.012,0.02,0.021,0.02,0.026c0.005,0.008,0.007,0.017,0.01,0.024c0.002,0.012,0.005,0.023,0.005,0.038
				c0.002,0.014,0.002,0.033,0.002,0.055c0,0.021,0,0.039-0.002,0.058c-0.003,0.016-0.005,0.029-0.008,0.04
				c-0.002,0.011-0.007,0.02-0.015,0.026c-0.007,0.004-0.015,0.007-0.021,0.007c-0.015,0-0.034-0.007-0.063-0.024
				c-0.027-0.018-0.059-0.035-0.101-0.057c-0.041-0.021-0.088-0.04-0.144-0.056c-0.054-0.017-0.117-0.025-0.186-0.025
				c-0.063,0-0.12,0.009-0.166,0.025c-0.049,0.016-0.086,0.039-0.117,0.067c-0.032,0.029-0.054,0.063-0.068,0.102
				c-0.018,0.04-0.024,0.08-0.024,0.125c0,0.063,0.015,0.119,0.044,0.164c0.031,0.046,0.07,0.088,0.119,0.123
				s0.105,0.068,0.169,0.098c0.061,0.029,0.124,0.059,0.19,0.089c0.065,0.03,0.127,0.063,0.19,0.101
				c0.063,0.036,0.119,0.078,0.168,0.127s0.088,0.107,0.12,0.174C24.925,49.151,24.941,49.23,24.941,49.321z"/>
		</g>
		<g>
			<path fill="#9CA69E" d="M27.181,49.117c0,0.141-0.022,0.266-0.062,0.373c-0.041,0.109-0.1,0.202-0.176,0.279
				c-0.075,0.075-0.168,0.132-0.275,0.172C26.558,49.979,26.434,50,26.294,50c-0.124,0-0.241-0.02-0.344-0.055
				c-0.105-0.038-0.193-0.092-0.269-0.164c-0.073-0.07-0.132-0.161-0.171-0.269c-0.042-0.107-0.062-0.231-0.062-0.372v-1.426
				c0-0.01,0.003-0.018,0.008-0.024s0.012-0.014,0.024-0.019c0.012-0.002,0.026-0.006,0.046-0.01
				c0.02-0.002,0.042-0.005,0.073-0.005c0.029,0,0.054,0.003,0.073,0.005c0.02,0.004,0.037,0.008,0.047,0.01
				c0.012,0.005,0.02,0.012,0.024,0.019s0.007,0.015,0.007,0.024v1.389c0,0.105,0.013,0.199,0.039,0.279
				c0.027,0.079,0.063,0.144,0.112,0.197c0.049,0.053,0.11,0.092,0.179,0.118c0.068,0.027,0.146,0.04,0.234,0.04
				s0.166-0.013,0.236-0.04c0.068-0.025,0.127-0.063,0.176-0.116c0.047-0.052,0.083-0.117,0.11-0.193
				c0.024-0.077,0.036-0.166,0.036-0.27v-1.404c0-0.01,0.003-0.018,0.008-0.024s0.015-0.014,0.024-0.019
				c0.012-0.002,0.029-0.006,0.046-0.01c0.022-0.002,0.047-0.005,0.076-0.005c0.026,0,0.051,0.003,0.073,0.005
				c0.017,0.004,0.034,0.008,0.044,0.01c0.012,0.005,0.02,0.012,0.024,0.019s0.01,0.015,0.01,0.024V49.117z"/>
		</g>
		<g>
			<path fill="#9CA69E" d="M29.095,49.321c0,0.107-0.02,0.204-0.059,0.288c-0.039,0.083-0.096,0.155-0.166,0.213
				c-0.071,0.06-0.154,0.104-0.249,0.133C28.525,49.984,28.423,50,28.313,50c-0.078,0-0.146-0.008-0.215-0.021
				c-0.066-0.013-0.125-0.028-0.176-0.048c-0.049-0.019-0.093-0.038-0.127-0.058c-0.037-0.021-0.062-0.038-0.076-0.052
				c-0.012-0.016-0.021-0.032-0.029-0.055c-0.005-0.021-0.01-0.051-0.01-0.088c0-0.026,0.003-0.047,0.005-0.064
				c0.003-0.018,0.005-0.031,0.01-0.043c0.005-0.01,0.013-0.017,0.02-0.021c0.005-0.004,0.015-0.006,0.022-0.006
				c0.017,0,0.041,0.011,0.07,0.03c0.032,0.02,0.068,0.042,0.117,0.065c0.047,0.025,0.103,0.047,0.171,0.066
				c0.068,0.021,0.145,0.031,0.232,0.031c0.065,0,0.127-0.01,0.181-0.026c0.056-0.017,0.103-0.043,0.144-0.075
				c0.039-0.033,0.068-0.072,0.091-0.12c0.021-0.048,0.031-0.102,0.031-0.161c0-0.066-0.015-0.121-0.044-0.167
				c-0.029-0.047-0.068-0.087-0.117-0.122S28.509,49,28.447,48.971c-0.063-0.029-0.124-0.059-0.19-0.089
				c-0.065-0.03-0.129-0.063-0.19-0.101c-0.061-0.036-0.117-0.08-0.166-0.129c-0.046-0.05-0.085-0.108-0.117-0.175
				c-0.029-0.067-0.046-0.147-0.046-0.241c0-0.096,0.02-0.182,0.054-0.257s0.083-0.138,0.146-0.188
				c0.061-0.052,0.137-0.091,0.22-0.117c0.088-0.027,0.178-0.039,0.278-0.039c0.054,0,0.103,0.003,0.153,0.012
				c0.052,0.01,0.101,0.022,0.146,0.037c0.047,0.013,0.086,0.03,0.12,0.049c0.036,0.019,0.061,0.034,0.07,0.044
				c0.013,0.012,0.02,0.021,0.022,0.026c0.005,0.008,0.007,0.017,0.01,0.024c0.002,0.012,0.005,0.023,0.005,0.038
				c0.002,0.014,0.002,0.033,0.002,0.055c0,0.021,0,0.039-0.002,0.058c-0.003,0.016-0.005,0.029-0.01,0.04
				c-0.003,0.011-0.008,0.02-0.013,0.026c-0.007,0.004-0.015,0.007-0.024,0.007c-0.012,0-0.031-0.007-0.061-0.024
				c-0.027-0.018-0.062-0.035-0.103-0.057c-0.039-0.021-0.088-0.04-0.142-0.056c-0.057-0.017-0.117-0.025-0.186-0.025
				c-0.063,0-0.12,0.009-0.166,0.025c-0.049,0.016-0.088,0.039-0.117,0.067c-0.032,0.029-0.057,0.063-0.068,0.102
				c-0.018,0.04-0.024,0.08-0.024,0.125c0,0.063,0.015,0.119,0.044,0.164c0.029,0.046,0.068,0.088,0.117,0.123
				s0.104,0.068,0.168,0.098c0.062,0.029,0.127,0.059,0.193,0.089c0.063,0.03,0.127,0.063,0.19,0.101
				c0.063,0.036,0.119,0.078,0.168,0.127s0.088,0.107,0.12,0.174C29.08,49.151,29.095,49.23,29.095,49.321z"/>
			<path fill="#9CA69E" d="M30.97,47.799c0,0.024,0,0.043-0.003,0.061c-0.002,0.016-0.007,0.029-0.012,0.04
				c-0.005,0.01-0.01,0.017-0.018,0.021c-0.01,0.004-0.017,0.007-0.026,0.007h-0.647v1.992c0,0.01-0.002,0.018-0.007,0.025
				c-0.005,0.006-0.013,0.012-0.024,0.016c-0.013,0.005-0.027,0.009-0.047,0.011c-0.02,0.004-0.044,0.005-0.073,0.005
				s-0.054-0.001-0.073-0.005c-0.02-0.002-0.036-0.006-0.049-0.011c-0.012-0.004-0.02-0.01-0.024-0.016
				c-0.005-0.008-0.007-0.016-0.007-0.025v-1.992h-0.647c-0.007,0-0.017-0.003-0.024-0.007c-0.007-0.005-0.015-0.012-0.02-0.021
				c-0.005-0.011-0.01-0.024-0.012-0.04c0-0.018-0.005-0.036-0.005-0.061c0-0.021,0.005-0.041,0.005-0.059
				c0.002-0.017,0.007-0.03,0.012-0.043c0.005-0.01,0.013-0.017,0.02-0.021c0.008-0.004,0.018-0.006,0.024-0.006h1.6
				c0.01,0,0.017,0.002,0.026,0.006c0.008,0.005,0.013,0.012,0.018,0.021c0.005,0.013,0.01,0.026,0.012,0.043
				C30.97,47.758,30.97,47.777,30.97,47.799z"/>
		</g>
		<g>
			<path fill="#9CA69E" d="M32.708,49.84c0,0.021,0,0.039-0.003,0.057c-0.002,0.016-0.007,0.029-0.012,0.039
				c-0.008,0.011-0.013,0.018-0.022,0.023c-0.007,0.004-0.015,0.007-0.026,0.007h-1.102c-0.026,0-0.054-0.01-0.078-0.028
				c-0.021-0.017-0.036-0.05-0.036-0.096v-2.049c0-0.045,0.015-0.078,0.036-0.098c0.024-0.019,0.052-0.025,0.078-0.025h1.092
				c0.007,0,0.017,0.002,0.024,0.006c0.007,0.005,0.015,0.012,0.02,0.021c0.005,0.013,0.01,0.025,0.01,0.042
				c0.005,0.015,0.005,0.035,0.005,0.06c0,0.021,0,0.039-0.005,0.055c0,0.018-0.005,0.029-0.01,0.039s-0.013,0.018-0.02,0.022
				c-0.008,0.005-0.018,0.007-0.024,0.007h-0.898v0.722h0.769c0.01,0,0.02,0.001,0.027,0.008c0.007,0.005,0.012,0.013,0.02,0.021
				c0.005,0.01,0.01,0.022,0.01,0.039c0.002,0.018,0.005,0.036,0.005,0.059s-0.003,0.04-0.005,0.056c0,0.016-0.005,0.027-0.01,0.037
				c-0.008,0.009-0.013,0.016-0.02,0.02c-0.008,0.005-0.018,0.008-0.027,0.008h-0.769v0.821h0.908c0.012,0,0.02,0.003,0.026,0.006
				c0.01,0.005,0.015,0.014,0.022,0.023c0.005,0.01,0.01,0.023,0.012,0.039C32.708,49.796,32.708,49.816,32.708,49.84z"/>
		</g>
		<g>
			<path fill="#9CA69E" d="M35.018,49.84c0,0.023-0.005,0.043-0.013,0.061c-0.007,0.017-0.017,0.03-0.031,0.041
				c-0.013,0.01-0.027,0.018-0.042,0.021c-0.017,0.007-0.034,0.009-0.049,0.009h-0.1c-0.034,0-0.062-0.003-0.086-0.011
				c-0.021-0.006-0.046-0.019-0.065-0.035c-0.022-0.018-0.044-0.041-0.066-0.07c-0.021-0.03-0.044-0.066-0.068-0.113l-0.7-1.306
				c-0.034-0.068-0.073-0.14-0.11-0.213c-0.036-0.074-0.073-0.146-0.104-0.216h-0.003c0.003,0.086,0.003,0.172,0.005,0.262
				c0.003,0.089,0.003,0.176,0.003,0.265v1.386c0,0.008-0.003,0.016-0.008,0.023s-0.015,0.014-0.024,0.018
				c-0.012,0.005-0.029,0.009-0.046,0.011c-0.022,0.004-0.047,0.005-0.076,0.005c-0.031,0-0.056-0.001-0.075-0.005
				c-0.018-0.002-0.034-0.006-0.044-0.011c-0.013-0.004-0.02-0.01-0.024-0.018s-0.008-0.016-0.008-0.023v-2.121
				c0-0.046,0.013-0.079,0.039-0.102c0.027-0.02,0.057-0.027,0.088-0.027h0.149c0.036,0,0.065,0.002,0.09,0.007
				c0.024,0.007,0.047,0.018,0.066,0.029c0.017,0.014,0.036,0.033,0.054,0.058c0.017,0.024,0.036,0.055,0.056,0.092l0.537,1.008
				c0.034,0.063,0.066,0.121,0.098,0.181c0.029,0.059,0.062,0.115,0.088,0.173c0.029,0.057,0.059,0.113,0.086,0.168
				c0.029,0.055,0.056,0.109,0.083,0.166h0.002c-0.002-0.094-0.005-0.19-0.005-0.292c0-0.103,0-0.198,0-0.293V47.72
				c0-0.007,0.003-0.016,0.008-0.022s0.015-0.013,0.024-0.02c0.012-0.006,0.026-0.008,0.049-0.011
				c0.017-0.002,0.044-0.003,0.073-0.003s0.054,0.001,0.073,0.003c0.02,0.003,0.034,0.005,0.046,0.011
				c0.013,0.007,0.02,0.013,0.024,0.02s0.008,0.016,0.008,0.022V49.84z"/>
		</g>
		<g>
			<path fill="#9CA69E" d="M37.144,47.799c0,0.024,0,0.043-0.002,0.061c-0.003,0.016-0.008,0.029-0.013,0.04
				c-0.007,0.01-0.012,0.017-0.02,0.021c-0.01,0.004-0.017,0.007-0.026,0.007h-0.647v1.992c0,0.01-0.002,0.018-0.007,0.025
				c-0.003,0.006-0.013,0.012-0.024,0.016c-0.013,0.005-0.027,0.009-0.047,0.011c-0.02,0.004-0.044,0.005-0.073,0.005
				s-0.054-0.001-0.073-0.005c-0.02-0.002-0.036-0.006-0.046-0.011c-0.013-0.004-0.022-0.01-0.027-0.016
				c-0.005-0.008-0.007-0.016-0.007-0.025v-1.992h-0.645c-0.01,0-0.02-0.003-0.027-0.007c-0.007-0.005-0.012-0.012-0.017-0.021
				c-0.005-0.011-0.01-0.024-0.013-0.04c-0.002-0.018-0.005-0.036-0.005-0.061c0-0.021,0.003-0.041,0.005-0.059
				c0.003-0.017,0.008-0.03,0.013-0.043c0.005-0.01,0.01-0.017,0.017-0.021c0.008-0.004,0.018-0.006,0.027-0.006h1.597
				c0.01,0,0.017,0.002,0.026,0.006c0.008,0.005,0.013,0.012,0.02,0.021c0.005,0.013,0.01,0.026,0.013,0.043
				C37.144,47.758,37.144,47.777,37.144,47.799z"/>
		</g>
		<g>
			<path fill="#9CA69E" d="M38.987,49.857c0.01,0.025,0.015,0.046,0.015,0.063c0,0.016-0.005,0.028-0.015,0.035
				c-0.008,0.01-0.024,0.015-0.044,0.017c-0.024,0.003-0.054,0.004-0.091,0.004c-0.036,0-0.065-0.001-0.088-0.002
				c-0.021-0.003-0.036-0.005-0.049-0.01c-0.01-0.004-0.02-0.01-0.024-0.016c-0.007-0.008-0.01-0.018-0.015-0.027l-0.197-0.561
				h-0.955l-0.188,0.553c-0.005,0.012-0.01,0.02-0.015,0.027c-0.008,0.009-0.015,0.015-0.024,0.02
				c-0.013,0.006-0.029,0.01-0.049,0.012c-0.022,0.003-0.049,0.004-0.081,0.004c-0.034,0-0.063-0.001-0.085-0.005
				c-0.022-0.002-0.037-0.009-0.047-0.017c-0.007-0.008-0.012-0.021-0.012-0.035c0-0.018,0.007-0.038,0.017-0.064l0.77-2.133
				c0.005-0.014,0.01-0.025,0.017-0.032c0.01-0.009,0.02-0.016,0.037-0.021c0.012-0.004,0.031-0.008,0.054-0.009
				c0.024-0.003,0.054-0.004,0.09-0.004c0.037,0,0.068,0.001,0.093,0.004c0.024,0.001,0.047,0.005,0.062,0.009
				c0.015,0.005,0.026,0.012,0.034,0.021c0.01,0.008,0.017,0.02,0.021,0.032L38.987,49.857z M37.998,47.975h-0.002l-0.396,1.145
				h0.798L37.998,47.975z M38.211,47.035c0.015-0.015,0.026-0.028,0.039-0.035c0.012-0.009,0.024-0.016,0.041-0.021
				c0.015-0.004,0.032-0.006,0.057-0.008c0.02-0.002,0.046-0.003,0.075-0.003c0.034,0,0.062,0.003,0.083,0.009
				c0.02,0.004,0.034,0.011,0.042,0.02c0.01,0.007,0.012,0.017,0.01,0.029c-0.005,0.01-0.01,0.021-0.022,0.033l-0.402,0.375
				c-0.01,0.013-0.022,0.022-0.032,0.028c-0.01,0.007-0.021,0.011-0.034,0.017c-0.015,0.003-0.029,0.007-0.046,0.008
				c-0.018,0.003-0.039,0.004-0.063,0.004c-0.027,0-0.047-0.002-0.063-0.005c-0.015-0.004-0.024-0.009-0.032-0.015
				c-0.005-0.006-0.007-0.015-0.005-0.024c0.003-0.009,0.008-0.021,0.02-0.033L38.211,47.035z"/>
		</g>
		<g>
			<path fill="#9CA69E" d="M40.218,49.912c-0.005,0.014-0.013,0.024-0.02,0.033c-0.01,0.008-0.022,0.014-0.034,0.018
				c-0.018,0.007-0.037,0.009-0.059,0.012c-0.022,0.001-0.052,0.002-0.088,0.002c-0.024,0-0.047,0-0.066-0.001
				c-0.02,0-0.036-0.001-0.051-0.004c-0.015-0.002-0.027-0.006-0.034-0.009c-0.013-0.003-0.02-0.007-0.027-0.012
				c-0.007-0.004-0.015-0.01-0.017-0.018c-0.005-0.006-0.01-0.013-0.013-0.022l-0.752-2.134c-0.01-0.027-0.012-0.048-0.012-0.063
				c-0.003-0.017,0.002-0.028,0.012-0.037c0.013-0.007,0.029-0.012,0.052-0.016c0.024-0.003,0.056-0.004,0.098-0.004
				c0.034,0,0.059,0.001,0.078,0.004c0.02,0.001,0.034,0.005,0.046,0.009c0.01,0.005,0.02,0.012,0.022,0.02
				c0.005,0.008,0.012,0.017,0.017,0.029l0.657,1.932h0.002l0.643-1.928c0.002-0.014,0.007-0.025,0.01-0.032
				c0.005-0.009,0.015-0.016,0.026-0.021c0.013-0.004,0.027-0.008,0.049-0.009c0.022-0.003,0.052-0.004,0.086-0.004
				c0.036,0,0.065,0.003,0.088,0.005c0.02,0.004,0.034,0.01,0.044,0.018c0.007,0.008,0.01,0.02,0.007,0.036
				c0,0.017-0.007,0.037-0.017,0.063L40.218,49.912z"/>
		</g>
		<g>
			<path fill="#9CA69E" d="M42.705,49.84c0,0.021-0.002,0.039-0.005,0.057c-0.002,0.016-0.005,0.029-0.012,0.039
				c-0.005,0.011-0.013,0.018-0.02,0.023c-0.008,0.004-0.018,0.007-0.027,0.007h-1.101c-0.029,0-0.054-0.01-0.078-0.028
				c-0.024-0.017-0.037-0.05-0.037-0.096v-2.049c0-0.045,0.013-0.078,0.037-0.098c0.024-0.019,0.049-0.025,0.078-0.025h1.089
				c0.01,0,0.02,0.002,0.026,0.006c0.008,0.005,0.015,0.012,0.02,0.021c0.005,0.013,0.008,0.025,0.013,0.042
				c0,0.015,0.002,0.035,0.002,0.06c0,0.021-0.002,0.039-0.002,0.055c-0.005,0.018-0.008,0.029-0.013,0.039s-0.012,0.018-0.02,0.022
				c-0.007,0.005-0.017,0.007-0.026,0.007h-0.898v0.722h0.771c0.01,0,0.02,0.001,0.024,0.008c0.007,0.005,0.015,0.013,0.02,0.021
				c0.007,0.01,0.01,0.022,0.012,0.039c0.003,0.018,0.005,0.036,0.005,0.059s-0.002,0.04-0.005,0.056
				c-0.002,0.016-0.005,0.027-0.012,0.037c-0.005,0.009-0.013,0.016-0.02,0.02c-0.005,0.005-0.015,0.008-0.024,0.008h-0.771v0.821
				h0.91c0.01,0,0.02,0.003,0.027,0.006c0.007,0.005,0.015,0.014,0.02,0.023c0.007,0.01,0.01,0.023,0.012,0.039
				C42.703,49.796,42.705,49.816,42.705,49.84z"/>
		</g>
		<g>
			<path fill="#9CA69E" d="M44.471,49.833c0,0.022-0.003,0.042-0.005,0.06c-0.003,0.015-0.008,0.029-0.013,0.04
				s-0.012,0.021-0.02,0.024c-0.007,0.006-0.017,0.009-0.026,0.009h-1.016c-0.027,0-0.054-0.01-0.078-0.028
				c-0.022-0.017-0.037-0.05-0.037-0.096v-2.127c0-0.01,0.003-0.018,0.008-0.024s0.015-0.014,0.024-0.019
				c0.012-0.002,0.029-0.006,0.049-0.01c0.02-0.002,0.044-0.005,0.073-0.005s0.054,0.003,0.073,0.005
				c0.02,0.004,0.036,0.008,0.049,0.01c0.01,0.005,0.02,0.012,0.024,0.019s0.005,0.015,0.005,0.024v1.986h0.825
				c0.01,0,0.02,0.002,0.026,0.008c0.008,0.006,0.015,0.013,0.02,0.023c0.005,0.01,0.01,0.023,0.013,0.039
				C44.468,49.789,44.471,49.809,44.471,49.833z"/>
		</g>
	</g>
	<path fill-rule="evenodd" clip-rule="evenodd" fill="#264038" d="M20.037,21.421h4.077V18.8h-4.077V21.421z M10.352,0.056h2.674
		v37.499h0.739V0.111c0.288-0.08,0.806-0.093,1.196-0.093h0.628c0.305,0,0.645,0.024,0.886,0.056v37.864
		c0,0.657-0.202,1.301-0.725,1.763c-0.386,0.342-0.977,0.528-1.812,0.528h-0.967c-0.789,0-1.543-0.16-1.966-0.605
		c-0.376-0.396-0.654-0.911-0.654-1.686V0.056z M2.617,19.348V2.652h0.762v16.669C3.152,19.348,2.871,19.348,2.617,19.348z
		 M3.413,40.165c0.838,0.085,1.736,0.089,2.659-0.048V21.941c0-0.675-0.088-1.336-0.879-1.798l-0.034-0.082
		c0.728-0.378,0.913-1.074,0.913-1.725V2.392c0-0.819-0.169-1.552-1.106-2.093C4.429-0.01,3.543,0.022,2.703,0.022H1.289
		c-0.43,0-0.944-0.01-1.289,0.046v40.098h2.617V20.898h0.762V38.41C3.379,38.995,3.398,39.54,3.413,40.165z M17.29,40.166h2.617
		v-5.587H17.29V40.166z M6.927,40.166h2.617v-5.587H6.927V40.166z"/>
	<path fill-rule="evenodd" clip-rule="evenodd" fill="#9CA69E" d="M37.285,29.922c-0.803-0.077-1.885-0.051-2.658,0.039v7.707
		c0,0.799,0.107,1.447,0.749,2.045c0.352,0.327,1.089,0.527,2.029,0.527h0.488c1.089,0,1.555-0.137,1.979-0.443
		c0.687-0.492,0.848-1.119,0.848-2.129V19.905c0-0.417-0.371-0.862-0.908-0.862h-2.483V2.661h0.735v7.687h2.656V2.572
		c0-0.799-0.076-1.496-0.75-2.061C39.59,0.189,38.885,0,37.942,0h-0.488c-0.947,0-1.561,0.152-1.985,0.46
		c-0.684,0.492-0.842,1.326-0.842,2.112v17.785c0,0.418,0.371,0.862,0.908,0.862h2.485v16.36h-0.735V29.922z M27.693,40.166h2.619
		V0.056h-2.619V40.166z M41.553,40.166h2.617v-5.664c-0.871-0.038-1.745-0.037-2.617,0V40.166z M31.17,40.166h2.619v-5.664
		c-0.874-0.038-1.745-0.037-2.619,0V40.166z"/>
</g>
</svg>
