<?xml version="1.0" encoding="utf-8"?>
<!-- Generator: Adobe Illustrator 16.0.0, SVG Export Plug-In . SVG Version: 6.00 Build 0)  -->
<!DOCTYPE svg PUBLIC "-//W3C//DTD SVG 1.1//EN" "http://www.w3.org/Graphics/SVG/1.1/DTD/svg11.dtd">
<svg version="1.1" id="Layer_1" xmlns="http://www.w3.org/2000/svg" xmlns:xlink="http://www.w3.org/1999/xlink" x="0px" y="0px"
	 width="35px" height="35px" viewBox="0 0 35 35" enable-background="new 0 0 35 35" xml:space="preserve">
<g>
	<path fill="#55ACEE" d="M35,28.436C35,32.061,32.061,35,28.436,35H6.564C2.94,35,0,32.061,0,28.436V6.564C0,2.94,2.94,0,6.564,0
		h21.872C32.061,0,35,2.94,35,6.564V28.436z M26.41,11.76c1.002-0.595,1.754-1.551,2.119-2.667
		c-0.934,0.548-1.961,0.957-3.053,1.159c-0.867-0.93-2.12-1.501-3.488-1.501c-2.641,0-4.784,2.143-4.784,4.784
		c0,0.365,0.023,0.754,0.113,1.096c-3.986-0.206-7.518-2.1-9.89-5.016c-0.409,0.711-0.661,1.551-0.661,2.418
		c0,1.661,0.774,3.123,2.073,3.986c-0.797-0.02-1.548-0.252-2.276-0.591c0,0,0,0.02,0,0.046c0,2.322,1.754,4.259,3.94,4.69
		c-0.409,0.116-0.728,0.187-1.163,0.187c-0.296,0-0.591-0.047-0.887-0.094c0.614,1.894,2.368,3.282,4.464,3.329
		c-1.641,1.275-3.69,2.05-5.946,2.05c-0.389,0-0.774-0.023-1.139-0.07c2.119,1.346,4.624,2.143,7.338,2.143
		c8.793,0,13.627-7.291,13.627-13.626c0-0.203,0-0.408-0.023-0.614c0.934-0.661,1.754-1.505,2.391-2.485
		C28.3,11.371,27.39,11.62,26.41,11.76z"/>
</g>
</svg>
