<?xml version="1.0" encoding="utf-8"?>
<!-- Generator: Adobe Illustrator 16.0.0, SVG Export Plug-In . SVG Version: 6.00 Build 0)  -->
<!DOCTYPE svg PUBLIC "-//W3C//DTD SVG 1.1//EN" "http://www.w3.org/Graphics/SVG/1.1/DTD/svg11.dtd">
<svg version="1.1" id="Layer_1" xmlns="http://www.w3.org/2000/svg" xmlns:xlink="http://www.w3.org/1999/xlink" x="0px" y="0px"
	 width="971.194px" height="878.352px" viewBox="-253.598 -340.864 971.194 878.352"
	 enable-background="new -253.598 -340.864 971.194 878.352" xml:space="preserve">
<g>
	<g>
		<path fill="#FFB531" d="M-106.105,512.488c-109.134,0-153.78-77.33-99.213-171.843L132.789-244.98
			c54.566-94.513,143.857-94.513,198.424,0L669.32,340.645c54.563,94.513,9.92,171.843-99.213,171.843H-106.105z"/>
	</g>
	<g>
		<path fill="#FFFFFF" d="M570.104,537.488h-676.21c-30.352,0-57.2-5.354-79.797-15.91c-22.997-10.742-41.271-27.02-52.848-47.068
			c-11.576-20.051-16.534-44.013-14.34-69.301c2.157-24.849,10.945-50.775,26.121-77.062L111.137-257.48
			c15.176-26.286,33.235-46.86,53.676-61.152c20.802-14.545,44.035-22.232,67.187-22.232c23.151,0,46.385,7.688,67.187,22.232
			c20.441,14.292,38.5,34.867,53.678,61.152l338.104,585.625c15.179,26.286,23.965,52.213,26.121,77.062
			c2.195,25.288-2.764,49.251-14.34,69.302c-11.576,20.049-29.85,36.326-52.848,47.068
			C627.306,532.134,600.458,537.488,570.104,537.488z M232-290.864c-28.279,0-55.824,20.734-77.561,58.385l-338.107,585.625
			c-21.737,37.649-25.921,71.872-11.781,96.363c14.14,24.49,45.87,37.979,89.344,37.979h676.212c43.473,0,75.2-13.486,89.342-37.979
			c14.141-24.492,9.957-58.713-11.779-96.363L309.562-232.479C287.824-270.129,260.279-290.864,232-290.864z"/>
	</g>
</g>
<g>
	<path fill="#FFFFFF" d="M415.811,365.056L53.853,120.208v38.015L398.575,390.91L415.811,365.056z"/>
	<path fill="#FFFFFF" d="M501.992,390.91c0-14.278-11.576-25.854-25.855-25.854h-8.617c0-14.278-11.574-25.854-25.854-25.854
		s-25.854,11.576-25.854,25.854h-8.616c-14.278,0-25.854,11.576-25.854,25.854c-14.277,0-25.854,11.576-25.854,25.854V434h172.36
		v-17.236C527.845,402.486,516.269,390.91,501.992,390.91z"/>
	<path fill="#FFFFFF" d="M407.192,390.91h17.234v17.235h-17.234V390.91L407.192,390.91z"/>
	<path fill="#FFFFFF" d="M441.665,382.291h17.236v17.236h-17.236V382.291z"/>
	<g>
		<path fill="#FFFFFF" d="M329.63-14.139c0,28.556-23.152,51.708-51.708,51.708c-28.557,0-51.708-23.153-51.708-51.708
			c0-28.555,23.152-51.708,51.708-51.708S329.63-42.695,329.63-14.139z"/>
		<path fill="#FFFFFF" d="M284.387,91.008C264.125,58.223,195.1,33.583,159.392,26.725c-27.609-5.303-87.554-6.521-107.923,14.232
			c-24.942,25.411-23.47,134.502-23.47,134.502h43.09c0,0-5.615-87.407,12.667-105.688c12.188-12.188,56.277,2.271,56.277,2.271
			L88.325,209.931v94.799L27.998,434h60.327l60.326-120.653v-77.562l60.327,77.562V434h60.326V296.111l-60.326-86.181l34.472-86.181
			c0,0,4.068,58.026,6.643,77.245c3.261,24.348,19.212,95.117,19.212,95.117h43.089c0,0-15.401-83.756-17.235-112.035
			C293.643,160.703,296.847,111.168,284.387,91.008z"/>
	</g>
</g>
</svg>
