<?xml version="1.0" standalone="no"?>
<!DOCTYPE svg PUBLIC "-//W3C//DTD SVG 20010904//EN"
 "http://www.w3.org/TR/2001/REC-SVG-20010904/DTD/svg10.dtd">
<svg version="1.0" xmlns="http://www.w3.org/2000/svg"
 width="1854.000000pt" height="1854.000000pt" viewBox="0 0 1854.000000 1854.000000"
 preserveAspectRatio="xMidYMid meet">
<metadata>
Created by potrace 1.11, written by Peter Selinger 2001-2013
</metadata>
<g transform="translate(0.000000,1854.000000) scale(0.100000,-0.100000)"
fill="#000000" stroke="none">
<path d="M6909 16386 c-2 -2 -33 -6 -69 -10 -67 -7 -206 -24 -250 -31 -24 -4
-58 -9 -140 -21 -19 -2 -82 -13 -140 -24 -140 -26 -154 -29 -235 -46 -38 -8
-81 -17 -95 -20 -24 -4 -290 -70 -320 -79 -8 -2 -53 -15 -100 -28 -215 -61
-488 -152 -567 -188 -24 -10 -46 -19 -51 -19 -27 0 -410 -166 -601 -260 -123
-61 -337 -175 -406 -217 -11 -7 -27 -15 -35 -19 -72 -35 -471 -296 -615 -403
-38 -29 -80 -60 -93 -69 -13 -9 -33 -25 -45 -36 -12 -10 -49 -39 -82 -64 -33
-25 -62 -49 -65 -52 -3 -3 -48 -41 -100 -85 -144 -122 -209 -182 -410 -384
-218 -219 -397 -424 -562 -646 -66 -88 -125 -167 -132 -175 -18 -24 -137 -206
-210 -324 -81 -129 -201 -346 -261 -471 -100 -211 -125 -264 -125 -270 0 -3
-8 -24 -19 -48 -147 -331 -307 -896 -347 -1223 -2 -23 -7 -52 -9 -64 -2 -13
-7 -55 -10 -94 -3 -39 -8 -81 -11 -93 -22 -106 -22 -677 0 -813 3 -14 7 -56
11 -95 3 -38 8 -77 10 -85 2 -8 6 -37 10 -65 3 -27 8 -57 10 -65 2 -8 6 -31 9
-50 3 -19 10 -60 16 -90 7 -30 14 -68 17 -85 12 -74 97 -387 139 -517 70 -216
163 -457 245 -636 16 -35 29 -66 29 -68 0 -10 190 -382 249 -488 34 -60 61
-111 61 -113 0 -9 251 -409 340 -543 161 -241 413 -586 571 -782 72 -88 273
-333 279 -338 3 -3 46 -52 95 -110 49 -58 93 -107 96 -110 3 -3 29 -32 59 -65
256 -289 561 -608 936 -977 l119 -116 980 0 980 0 -60 25 c-200 82 -412 197
-620 336 -106 71 -365 260 -398 290 -6 7 -52 46 -102 87 -214 178 -589 540
-790 764 -44 49 -85 94 -90 100 -99 105 -413 492 -537 661 -4 6 -18 24 -31 40
-151 192 -566 819 -682 1030 -15 28 -30 55 -35 60 -4 6 -22 37 -40 70 -18 33
-55 101 -82 150 -191 348 -400 808 -533 1176 -76 207 -170 520 -215 709 -21
89 -24 101 -40 190 -6 30 -12 64 -14 75 -6 33 -19 119 -21 140 -1 11 -5 56 -9
100 -4 44 -9 96 -11 115 -5 44 -5 426 -1 500 13 203 49 479 83 635 8 39 16 80
19 91 2 12 19 82 38 155 142 550 363 1046 689 1546 76 117 279 393 332 453 13
14 58 66 101 115 157 180 417 439 558 555 10 8 23 20 30 26 103 96 465 360
656 479 69 43 141 88 160 101 104 66 464 252 660 339 306 137 689 274 1034
370 110 30 209 57 220 60 12 2 91 20 176 39 85 19 169 37 185 40 17 3 55 10
85 17 30 6 71 13 90 16 35 5 75 22 54 23 -6 0 -13 -2 -15 -4z"/>
<path d="M6948 16383 c7 -3 16 -2 19 1 4 3 -2 6 -13 5 -11 0 -14 -3 -6 -6z"/>
<path d="M7830 16386 c3 -3 21 -8 40 -11 248 -43 697 -147 885 -206 33 -11 69
-21 80 -23 11 -2 103 -32 205 -66 852 -286 1551 -676 2185 -1219 100 -86 417
-397 490 -481 108 -125 202 -239 272 -330 81 -106 256 -360 287 -415 9 -16 25
-43 35 -60 82 -131 235 -424 305 -585 146 -333 271 -731 331 -1055 10 -49 19
-99 21 -110 6 -32 36 -246 40 -290 16 -166 19 -249 19 -460 0 -132 -4 -275 -8
-318 -11 -117 -35 -287 -46 -337 -5 -25 -12 -60 -16 -77 -10 -60 -63 -277 -93
-383 -222 -778 -623 -1616 -1168 -2440 -121 -182 -150 -225 -269 -391 -60 -84
-276 -368 -324 -425 -14 -17 -33 -40 -41 -50 -25 -33 -104 -129 -110 -134 -3
-3 -30 -34 -60 -70 -30 -36 -57 -67 -60 -70 -3 -3 -34 -39 -70 -79 -319 -366
-762 -783 -1115 -1049 -115 -86 -369 -262 -379 -262 -2 0 -41 -23 -87 -51
-101 -61 -286 -154 -386 -193 -40 -16 -73 -30 -73 -32 0 -1 440 -2 979 -2
l978 0 324 327 c264 266 417 424 574 595 49 53 315 354 386 436 744 867 1320
1773 1649 2595 110 276 233 671 275 880 15 80 55 303 60 339 3 23 10 73 15
111 5 39 12 106 16 150 4 44 8 96 10 115 5 58 5 482 0 520 -3 19 -8 67 -11
105 -21 270 -56 474 -130 775 -104 417 -326 969 -532 1318 -24 41 -43 75 -43
78 0 9 -85 144 -214 342 -100 152 -331 459 -421 558 -5 6 -35 40 -65 75 -95
110 -150 169 -305 324 -166 166 -257 251 -405 375 -29 25 -58 50 -64 55 -6 6
-40 33 -76 60 -36 28 -67 53 -70 56 -3 3 -45 35 -95 72 -49 37 -99 74 -110 83
-11 9 -99 68 -195 133 -440 294 -873 520 -1370 715 -285 111 -672 235 -900
287 -19 4 -93 21 -165 38 -71 16 -141 32 -155 34 -14 3 -63 12 -110 21 -110
22 -233 43 -290 50 -25 4 -56 8 -70 10 -14 3 -47 7 -75 11 -48 6 -65 8 -165
20 -25 3 -63 8 -85 11 -22 3 -38 3 -35 0z"/>
<path d="M10850 16386 c0 -2 11 -6 25 -8 13 -3 22 -1 19 3 -5 9 -44 13 -44 5z"/>
<path d="M10915 16375 c6 -2 80 -18 165 -35 85 -17 162 -33 170 -35 8 -2 56
-13 105 -24 239 -54 589 -155 815 -235 138 -49 304 -111 335 -126 11 -5 76
-33 145 -62 539 -227 1109 -576 1540 -942 161 -137 170 -145 355 -331 301
-301 567 -635 765 -960 159 -260 304 -549 408 -810 95 -240 212 -629 246 -819
3 -16 10 -52 15 -80 23 -116 49 -284 56 -363 2 -32 8 -98 12 -148 15 -173 8
-653 -12 -765 -2 -14 -9 -61 -14 -105 -28 -204 -131 -606 -231 -900 -193 -565
-445 -1094 -835 -1754 -192 -324 -625 -940 -854 -1214 -10 -12 -54 -65 -97
-117 -577 -699 -1278 -1324 -1838 -1637 -116 -65 -368 -183 -390 -183 -8 0
-17 -4 -21 -9 -3 -6 377 -10 972 -10 l978 0 310 312 c171 172 362 368 425 436
63 68 129 138 145 155 17 17 86 95 154 171 68 77 143 161 165 186 23 25 59 67
81 94 48 58 159 190 189 225 39 46 241 303 317 405 699 930 1138 1775 1375
2650 14 55 28 109 30 120 1 11 12 61 23 110 20 89 56 292 65 370 11 91 26 235
31 310 11 151 6 506 -9 650 -12 112 -19 172 -21 186 -2 9 -6 38 -10 65 -3 27
-7 56 -9 64 -1 8 -6 38 -11 65 -4 28 -16 91 -27 140 -11 50 -21 101 -24 115
-3 14 -16 68 -30 120 -14 52 -27 102 -29 111 -10 50 -91 295 -139 426 -403
1086 -1186 2094 -2202 2836 -580 423 -1237 761 -1924 990 -91 30 -199 65 -240
77 -41 12 -95 28 -120 35 -43 13 -158 44 -190 50 -8 2 -51 12 -95 24 -44 11
-91 22 -105 25 -14 3 -34 7 -45 9 -45 11 -172 36 -205 42 -19 3 -42 8 -50 10
-8 2 -33 6 -55 10 -22 3 -65 10 -95 15 -30 5 -73 12 -94 15 -21 3 -48 7 -60
10 -12 2 -46 7 -77 10 -31 3 -66 8 -78 10 -34 6 -167 15 -156 10z"/>
<path d="M17820 5349 c-94 -17 -107 -21 -168 -49 -192 -89 -313 -250 -328
-435 -13 -151 36 -278 150 -390 119 -117 246 -171 426 -181 360 -21 664 251
636 566 -8 91 -12 107 -47 180 -47 95 -152 196 -260 249 -46 22 -95 43 -109
45 -14 3 -36 8 -50 11 -42 10 -203 13 -250 4z m258 -128 c139 -38 269 -159
308 -288 78 -255 -134 -511 -431 -522 -153 -5 -274 39 -375 139 -100 97 -138
213 -113 344 46 248 333 403 611 327z"/>
<path d="M17705 5103 c-8 -2 -12 -354 -6 -510 1 -21 6 -23 65 -23 39 0 68 5
72 12 4 6 8 50 8 97 1 83 2 86 24 87 25 1 57 -27 150 -133 l53 -61 96 0 96 -1
-40 42 c-23 23 -72 74 -109 113 l-69 71 42 26 c131 80 103 240 -47 272 -35 8
-316 15 -335 8z m287 -123 c39 -49 2 -108 -72 -115 -73 -7 -76 -4 -77 76 l-1
72 66 -6 c52 -4 70 -10 84 -27z"/>
<path d="M2423 4447 c-13 -10 -23 -22 -23 -26 0 -4 -43 -79 -96 -167 -99 -163
-134 -222 -134 -228 0 -2 68 -3 151 -3 l151 0 188 215 c104 119 187 218 185
221 -3 2 -93 5 -202 5 -176 1 -199 -1 -220 -17z"/>
<path d="M17479 3876 c-2 -2 -36 -6 -75 -9 -348 -30 -598 -192 -725 -472 -97
-216 -99 -565 -3 -771 13 -28 24 -54 24 -57 0 -14 81 -123 128 -171 99 -103
192 -161 332 -206 49 -16 75 -22 155 -38 11 -2 97 -5 190 -8 188 -4 296 11
430 61 275 102 459 335 502 635 14 95 8 308 -11 390 -88 392 -401 630 -837
639 -51 1 -96 4 -99 6 -4 3 -9 3 -11 1z m140 -331 c159 -25 289 -180 321 -383
14 -85 14 -246 0 -323 -43 -235 -198 -381 -405 -382 -81 -1 -127 8 -191 39
-154 73 -243 258 -242 504 0 170 33 297 101 393 93 131 229 181 416 152z"/>
<path d="M575 3849 c-331 -59 -542 -235 -562 -470 -17 -200 74 -357 258 -447
77 -37 226 -86 296 -98 41 -6 105 -19 220 -45 160 -35 234 -86 236 -161 2 -75
-42 -124 -140 -155 -55 -18 -285 -24 -368 -9 -123 21 -324 103 -429 175 -24
17 -53 29 -65 28 -21 -1 -21 -3 -19 -201 l3 -199 102 -33 c89 -30 160 -48 268
-69 107 -20 377 -26 509 -12 331 36 573 208 620 441 37 177 -15 333 -144 430
-103 78 -228 124 -480 176 -85 18 -187 41 -227 52 -116 33 -165 89 -148 168
27 123 301 180 545 114 106 -29 238 -87 312 -137 20 -14 46 -25 58 -24 19 1
20 7 20 194 l0 192 -82 25 c-211 61 -318 78 -533 80 -107 2 -179 -3 -250 -15z"/>
<path d="M9888 3865 c-2 -2 -25 -5 -53 -9 -269 -31 -517 -190 -636 -405 -74
-135 -104 -261 -104 -446 0 -179 23 -291 85 -420 45 -93 64 -120 142 -196 128
-127 279 -198 493 -233 91 -15 386 -16 450 -1 28 6 89 20 125 29 8 2 29 7 45
11 17 4 76 26 133 48 l102 40 0 198 c0 232 1 231 -98 156 -154 -118 -306 -178
-456 -181 -253 -6 -438 128 -510 368 -19 64 -19 278 0 351 65 250 260 390 522
378 73 -3 121 -14 212 -50 62 -24 212 -114 255 -153 11 -10 32 -18 48 -18 l27
1 -2 200 -3 201 -75 29 c-41 16 -84 33 -95 38 -39 16 -152 41 -246 55 -79 11
-351 18 -361 9z"/>
<path d="M2191 3821 c-5 -9 -61 -151 -125 -316 -63 -165 -145 -376 -181 -470
-37 -93 -80 -206 -96 -250 -16 -44 -33 -89 -38 -100 -5 -11 -21 -49 -34 -85
-104 -271 -127 -331 -145 -377 l-21 -51 242 1 242 2 57 160 c31 88 58 164 60
168 3 8 586 12 595 4 3 -3 26 -68 53 -144 26 -76 53 -150 58 -165 l11 -26 246
0 c223 0 246 2 240 17 -4 9 -24 63 -46 121 -21 58 -43 114 -49 125 -5 11 -16
38 -23 60 -8 22 -80 211 -161 420 -81 209 -193 497 -248 640 -55 143 -102 265
-105 271 -3 8 -82 11 -264 11 -229 0 -261 -2 -268 -16z m326 -651 c30 -85 68
-191 83 -235 47 -133 64 -120 -152 -120 -104 0 -188 2 -188 4 0 2 32 92 70
200 39 108 77 214 85 236 31 89 37 100 43 85 3 -8 30 -85 59 -170z"/>
<path d="M5086 3832 c-3 -3 -6 -378 -6 -833 l0 -828 225 1 225 1 0 546 1 546
120 -245 c66 -135 143 -293 172 -351 l52 -106 163 0 164 0 122 251 c67 138
142 293 166 344 24 50 46 92 49 92 4 0 6 -237 5 -528 0 -290 2 -532 4 -539 5
-16 472 -16 473 1 1 18 1 1609 0 1632 -1 22 -1 22 -277 20 l-276 -1 -130 -255
c-71 -140 -165 -324 -208 -408 l-77 -152 -30 57 c-17 32 -88 171 -159 308 -70
138 -151 295 -180 350 l-51 100 -271 1 c-149 1 -273 -1 -276 -4z"/>
<path d="M7845 3821 c-43 -114 -289 -751 -296 -766 -9 -21 -339 -877 -339
-881 0 -1 108 -2 239 -2 212 0 240 2 246 17 4 9 29 81 57 161 28 80 54 149 58
153 5 6 360 11 560 8 l35 -1 59 -169 59 -170 248 1 248 1 -20 51 c-37 92 -66
168 -163 421 -53 138 -130 336 -171 440 -40 105 -122 316 -182 470 l-108 280
-262 1 c-233 1 -263 0 -268 -15z m305 -584 c16 -45 52 -147 80 -227 28 -80 55
-156 59 -170 l8 -25 -183 0 c-100 0 -185 3 -188 6 -4 3 35 124 85 268 69 194
95 258 102 246 5 -9 21 -53 37 -98z"/>
<path d="M10949 3827 c0 -15 0 -1616 0 -1639 1 -15 24 -16 241 -16 l240 1 -1
316 c0 174 0 340 0 369 l1 52 320 0 c249 0 320 -3 321 -12 1 -7 3 -168 4 -358
1 -190 3 -350 4 -356 1 -13 470 -18 472 -6 1 4 2 377 3 830 1 724 -1 823 -14
826 -20 5 -419 6 -445 1 -20 -4 -21 -10 -20 -305 l0 -300 -35 -1 c-159 -3
-603 0 -607 4 -2 3 -5 140 -5 305 l0 299 -239 1 c-174 0 -239 -3 -240 -11z"/>
<path d="M13382 3826 c-5 -6 -55 -132 -112 -281 -56 -148 -109 -283 -116 -300
-7 -16 -101 -259 -209 -540 -108 -280 -199 -515 -202 -522 -3 -8 56 -11 237
-10 l242 2 18 50 c10 28 37 103 61 168 39 108 44 117 68 118 104 3 563 1 566
-3 3 -2 26 -65 51 -139 25 -74 52 -148 59 -166 l13 -31 239 0 c131 0 241 2
244 4 6 3 -48 146 -200 539 -11 28 -45 115 -76 195 -31 80 -78 201 -104 270
-27 69 -71 184 -99 255 -27 72 -74 191 -103 266 l-52 137 -259 0 c-178 -1
-260 -4 -266 -12z m306 -606 c22 -63 59 -169 81 -235 23 -66 46 -128 52 -138
6 -11 7 -22 4 -25 -8 -8 -375 -10 -375 -2 0 3 18 57 41 120 22 63 64 181 92
262 29 81 55 144 58 140 3 -4 25 -59 47 -122z"/>
<path d="M14738 3822 c-2 -9 -4 -384 -3 -832 l0 -815 380 0 c415 0 525 6 654
34 253 56 447 195 566 406 153 272 129 634 -58 880 -127 168 -357 295 -577
320 -30 4 -75 9 -100 12 -25 3 -228 6 -451 8 -376 4 -407 3 -411 -13z m835
-317 c269 -69 402 -290 362 -602 -13 -103 -64 -209 -133 -277 -43 -42 -163
-112 -207 -120 -69 -12 -114 -16 -230 -17 -71 -1 -135 -1 -140 0 -12 1 -14
1009 -3 1027 10 16 278 7 351 -11z"/>
</g>
</svg>
