<?xml version="1.0" standalone="no"?>
<!DOCTYPE svg PUBLIC "-//W3C//DTD SVG 20010904//EN"
 "http://www.w3.org/TR/2001/REC-SVG-20010904/DTD/svg10.dtd">
<svg version="1.0" xmlns="http://www.w3.org/2000/svg"
 width="339.000000pt" height="339.000000pt" viewBox="0 0 339.000000 339.000000"
 preserveAspectRatio="xMidYMid meet">
<metadata>
Created by potrace 1.11, written by Peter Selinger 2001-2013
</metadata>
<g transform="translate(0.000000,339.000000) scale(0.100000,-0.100000)"
fill="#000000" stroke="none">
<path d="M690 2296 c-86 -19 -161 -49 -226 -92 -66 -44 -100 -83 -132 -153
-21 -46 -24 -63 -20 -135 11 -208 130 -299 475 -365 194 -37 253 -70 253 -141
0 -139 -317 -164 -568 -45 -41 19 -86 44 -102 55 -15 11 -38 20 -49 20 -20 0
-21 -5 -21 -141 l0 -140 34 -14 c19 -8 79 -27 133 -42 92 -25 112 -27 308 -27
232 -1 285 7 401 64 88 43 148 100 186 177 28 58 32 75 32 148 0 69 -4 90 -27
138 -59 120 -166 174 -465 236 -159 33 -210 54 -230 95 -42 86 60 156 225 156
115 0 204 -23 320 -81 54 -27 104 -49 111 -49 9 0 12 34 12 138 l0 138 -52 17
c-118 37 -196 48 -363 52 -121 3 -189 0 -235 -9z"/>
<path d="M1700 1690 l0 -600 160 0 160 0 0 392 c0 215 3 389 6 386 3 -3 58
-115 124 -249 l118 -244 122 0 122 0 117 242 c64 133 120 245 124 249 4 4 7
-169 7 -384 l0 -392 170 0 170 0 0 600 0 600 -199 0 -199 0 -149 -290 c-81
-159 -150 -290 -153 -290 -3 0 -73 131 -154 290 l-149 290 -198 0 -199 0 0
-600z"/>
</g>
</svg>
