<?xml version="1.0" encoding="utf-8"?>
<!-- Generator: Adobe Illustrator 16.0.0, SVG Export Plug-In . SVG Version: 6.00 Build 0)  -->
<!DOCTYPE svg PUBLIC "-//W3C//DTD SVG 1.1//EN" "http://www.w3.org/Graphics/SVG/1.1/DTD/svg11.dtd">
<svg version="1.1" id="Camada_1" xmlns="http://www.w3.org/2000/svg" xmlns:xlink="http://www.w3.org/1999/xlink" x="0px" y="0px"
	 width="730px" height="46px" viewBox="29.797 31.987 730 46" enable-background="new 29.797 31.987 730 46" xml:space="preserve">
<g>
	<rect x="233.976" y="55.878" fill="#F1F1F1" width="23.316" height="7.271"/>
	<path fill="#F1F1F1" d="M245.423,48.204c5.418-3.914,8.524-13.25,0.709-13.25c6.335,0,10.878,3.791,10.878,9.055v0.074
		c0,4.231-2.256,6.523-5.577,8.664l-0.281,0.178h-12.787L245.423,48.204z"/>
	<path fill="#F1F1F1" d="M263.755,38.965c-2.837,2.622-4.562,6.311-4.562,10.419v0.079c0,5.236,2.77,9.749,7.056,12.263
		c7.515,2.659,15.147-1.077,15.147-8.104c0-1.759-0.465-3.38-1.297-4.708c0.006,0.154,0.019,0.313,0.019,0.471v0.079
		c0,2.229-1.039,4.301-2.832,5.39c-6.555,4.979-15.036,0.359-15.036-9.563C262.251,43.093,262.765,40.902,263.755,38.965"/>
	<path fill="#F1F1F1" d="M289.462,49.384c0,7.908-6.383,14.241-14.736,14.456c5.65-0.177,9.178-4.944,9.178-10.219v-0.134
		c0-5.442-3.73-10.346-9.619-10.363c-3.534,0.019-5.742,2.94-5.742,6.182v0.078c0,3.267,2.226,6.222,5.742,6.264
		c-5.84-0.063-9.533-4.947-9.533-10.358v-0.136c0-5.381,3.676-10.235,9.509-10.235h0.109c8.555,0,15.091,6.342,15.091,14.389
		L289.462,49.384L289.462,49.384z"/>
	<path fill="#F1F1F1" d="M191.722,39.692c0.605-3.289-2.771-4.947-6.171-4.318c-3.418,0.809-5.814,2.741-8.181,5.67l6.084,5.181
		c2.293-2.454,3.755-3.449,5.333-3.449c0.593,0,1.082,0.122,1.473,0.337C191.006,41.954,191.526,40.739,191.722,39.692"/>
	<rect x="177.431" y="55.878" fill="#F1F1F1" width="23.31" height="7.271"/>
	<path fill="#F1F1F1" d="M181.815,52.925h12.792l0.275-0.178c3.32-2.134,5.583-4.433,5.583-8.664v-0.08
		c0-5.258-4.549-9.049-10.878-9.049c7.808,0,4.708,9.336-0.709,13.25L181.815,52.925z"/>
	<path fill="#F1F1F1" d="M205.7,45.288c0,9.924,8.481,14.542,15.036,9.563c1.793-1.089,2.832-3.16,2.832-5.39v-0.079
		c0-0.158-0.006-0.315-0.019-0.471c0.832,1.328,1.303,2.949,1.303,4.708c0,7.026-7.631,10.764-15.147,8.104
		c-4.298-2.514-7.062-7.025-7.062-12.263v-0.079c0-4.108,1.729-7.797,4.555-10.419C206.22,40.902,205.7,43.093,205.7,45.288"/>
	<path fill="#F1F1F1" d="M232.918,49.305c0-8.041-6.537-14.389-15.098-14.389h-0.109c-5.84,0-9.503,4.854-9.503,10.235v0.136
		c0,5.411,3.687,10.297,9.533,10.358c-3.516-0.042-5.748-2.997-5.748-6.264v-0.078c0-3.24,2.208-6.163,5.748-6.182
		c5.889,0.019,9.613,4.921,9.613,10.363v0.134c0,5.273-3.528,10.048-9.172,10.219c8.34-0.215,14.737-6.548,14.737-14.456
		L232.918,49.305L232.918,49.305z"/>
	<path fill="#F1F1F1" d="M246.811,43.111c-0.391-0.215-0.887-0.337-1.468-0.337c-1.583,0-3.045,0.995-5.337,3.449l-6.091-5.187
		c2.373-2.923,4.764-4.855,8.188-5.664c3.394-0.629,6.775,1.029,6.17,4.318C248.077,40.739,247.557,41.954,246.811,43.111"/>
</g>
<g>
	<path fill="#F1F1F1" d="M31.063,70.771h1.658c0.937,0,1.455,0.555,1.455,1.309c0,0.752-0.518,1.299-1.455,1.299h-0.848v1.424h0.447
		v0.31h-1.257v-0.31h0.39v-3.725h-0.39V70.771z M32.683,73.047c0.707,0,1.058-0.383,1.058-0.967c0-0.594-0.356-0.975-1.058-0.975
		h-0.81v1.94L32.683,73.047L32.683,73.047z"/>
	<path fill="#F1F1F1" d="M36.201,73.33h-0.95v1.473h0.447v0.31h-1.256v-0.31h0.387v-3.725h-0.387v-0.307h1.682
		c0.938,0,1.449,0.563,1.449,1.297c0,0.586-0.327,1.039-0.952,1.19l0.964,1.543h0.401v0.31h-0.682L36.201,73.33z M36.068,72.996
		c0.739,0,1.07-0.361,1.07-0.938c0-0.577-0.337-0.953-1.07-0.953h-0.817v1.891H36.068z"/>
	<path fill="#F1F1F1" d="M38.185,72.939c0-1.281,0.998-2.217,2.228-2.217c1.237,0,2.231,0.936,2.231,2.217s-0.995,2.219-2.231,2.219
		C39.182,75.158,38.185,74.221,38.185,72.939z M42.202,72.939c0-1.058-0.758-1.855-1.79-1.855c-1.034,0-1.792,0.799-1.792,1.855
		c0,1.059,0.758,1.854,1.792,1.854C41.444,74.795,42.202,73.998,42.202,72.939z"/>
	<path fill="#F1F1F1" d="M46.751,74.629c-0.312,0.314-0.783,0.529-1.415,0.529c-1.2,0-2.193-0.854-2.193-2.219
		c0-1.281,0.988-2.217,2.18-2.217c0.599,0,1.059,0.192,1.314,0.547v-0.498h0.345v1.117h-0.326c-0.158-0.531-0.617-0.798-1.307-0.798
		c-1.035,0-1.771,0.791-1.771,1.849c0,1.084,0.769,1.854,1.795,1.854c0.677,0,1.098-0.262,1.36-0.521v-0.912h-1.307v-0.334h1.702
		v2.084h-0.377V74.629z"/>
	<path fill="#F1F1F1" d="M49.498,73.33h-0.951v1.473h0.447v0.31h-1.255v-0.31h0.388v-3.725h-0.388v-0.307h1.682
		c0.938,0,1.448,0.563,1.448,1.297c0,0.586-0.326,1.039-0.948,1.19l0.962,1.543h0.402v0.31h-0.683L49.498,73.33z M49.364,72.996
		c0.74,0,1.071-0.361,1.071-0.938c0-0.577-0.338-0.953-1.071-0.953h-0.817v1.891H49.364z"/>
	<path fill="#F1F1F1" d="M55.692,75.111h-1.187v-0.31h0.415l-0.314-0.86h-1.944l-0.319,0.86h0.422v0.31H51.61v-0.31h0.331
		l1.36-3.725h-0.314V70.77h1.327v0.307h-0.318l1.358,3.725h0.338V75.111z M52.779,73.592h1.713l-0.854-2.418L52.779,73.592"/>
	<path fill="#F1F1F1" d="M60.888,75.111h-1.236v-0.31h0.438v-3.379l-1.535,2.371h-0.171l-1.537-2.397v3.405h0.445v0.31h-1.209v-0.31
		h0.389v-3.725h-0.403V70.77h0.828l1.582,2.469l1.587-2.469h0.836v0.307h-0.403v3.725h0.389V75.111z"/>
	<path fill="#F1F1F1" d="M65.359,75.111h-1.185v-0.31h0.415l-0.312-0.86h-1.945l-0.32,0.86h0.421v0.31H61.28v-0.31h0.332
		l1.356-3.725h-0.312V70.77h1.326v0.307h-0.319l1.357,3.725h0.338L65.359,75.111L65.359,75.111z M62.447,73.592h1.717l-0.854-2.418
		L62.447,73.592z"/>
	<path fill="#F1F1F1" d="M66.816,72.939c0-1.281,0.997-2.217,2.228-2.217c1.236,0,2.23,0.936,2.23,2.217s-0.995,2.219-2.23,2.219
		C67.813,75.158,66.816,74.221,66.816,72.939z M70.834,72.939c0-1.058-0.758-1.855-1.791-1.855c-1.034,0-1.793,0.799-1.793,1.855
		c0,1.059,0.759,1.854,1.793,1.854C70.076,74.795,70.834,73.998,70.834,72.939z"/>
	<path fill="#F1F1F1" d="M71.692,70.771h1.658c0.935,0,1.451,0.555,1.451,1.309c0,0.752-0.517,1.299-1.451,1.299H72.5v1.424h0.447
		v0.31h-1.255v-0.31h0.387v-3.725h-0.387V70.771z M73.31,73.047c0.707,0,1.059-0.383,1.059-0.967c0-0.594-0.358-0.975-1.059-0.975
		H72.5v1.94L73.31,73.047L73.31,73.047z"/>
	<path fill="#F1F1F1" d="M77.74,71.117h-1.862v1.643h1.741v0.334h-1.741v1.673h1.951v-0.603h0.338v0.947h-3.1v-0.31h0.39v-3.725
		h-0.39V70.77h3.01v0.942H77.74V71.117z"/>
	<path fill="#F1F1F1" d="M80.43,73.33h-0.951v1.473h0.447v0.31H78.67v-0.31h0.389v-3.725H78.67v-0.307h1.684
		c0.937,0,1.447,0.563,1.447,1.297c0,0.586-0.326,1.039-0.95,1.19l0.962,1.543h0.403v0.31h-0.683L80.43,73.33z M80.296,72.996
		c0.74,0,1.07-0.361,1.07-0.938c0-0.577-0.336-0.953-1.07-0.953h-0.817v1.891H80.296z"/>
	<path fill="#F1F1F1" d="M86.624,75.111h-1.185v-0.31h0.412l-0.312-0.86h-1.944l-0.319,0.86h0.42v0.31h-1.154v-0.31h0.332
		l1.357-3.725h-0.31V70.77h1.325v0.307h-0.319l1.358,3.725h0.338L86.624,75.111L86.624,75.111z M83.708,73.592h1.716l-0.854-2.418
		L83.708,73.592z"/>
	<path fill="#F1F1F1" d="M88.855,70.713c0.631,0,1.09,0.222,1.353,0.595v-0.535h0.344v1.209H90.24
		c-0.153-0.607-0.708-0.896-1.359-0.896c-1.034,0-1.764,0.799-1.764,1.855c0,1.078,0.758,1.854,1.778,1.854
		c0.629,0,1.141-0.272,1.48-0.731l0.318,0.229c-0.422,0.562-1.027,0.867-1.805,0.867c-1.244,0-2.211-0.928-2.211-2.219
		C86.683,71.648,87.644,70.713,88.855,70.713z"/>
	<path fill="#F1F1F1" d="M91.093,70.771h1.192v0.307h-0.388v3.725h0.388v0.31h-1.192v-0.31h0.389v-3.725h-0.389V70.771z"/>
	<path fill="#F1F1F1" d="M92.694,72.939c0-1.281,0.994-2.217,2.225-2.217c1.238,0,2.23,0.936,2.23,2.217s-0.993,2.219-2.23,2.219
		C93.688,75.158,92.694,74.221,92.694,72.939z M96.71,72.939c0-1.058-0.759-1.855-1.792-1.855s-1.793,0.799-1.793,1.855
		c0,1.059,0.76,1.854,1.793,1.854C95.951,74.795,96.71,73.998,96.71,72.939z"/>
	<path fill="#F1F1F1" d="M101.693,71.078h-0.389v4.033h-0.273l-2.691-3.738v3.43h0.428v0.31h-1.199v-0.31h0.387v-3.725h-0.387
		v-0.307h0.81l2.543,3.537v-3.23h-0.435v-0.307h1.207L101.693,71.078L101.693,71.078z"/>
	<path fill="#F1F1F1" d="M105.953,75.111h-1.185v-0.31h0.413l-0.31-0.86h-1.947l-0.319,0.86h0.421v0.31h-1.154v-0.31h0.333
		l1.358-3.725h-0.313V70.77h1.325v0.307h-0.317l1.357,3.725h0.338V75.111z M103.041,73.592h1.714l-0.853-2.418L103.041,73.592z"/>
	<path fill="#F1F1F1" d="M106.337,70.771h1.198v0.307h-0.388v3.688h1.708v-0.603h0.343v0.947h-2.861v-0.31h0.389v-3.725h-0.389
		V70.771z"/>
	<path fill="#F1F1F1" d="M112.479,73.33h-0.95v1.473h0.447v0.31h-1.257v-0.31h0.39v-3.725h-0.39v-0.307h1.683
		c0.938,0,1.449,0.563,1.449,1.297c0,0.586-0.326,1.039-0.952,1.19l0.963,1.543h0.401v0.31h-0.682L112.479,73.33z M112.344,72.996
		c0.741,0,1.072-0.361,1.072-0.938c0-0.577-0.338-0.953-1.072-0.953h-0.815v1.891H112.344z"/>
	<path fill="#F1F1F1" d="M117.333,71.117h-1.862v1.643h1.739v0.334h-1.739v1.673h1.951v-0.603h0.338v0.947h-3.099v-0.31h0.389
		v-3.725h-0.389V70.77h3.008v0.942h-0.336V71.117z"/>
	<path fill="#F1F1F1" d="M121.837,74.629c-0.313,0.314-0.784,0.529-1.416,0.529c-1.198,0-2.192-0.854-2.192-2.219
		c0-1.281,0.986-2.217,2.178-2.217c0.601,0,1.059,0.192,1.314,0.547v-0.498h0.345v1.117h-0.327
		c-0.159-0.531-0.616-0.798-1.307-0.798c-1.032,0-1.772,0.791-1.772,1.849c0,1.084,0.772,1.854,1.801,1.854
		c0.674,0,1.094-0.262,1.355-0.521v-0.912h-1.307v-0.334h1.702v2.084h-0.375L121.837,74.629L121.837,74.629z"/>
	<path fill="#F1F1F1" d="M122.827,70.771h1.192v0.307h-0.388v3.725h0.388v0.31h-1.192v-0.31h0.389v-3.725h-0.389V70.771z"/>
	<path fill="#F1F1F1" d="M124.426,72.939c0-1.281,0.995-2.217,2.226-2.217c1.236,0,2.232,0.936,2.232,2.217
		s-0.996,2.219-2.232,2.219C125.421,75.158,124.426,74.221,124.426,72.939z M128.444,72.939c0-1.058-0.758-1.855-1.792-1.855
		c-1.032,0-1.792,0.799-1.792,1.855c0,1.059,0.759,1.854,1.792,1.854C127.686,74.795,128.444,73.998,128.444,72.939z"/>
	<path fill="#F1F1F1" d="M133.426,71.078h-0.39v4.033h-0.273l-2.691-3.738v3.43h0.427v0.31h-1.197v-0.31h0.388v-3.725h-0.388v-0.307
		h0.809l2.542,3.537v-3.23h-0.432v-0.307h1.206L133.426,71.078L133.426,71.078z"/>
	<path fill="#F1F1F1" d="M137.688,75.111h-1.186v-0.31h0.414l-0.314-0.86h-1.943l-0.319,0.86h0.419v0.31h-1.153v-0.31h0.332
		l1.357-3.725h-0.311V70.77h1.325v0.307h-0.318l1.357,3.725h0.339L137.688,75.111L137.688,75.111z M134.773,73.592h1.716
		l-0.854-2.418L134.773,73.592z"/>
	<path fill="#F1F1F1" d="M138.07,70.771h1.199v0.307h-0.39v3.688h1.708v-0.603h0.346v0.947h-2.864v-0.31h0.389v-3.725h-0.389
		L138.07,70.771L138.07,70.771z"/>
	<path fill="#F1F1F1" d="M142.454,70.771h1.47c1.436,0,2.292,0.887,2.292,2.168c0,1.28-0.849,2.172-2.292,2.172h-1.47v-0.31h0.387
		v-3.725h-0.387V70.771z M143.885,74.766c1.283,0,1.894-0.763,1.894-1.826c0-1.064-0.611-1.822-1.894-1.822h-0.622v3.648H143.885z"
		/>
	<path fill="#F1F1F1" d="M146.72,72.939c0-1.281,0.996-2.217,2.226-2.217c1.236,0,2.231,0.936,2.231,2.217s-0.995,2.219-2.231,2.219
		C147.716,75.158,146.72,74.221,146.72,72.939z M150.736,72.939c0-1.058-0.758-1.855-1.791-1.855c-1.034,0-1.792,0.799-1.792,1.855
		c0,1.059,0.758,1.854,1.792,1.854C149.979,74.795,150.736,73.998,150.736,72.939z"/>
	<path fill="#F1F1F1" d="M156.898,71.078h-0.388v4.033h-0.275l-2.691-3.738v3.43h0.429v0.31h-1.199v-0.31h0.389v-3.725h-0.389
		v-0.307h0.809l2.545,3.537v-3.23h-0.436v-0.307h1.206V71.078z"/>
	<path fill="#F1F1F1" d="M157.283,72.939c0-1.281,0.994-2.217,2.228-2.217c1.235,0,2.23,0.936,2.23,2.217s-0.995,2.219-2.23,2.219
		C158.277,75.158,157.283,74.221,157.283,72.939z M161.302,72.939c0-1.058-0.759-1.855-1.792-1.855
		c-1.034,0-1.794,0.799-1.794,1.855c0,1.059,0.76,1.854,1.794,1.854C160.543,74.795,161.302,73.998,161.302,72.939z"/>
	<path fill="#F1F1F1" d="M163.917,73.33h-0.949v1.473h0.445v0.31h-1.255v-0.31h0.388v-3.725h-0.388v-0.307h1.683
		c0.936,0,1.448,0.563,1.448,1.297c0,0.586-0.327,1.039-0.951,1.19l0.963,1.543h0.402v0.31h-0.682L163.917,73.33z M163.785,72.996
		c0.738,0,1.07-0.361,1.07-0.938c0-0.577-0.337-0.953-1.07-0.953h-0.816v1.891H163.785z"/>
	<path fill="#F1F1F1" d="M168.789,71.117h-1.083v3.686h0.418v0.31h-1.254v-0.31h0.419v-3.686h-1.083v0.598h-0.344v-0.942h3.263
		v0.942h-0.337L168.789,71.117L168.789,71.117z"/>
	<path fill="#F1F1F1" d="M172.23,71.117h-1.861v1.643h1.742v0.334h-1.742v1.673h1.949v-0.603h0.34v0.947h-3.099v-0.31h0.388v-3.725
		h-0.388V70.77h3.009v0.942h-0.339L172.23,71.117L172.23,71.117z"/>
</g>
<g>
	<g>
		<path fill="#F1F1F1" d="M387.211,72.744l9.771-8.295c0.975-0.811,1.797-1.545,2.472-2.205c0.678-0.664,1.223-1.289,1.642-1.883
			c0.42-0.594,0.723-1.176,0.911-1.74c0.191-0.565,0.285-1.174,0.285-1.822c0-1.401-0.438-2.487-1.317-3.256
			c-0.877-0.771-1.966-1.153-3.263-1.153c-1.296,0-2.44,0.35-3.426,1.053c-0.986,0.703-2.032,1.77-3.141,3.203l-3.528-2.756
			c0.675-0.947,1.364-1.796,2.069-2.546c0.701-0.75,1.464-1.377,2.289-1.879c0.823-0.506,1.73-0.896,2.718-1.168
			c0.983-0.272,2.113-0.409,3.383-0.409c1.378,0,2.642,0.2,3.792,0.608c1.147,0.404,2.134,0.979,2.958,1.723
			c0.824,0.744,1.467,1.638,1.927,2.677c0.458,1.041,0.688,2.196,0.688,3.467v0.08c0,1.108-0.149,2.115-0.446,3.021
			c-0.297,0.906-0.75,1.777-1.356,2.613c-0.61,0.842-1.38,1.684-2.313,2.533c-0.932,0.852-2.021,1.793-3.265,2.82l-5.836,4.864
			h13.499v4.375H387.21L387.211,72.744L387.211,72.744z"/>
		<path fill="#F1F1F1" d="M424.833,76.67c-2.189,0-4.19-0.383-6-1.153c-1.812-0.771-3.365-1.816-4.664-3.144
			c-1.296-1.322-2.31-2.869-3.04-4.641c-0.729-1.771-1.094-3.656-1.094-5.656v-0.08c0-2,0.365-3.887,1.094-5.656
			c0.73-1.77,1.758-3.323,3.081-4.662c1.325-1.338,2.892-2.396,4.705-3.182c1.81-0.783,3.809-1.176,5.999-1.176
			c2.191,0,4.187,0.385,6,1.156c1.813,0.77,3.365,1.815,4.662,3.141c1.299,1.325,2.311,2.871,3.043,4.641
			c0.729,1.771,1.094,3.656,1.094,5.658v0.08c0,2-0.365,3.885-1.094,5.654c-0.732,1.772-1.758,3.326-3.082,4.662
			c-1.324,1.34-2.895,2.399-4.703,3.182C429.023,76.279,427.023,76.67,424.833,76.67 M424.915,72.092c1.4,0,2.684-0.264,3.856-0.793
			c1.168-0.526,2.172-1.241,3.006-2.146c0.834-0.906,1.486-1.967,1.957-3.185c0.473-1.215,0.707-2.512,0.707-3.893v-0.08
			c0-1.379-0.234-2.682-0.707-3.912c-0.471-1.229-1.129-2.299-1.979-3.203c-0.848-0.905-1.863-1.629-3.045-2.168
			c-1.186-0.541-2.477-0.811-3.876-0.811c-1.4,0-2.684,0.262-3.855,0.787c-1.17,0.528-2.173,1.244-3.007,2.149
			c-0.834,0.904-1.487,1.968-1.958,3.185c-0.47,1.215-0.708,2.514-0.708,3.893v0.08c0,1.377,0.238,2.682,0.708,3.91
			c0.471,1.234,1.131,2.299,1.977,3.205c0.85,0.904,1.865,1.629,3.051,2.168C422.222,71.818,423.513,72.092,424.915,72.092"/>
		<path fill="#F1F1F1" d="M441.656,72.744l9.771-8.295c0.973-0.811,1.793-1.545,2.473-2.205c0.678-0.664,1.225-1.289,1.643-1.883
			s0.723-1.176,0.912-1.74c0.188-0.565,0.283-1.174,0.283-1.822c0-1.401-0.439-2.487-1.318-3.256
			c-0.879-0.771-1.965-1.153-3.262-1.153c-1.299,0-2.441,0.35-3.426,1.053c-0.986,0.703-2.035,1.77-3.143,3.203l-3.529-2.756
			c0.68-0.947,1.363-1.796,2.068-2.546c0.703-0.75,1.467-1.377,2.291-1.879c0.824-0.506,1.73-0.896,2.717-1.168
			c0.984-0.272,2.113-0.409,3.383-0.409c1.381,0,2.645,0.2,3.791,0.608c1.148,0.404,2.139,0.979,2.959,1.723
			c0.826,0.744,1.467,1.638,1.928,2.677c0.461,1.041,0.689,2.196,0.689,3.467v0.08c0,1.108-0.146,2.115-0.445,3.021
			c-0.301,0.906-0.754,1.777-1.359,2.613c-0.605,0.842-1.377,1.684-2.309,2.533c-0.938,0.852-2.021,1.793-3.266,2.82l-5.84,4.864
			h13.5v4.375h-20.514v-3.925H441.656z"/>
		<path fill="#F1F1F1" d="M479.279,76.67c-2.189,0-4.189-0.383-6-1.153c-1.813-0.771-3.365-1.816-4.662-3.144
			c-1.299-1.322-2.313-2.869-3.039-4.641c-0.73-1.771-1.098-3.656-1.098-5.656v-0.08c0-2,0.365-3.887,1.098-5.656
			c0.729-1.77,1.756-3.323,3.08-4.662c1.32-1.338,2.893-2.396,4.699-3.182c1.813-0.783,3.813-1.176,6.004-1.176
			c2.186,0,4.186,0.385,5.998,1.156c1.811,0.77,3.361,1.815,4.664,3.141c1.295,1.324,2.309,2.871,3.037,4.641
			c0.73,1.771,1.096,3.656,1.096,5.658v0.08c0,2-0.365,3.885-1.096,5.654c-0.729,1.772-1.756,3.326-3.078,4.662
			c-1.326,1.34-2.893,2.399-4.705,3.182C483.468,76.279,481.468,76.67,479.279,76.67 M479.361,72.092
			c1.395,0,2.682-0.264,3.852-0.793c1.174-0.526,2.174-1.241,3.01-2.146c0.834-0.906,1.484-1.967,1.957-3.185
			c0.471-1.215,0.707-2.512,0.707-3.893v-0.08c0-1.379-0.236-2.682-0.707-3.912c-0.473-1.229-1.129-2.299-1.977-3.203
			c-0.852-0.905-1.863-1.629-3.049-2.168c-1.186-0.541-2.479-0.811-3.875-0.811c-1.402,0-2.689,0.262-3.855,0.787
			c-1.172,0.528-2.176,1.244-3.012,2.149c-0.832,0.904-1.484,1.968-1.957,3.185c-0.471,1.215-0.705,2.514-0.705,3.893v0.08
			c0,1.377,0.234,2.682,0.705,3.91c0.473,1.234,1.131,2.299,1.977,3.205c0.852,0.904,1.865,1.629,3.051,2.168
			C476.669,71.818,477.957,72.092,479.361,72.092"/>
		<path fill="#F1F1F1" d="M390.281,38.609c-0.144,0-0.321,0-0.509-0.021v1.711c0.355,0.021,0.72,0.08,1.028,0.142v0.953h-3.589
			V40.44c0.307-0.062,0.673-0.119,1.027-0.142v-5.77c-0.354-0.023-0.72-0.082-1.027-0.144v-0.954h0.925
			c0.374,0,1.414-0.048,2.24-0.048c1.944,0,3.017,0.91,3.017,2.468C393.393,37.395,392.217,38.609,390.281,38.609 M390.304,34.639
			c-0.188,0-0.353,0-0.532,0.006v2.655c0.155,0.021,0.306,0.037,0.446,0.037c0.935-0.016,1.585-0.53,1.585-1.391
			C391.803,35.143,391.354,34.639,390.304,34.639 M397.699,41.521c-2.431,0-3.62-1.543-3.62-4.008c0-2.632,1.755-4.214,3.892-4.214
			c2.121,0,3.623,1.275,3.623,4C401.594,39.93,399.858,41.521,397.699,41.521 M397.829,34.686c-1.096,0-2.11,0.873-2.11,2.662
			c0,1.686,0.662,2.782,2.089,2.782c1.038,0,2.144-0.801,2.144-2.711C399.951,35.65,399.2,34.686,397.829,34.686 M406.849,41.393
			l-1.948-3.285h-0.21v2.19c0.226,0.021,0.482,0.06,0.721,0.129v0.966h-3.28V40.44c0.307-0.062,0.673-0.119,1.026-0.142v-5.77
			c-0.353-0.023-0.719-0.082-1.026-0.144v-0.954h0.92c0.308,0,1.413-0.048,2.392-0.048c1.759,0,2.892,0.611,2.892,2.24
			c0,1.111-0.757,1.926-1.876,2.162c0.145,0.187,0.281,0.387,0.403,0.576l1.227,1.922c0.222,0.035,0.504,0.082,0.778,0.131v0.978
			L406.849,41.393L406.849,41.393z M405.278,34.639c-0.21,0-0.433,0.006-0.588,0.028v2.306c0.107,0.01,0.308,0.021,0.542,0.021
			c0.933,0,1.487-0.469,1.487-1.215C406.719,35.014,406.258,34.639,405.278,34.639 M414.311,35.674
			c-0.055-0.362-0.117-0.682-0.138-0.979h-1.229v5.604c0.354,0.021,0.717,0.08,1.028,0.142v0.953h-3.587V40.44
			c0.309-0.062,0.673-0.119,1.027-0.142v-5.604h-1.215c-0.022,0.299-0.083,0.617-0.139,0.979h-1.135v-2.241h6.521v2.241H414.311z
			 M423.188,34.529v3.811c0,2.109-1.169,3.183-3.291,3.183c-2.515,0-3.076-1.367-3.076-2.885V34.53
			c-0.261-0.023-0.521-0.068-0.746-0.129v-0.969h3.124V34.4c-0.27,0.069-0.576,0.104-0.849,0.129v4.012
			c0,1.004,0.321,1.711,1.643,1.711c1.177,0,1.684-0.496,1.684-1.854v-3.869c-0.284-0.023-0.588-0.059-0.847-0.129v-0.969h3.088
			V34.4C423.693,34.461,423.447,34.506,423.188,34.529 M431.099,38.316v2.705c-0.791,0.313-1.779,0.489-2.746,0.489
			c-2.512,0-4.001-1.487-4.001-3.911c0-2.537,1.7-4.285,4.412-4.285c0.746,0,1.486,0.104,2.223,0.297v2.135H429.8
			c-0.066-0.342-0.104-0.646-0.141-0.957c-0.316-0.086-0.66-0.121-0.979-0.121c-1.545,0-2.664,0.982-2.664,2.785
			c0,1.689,0.92,2.678,2.537,2.678c0.375,0,0.705-0.045,1.008-0.143v-1.66c-0.348-0.025-0.717-0.082-1.008-0.154v-0.955h3.209v0.979
			C431.546,38.246,431.322,38.281,431.099,38.316 M436.636,41.393V40.44c0.25-0.047,0.568-0.107,0.836-0.127l-0.34-0.945h-2.9
			l-0.332,0.945c0.273,0.02,0.594,0.08,0.84,0.127v0.953h-2.994V40.44c0.189-0.062,0.422-0.107,0.623-0.119l2.428-6.889h1.877
			l2.479,6.889c0.199,0.012,0.438,0.059,0.625,0.119v0.953H436.636z M436.046,36.217c-0.148-0.438-0.266-0.813-0.363-1.25h-0.012
			c-0.098,0.396-0.213,0.863-0.377,1.306l-0.686,1.901h2.146L436.046,36.217z M440.134,41.393V40.44
			c0.309-0.062,0.676-0.119,1.029-0.142v-5.77c-0.355-0.023-0.721-0.082-1.029-0.144v-0.954h3.588v0.954
			c-0.307,0.062-0.672,0.119-1.027,0.144v5.602h1.523c0.023-0.284,0.082-0.625,0.143-0.977h1.129v2.238L440.134,41.393
			L440.134,41.393z"/>
		<path fill="#F1F1F1" d="M363.336,33.639c-7.022,2.776-11.388,10.102-11.388,21.383v17.123c0,0,1.437-11.008,11.388-14.179V33.639z
			"/>
		<path fill="#F1F1F1" d="M366.733,59.66c-4.079,0.813-10.055,4.084-11.814,8.688c8.757-10.634,26.633-0.355,27.426-20.355
			c0.25-6.332,0.276-14.129,0.276-14.129c-9.333,0.525-15.888,3.012-15.888,3.012V59.66z"/>
		<path fill="#F1F1F1" d="M365.595,65.434c0,0-9.503,0.77-10.311,6.196c-0.638,4.242,10.311,4.354,10.311,4.354V65.434z"/>
	</g>
</g>
<path fill="#F1F1F1" d="M568.937,32.395v45.184h69.004V32.395H568.937z M616.355,47.324l0.479-1.477l0.482,1.477h1.555l-1.256,0.914
	l0.477,1.486l-1.258-0.918l-1.258,0.918l0.479-1.486l-1.258-0.914H616.355z M586.05,54.6h1.557l0.482-1.486l0.482,1.486h1.555
	l-1.26,0.905l0.48,1.484l-1.258-0.916l-1.26,0.916l0.482-1.484L586.05,54.6z M591.298,65.238l-1.258-0.914l-1.26,0.914l0.479-1.478
	l-1.254-0.916h1.557l0.479-1.477l0.482,1.477h1.555l-1.258,0.916L591.298,65.238z M590.82,48.238l0.479,1.486l-1.258-0.918
	l-1.26,0.918l0.479-1.486l-1.254-0.914h1.557l0.479-1.477l0.482,1.477h1.555L590.82,48.238z M595.05,41.619l0.482-1.479l0.479,1.479
	h1.553l-1.254,0.912l0.482,1.477l-1.26-0.918l-1.258,0.918l0.479-1.477l-1.258-0.912H595.05z M597.214,70.797l-1.256-0.914
	l-1.258,0.914l0.479-1.483l-1.26-0.906h1.561l0.479-1.477l0.479,1.477h1.559l-1.258,0.906L597.214,70.797z M604.787,72.455
	l-1.26-0.906l-1.26,0.906l0.482-1.477l-1.264-0.916h1.561l0.479-1.476l0.479,1.476h1.553l-1.254,0.916L604.787,72.455z
	 M604.304,40.313l0.482,1.479l-1.26-0.918l-1.26,0.918l0.482-1.479l-1.264-0.924h1.561l0.479-1.478l0.479,1.478h1.553
	L604.304,40.313z M612.169,70.797l-1.256-0.914l-1.26,0.914l0.486-1.483l-1.262-0.906h1.553l0.48-1.477l0.48,1.477h1.557
	l-1.26,0.906L612.169,70.797z M612.121,42.531l0.48,1.477l-1.258-0.918l-1.262,0.918l0.479-1.477l-1.252-0.912h1.549l0.486-1.479
	l0.48,1.479h1.555L612.121,42.531z M618.091,65.238l-1.258-0.914l-1.258,0.914l0.479-1.478l-1.258-0.916h1.561l0.479-1.477
	l0.482,1.477h1.553l-1.256,0.916L618.091,65.238z M620.042,56.99l-1.258-0.916l-1.258,0.916l0.48-1.484l-1.26-0.905h1.553
	l0.482-1.486l0.479,1.486h1.557l-1.26,0.905L620.042,56.99z"/>
<g>
	<path fill="#F1F1F1" d="M652.257,34.426h0.963v4.199c0,0.732-0.084,1.313-0.248,1.742c-0.166,0.429-0.463,0.777-0.895,1.049
		c-0.434,0.271-0.998,0.402-1.699,0.402c-0.682,0-1.236-0.115-1.67-0.353c-0.434-0.233-0.744-0.571-0.928-1.018
		c-0.188-0.445-0.279-1.053-0.279-1.824v-4.199h0.963v4.195c0,0.631,0.061,1.096,0.178,1.396c0.115,0.299,0.318,0.528,0.604,0.69
		c0.287,0.162,0.637,0.242,1.049,0.242c0.709,0,1.213-0.158,1.512-0.48c0.303-0.319,0.453-0.936,0.453-1.85v-4.193H652.257z"/>
	<path fill="#F1F1F1" d="M654.812,41.697v-7.271h0.986l3.816,5.707v-5.707h0.924v7.271h-0.986l-3.816-5.713v5.713H654.812z"/>
	<path fill="#F1F1F1" d="M662.32,41.697v-7.271h0.961v7.271H662.32z"/>
	<path fill="#F1F1F1" d="M664.177,41.697l2.793-7.271h1.035l2.975,7.271h-1.096l-0.848-2.203h-3.039l-0.797,2.203H664.177z
		 M665.923,33.98c-0.004-0.345,0.092-0.619,0.283-0.824c0.188-0.203,0.43-0.307,0.723-0.307c0.205,0,0.484,0.088,0.838,0.268
		c0.195,0.1,0.352,0.148,0.469,0.148c0.104,0,0.188-0.027,0.24-0.086c0.059-0.06,0.098-0.175,0.119-0.347h0.646
		c-0.01,0.377-0.105,0.66-0.285,0.851c-0.18,0.188-0.408,0.28-0.688,0.28c-0.209,0-0.48-0.092-0.822-0.276
		c-0.223-0.119-0.385-0.179-0.486-0.179c-0.111,0-0.203,0.039-0.271,0.119c-0.072,0.078-0.107,0.195-0.104,0.353H665.923z
		 M666.275,38.709h2.465l-0.76-2.012c-0.23-0.613-0.402-1.115-0.516-1.506c-0.094,0.465-0.223,0.928-0.393,1.387L666.275,38.709z"/>
	<path fill="#F1F1F1" d="M671.457,38.154c0-1.205,0.324-2.15,0.971-2.834c0.648-0.68,1.484-1.023,2.508-1.023
		c0.674,0,1.275,0.162,1.816,0.482c0.537,0.32,0.949,0.766,1.232,1.342c0.279,0.572,0.422,1.223,0.422,1.949
		c0,0.738-0.146,1.397-0.445,1.979c-0.297,0.582-0.717,1.023-1.264,1.32c-0.545,0.301-1.135,0.449-1.768,0.449
		c-0.682,0-1.295-0.164-1.832-0.494c-0.541-0.332-0.947-0.783-1.227-1.354C671.595,39.396,671.457,38.793,671.457,38.154z
		 M672.447,38.17c0,0.877,0.236,1.566,0.709,2.068c0.469,0.506,1.059,0.76,1.77,0.76c0.725,0,1.32-0.258,1.787-0.766
		c0.467-0.51,0.701-1.232,0.701-2.166c0-0.594-0.1-1.107-0.299-1.549c-0.199-0.443-0.492-0.785-0.879-1.027
		c-0.385-0.242-0.816-0.363-1.295-0.363c-0.682,0-1.268,0.234-1.76,0.701C672.691,36.295,672.447,37.076,672.447,38.17z"/>
	<path fill="#F1F1F1" d="M682.49,41.697v-7.271h5.256v0.859h-4.295v2.228h4.02v0.852h-4.02v2.475h4.463v0.859L682.49,41.697
		L682.49,41.697z"/>
	<path fill="#F1F1F1" d="M694.011,34.426h0.963v4.199c0,0.732-0.084,1.313-0.25,1.742c-0.166,0.43-0.463,0.777-0.895,1.049
		c-0.434,0.271-0.998,0.402-1.699,0.402c-0.682,0-1.236-0.115-1.67-0.353c-0.432-0.233-0.742-0.571-0.928-1.018
		c-0.186-0.445-0.277-1.053-0.277-1.824v-4.199h0.963v4.195c0,0.631,0.061,1.096,0.176,1.396c0.117,0.299,0.32,0.528,0.604,0.69
		c0.287,0.162,0.637,0.242,1.049,0.242c0.707,0,1.213-0.158,1.512-0.48c0.303-0.319,0.453-0.936,0.453-1.85V34.426L694.011,34.426z"
		/>
	<path fill="#F1F1F1" d="M696.589,41.697v-7.271h3.223c0.648,0,1.141,0.066,1.479,0.197c0.336,0.129,0.607,0.361,0.809,0.691
		c0.203,0.33,0.303,0.694,0.303,1.096c0,0.516-0.166,0.951-0.5,1.305c-0.334,0.354-0.85,0.578-1.549,0.673
		c0.258,0.125,0.447,0.243,0.58,0.362c0.281,0.258,0.549,0.58,0.801,0.967l1.262,1.98h-1.209l-0.961-1.514
		c-0.281-0.437-0.514-0.771-0.693-1.002c-0.184-0.23-0.344-0.394-0.49-0.484c-0.143-0.094-0.289-0.158-0.438-0.193
		c-0.107-0.024-0.285-0.035-0.535-0.035h-1.115v3.229L696.589,41.697L696.589,41.697z M697.552,37.635h2.066
		c0.439,0,0.785-0.047,1.031-0.137c0.248-0.09,0.436-0.235,0.564-0.436c0.129-0.201,0.193-0.418,0.193-0.652
		c0-0.344-0.125-0.627-0.373-0.848c-0.252-0.222-0.646-0.332-1.184-0.332h-2.301v2.404H697.552z"/>
	<path fill="#F1F1F1" d="M703.617,38.154c0-1.205,0.324-2.15,0.971-2.834c0.648-0.68,1.484-1.023,2.508-1.023
		c0.672,0,1.275,0.162,1.816,0.482c0.537,0.32,0.949,0.766,1.23,1.342c0.281,0.572,0.424,1.223,0.424,1.949
		c0,0.738-0.146,1.397-0.445,1.979c-0.297,0.582-0.719,1.023-1.266,1.32c-0.545,0.301-1.133,0.449-1.766,0.449
		c-0.682,0-1.295-0.164-1.832-0.494c-0.541-0.332-0.949-0.783-1.227-1.354C703.755,39.396,703.617,38.793,703.617,38.154z
		 M704.607,38.17c0,0.877,0.236,1.566,0.709,2.068c0.469,0.506,1.059,0.76,1.77,0.76c0.723,0,1.32-0.258,1.787-0.766
		c0.467-0.51,0.701-1.232,0.701-2.166c0-0.594-0.1-1.107-0.299-1.549c-0.199-0.443-0.492-0.785-0.879-1.027
		c-0.385-0.242-0.816-0.363-1.295-0.363c-0.682,0-1.268,0.234-1.76,0.701C704.851,36.295,704.607,37.076,704.607,38.17z"/>
	<path fill="#F1F1F1" d="M711.806,41.697v-7.271h2.742c0.482,0,0.852,0.025,1.105,0.07c0.357,0.062,0.654,0.174,0.896,0.34
		c0.24,0.166,0.438,0.4,0.582,0.701c0.148,0.301,0.221,0.633,0.221,0.99c0,0.621-0.195,1.143-0.588,1.57
		c-0.395,0.43-1.104,0.643-2.135,0.643h-1.863v2.957H711.806z M712.767,37.885h1.881c0.621,0,1.063-0.116,1.324-0.35
		c0.26-0.229,0.391-0.559,0.391-0.977c0-0.304-0.074-0.564-0.229-0.781s-0.357-0.359-0.607-0.428
		c-0.162-0.045-0.461-0.064-0.896-0.064h-1.861v2.6H712.767z"/>
	<path fill="#F1F1F1" d="M718.599,41.697v-7.271h5.256v0.859h-4.293v2.228h4.021v0.852h-4.021v2.475h4.463v0.859L718.599,41.697
		L718.599,41.697z"/>
	<path fill="#F1F1F1" d="M725.515,41.697v-7.271h0.961v7.271H725.515z"/>
	<path fill="#F1F1F1" d="M727.375,41.697l2.791-7.271h1.035l2.977,7.271h-1.098l-0.848-2.203h-3.039l-0.797,2.203H727.375z
		 M729.472,38.709h2.463l-0.758-2.012c-0.23-0.613-0.402-1.115-0.516-1.506c-0.092,0.465-0.225,0.928-0.393,1.387L729.472,38.709z"
		/>
	<path fill="#F1F1F1" d="M647.398,66.518v-6.06h4.088v0.715h-3.285v1.877h2.844v0.716h-2.844v2.752H647.398z"/>
	<path fill="#F1F1F1" d="M655.308,66.518v-0.646c-0.342,0.494-0.807,0.744-1.393,0.744c-0.26,0-0.5-0.051-0.727-0.15
		c-0.225-0.1-0.393-0.223-0.5-0.373c-0.107-0.149-0.186-0.334-0.229-0.553c-0.031-0.145-0.047-0.377-0.047-0.692v-2.718h0.746v2.433
		c0,0.389,0.016,0.649,0.045,0.785c0.047,0.194,0.146,0.35,0.299,0.461c0.148,0.112,0.336,0.168,0.561,0.168s0.434-0.06,0.629-0.172
		c0.193-0.115,0.334-0.271,0.414-0.468c0.082-0.196,0.121-0.483,0.121-0.858v-2.349h0.744v4.388H655.308z"/>
	<path fill="#F1F1F1" d="M657.136,66.518v-4.388h0.67v0.623c0.322-0.481,0.789-0.723,1.396-0.723c0.266,0,0.508,0.047,0.729,0.141
		c0.223,0.097,0.391,0.222,0.498,0.375c0.111,0.154,0.189,0.338,0.232,0.55c0.025,0.139,0.039,0.379,0.039,0.723v2.699h-0.742V63.85
		c0-0.306-0.029-0.531-0.086-0.683c-0.061-0.149-0.16-0.27-0.309-0.358c-0.148-0.091-0.32-0.136-0.52-0.136
		c-0.316,0-0.59,0.103-0.82,0.304c-0.229,0.2-0.344,0.582-0.344,1.145v2.396H657.136z"/>
	<path fill="#F1F1F1" d="M664.691,66.518v-0.554c-0.277,0.435-0.689,0.652-1.229,0.652c-0.348,0-0.67-0.098-0.963-0.289
		c-0.295-0.193-0.523-0.461-0.684-0.809c-0.16-0.347-0.242-0.742-0.242-1.191c0-0.438,0.074-0.836,0.221-1.193
		c0.145-0.356,0.363-0.629,0.656-0.819c0.291-0.189,0.619-0.283,0.979-0.283c0.266,0,0.5,0.055,0.707,0.166s0.375,0.258,0.506,0.436
		V60.46h0.738v6.06L664.691,66.518L664.691,66.518z M662.339,64.328c0,0.562,0.119,0.982,0.357,1.26
		c0.234,0.279,0.516,0.416,0.838,0.416c0.326,0,0.602-0.131,0.828-0.397c0.227-0.265,0.342-0.67,0.342-1.217
		c0-0.601-0.117-1.039-0.35-1.322c-0.23-0.279-0.516-0.42-0.854-0.42c-0.332,0-0.607,0.135-0.83,0.403
		C662.453,63.32,662.339,63.746,662.339,64.328z"/>
	<path fill="#F1F1F1" d="M666.271,64.324c0-0.814,0.229-1.416,0.68-1.807c0.377-0.326,0.838-0.486,1.381-0.486
		c0.604,0,1.096,0.195,1.479,0.592c0.385,0.396,0.574,0.941,0.574,1.64c0,0.563-0.086,1.008-0.252,1.331
		c-0.17,0.324-0.418,0.576-0.742,0.755c-0.322,0.18-0.676,0.27-1.059,0.27c-0.615,0-1.111-0.199-1.49-0.592
		C666.462,65.633,666.271,65.063,666.271,64.324z M667.037,64.324c0,0.561,0.125,0.982,0.369,1.262
		c0.244,0.281,0.553,0.418,0.926,0.418c0.367,0,0.676-0.137,0.92-0.42c0.246-0.281,0.369-0.711,0.369-1.285
		c0-0.543-0.123-0.952-0.371-1.233c-0.246-0.279-0.553-0.418-0.918-0.418c-0.373,0-0.682,0.139-0.926,0.416
		C667.162,63.342,667.037,63.762,667.037,64.324z"/>
	<path fill="#F1F1F1" d="M673.718,66.518v-6.06h4.379v0.715h-3.574v1.855h3.35v0.711h-3.35v2.061h3.717v0.718H673.718z"/>
	<path fill="#F1F1F1" d="M682.126,66.518v-0.646c-0.342,0.494-0.807,0.744-1.393,0.744c-0.26,0-0.5-0.051-0.727-0.15
		c-0.223-0.1-0.391-0.223-0.498-0.373c-0.109-0.149-0.188-0.334-0.23-0.553c-0.029-0.145-0.045-0.377-0.045-0.692v-2.718h0.742
		v2.433c0,0.389,0.018,0.649,0.047,0.785c0.047,0.194,0.146,0.35,0.299,0.461c0.15,0.112,0.338,0.168,0.561,0.168
		s0.434-0.06,0.629-0.172c0.195-0.115,0.334-0.271,0.414-0.468c0.082-0.196,0.123-0.483,0.123-0.858v-2.349h0.742v4.388H682.126z"/>
	<path fill="#F1F1F1" d="M683.951,66.518v-4.388h0.668v0.662c0.172-0.311,0.328-0.516,0.473-0.612
		c0.146-0.101,0.307-0.148,0.48-0.148c0.248,0,0.504,0.08,0.762,0.238l-0.256,0.688c-0.18-0.104-0.363-0.16-0.543-0.16
		c-0.164,0-0.311,0.048-0.439,0.146c-0.131,0.098-0.223,0.234-0.277,0.408c-0.08,0.264-0.123,0.553-0.123,0.864v2.3L683.951,66.518
		L683.951,66.518z"/>
	<path fill="#F1F1F1" d="M686.498,64.324c0-0.814,0.227-1.416,0.68-1.807c0.377-0.326,0.836-0.486,1.379-0.486
		c0.605,0,1.096,0.195,1.48,0.592c0.383,0.396,0.574,0.941,0.574,1.64c0,0.563-0.086,1.008-0.254,1.331
		c-0.17,0.324-0.416,0.576-0.74,0.755c-0.324,0.18-0.676,0.27-1.061,0.27c-0.613,0-1.109-0.199-1.488-0.592
		C686.689,65.633,686.498,65.063,686.498,64.324z M687.263,64.324c0,0.561,0.121,0.982,0.367,1.262
		c0.244,0.281,0.553,0.418,0.926,0.418c0.367,0,0.678-0.137,0.922-0.42c0.244-0.281,0.367-0.711,0.367-1.285
		c0-0.543-0.123-0.952-0.369-1.233c-0.248-0.279-0.555-0.418-0.92-0.418c-0.373,0-0.682,0.139-0.926,0.416
		C687.384,63.342,687.263,63.762,687.263,64.324z"/>
	<path fill="#F1F1F1" d="M691.48,68.199v-6.068h0.68v0.568c0.158-0.223,0.34-0.391,0.539-0.502c0.203-0.111,0.445-0.166,0.73-0.166
		c0.375,0,0.705,0.094,0.992,0.289c0.287,0.19,0.502,0.465,0.65,0.813c0.145,0.353,0.219,0.736,0.219,1.154
		c0,0.451-0.08,0.854-0.244,1.213c-0.16,0.361-0.395,0.638-0.699,0.826c-0.309,0.191-0.631,0.289-0.971,0.289
		c-0.248,0-0.469-0.053-0.668-0.156c-0.195-0.104-0.359-0.237-0.484-0.396v2.135H691.48z M692.156,64.348
		c0,0.565,0.113,0.981,0.344,1.254c0.227,0.268,0.504,0.401,0.828,0.401c0.33,0,0.615-0.137,0.85-0.418
		c0.236-0.278,0.354-0.713,0.354-1.301c0-0.557-0.113-0.977-0.344-1.256c-0.23-0.277-0.508-0.416-0.826-0.416
		c-0.314,0-0.596,0.147-0.84,0.443C692.277,63.354,692.156,63.783,692.156,64.348z"/>
	<path fill="#F1F1F1" d="M699.191,65.105l0.77,0.094c-0.121,0.447-0.346,0.799-0.672,1.045c-0.328,0.25-0.748,0.373-1.256,0.373
		c-0.645,0-1.152-0.199-1.527-0.594c-0.377-0.396-0.564-0.949-0.564-1.662c0-0.738,0.188-1.313,0.57-1.721
		c0.379-0.406,0.873-0.609,1.48-0.609c0.586,0,1.064,0.197,1.436,0.598c0.373,0.4,0.559,0.963,0.559,1.687
		c0,0.043,0,0.108-0.002,0.196h-3.271c0.025,0.482,0.162,0.854,0.406,1.109c0.246,0.256,0.551,0.383,0.918,0.383
		c0.271,0,0.506-0.069,0.697-0.213C698.927,65.646,699.08,65.418,699.191,65.105z M696.75,63.902h2.451
		c-0.033-0.371-0.127-0.646-0.281-0.832c-0.238-0.285-0.543-0.43-0.92-0.43c-0.342,0-0.631,0.114-0.861,0.344
		C696.904,63.213,696.777,63.52,696.75,63.902z"/>
	<path fill="#F1F1F1" d="M703.771,66.518v-0.646c-0.342,0.494-0.807,0.744-1.393,0.744c-0.262,0-0.502-0.051-0.727-0.15
		c-0.225-0.099-0.393-0.223-0.5-0.373c-0.107-0.149-0.186-0.334-0.229-0.553c-0.031-0.145-0.047-0.377-0.047-0.692v-2.718h0.746
		v2.433c0,0.389,0.014,0.649,0.045,0.785c0.047,0.194,0.146,0.35,0.299,0.461c0.148,0.112,0.336,0.168,0.563,0.168
		c0.223,0,0.432-0.06,0.627-0.172c0.193-0.115,0.334-0.271,0.414-0.468c0.082-0.196,0.121-0.483,0.121-0.858v-2.349h0.744v4.388
		H703.771z"/>
	<path fill="#F1F1F1" d="M650.109,75.543V74.99c-0.277,0.436-0.688,0.652-1.229,0.652c-0.348,0-0.67-0.097-0.963-0.289
		c-0.295-0.193-0.521-0.461-0.684-0.81c-0.16-0.346-0.242-0.742-0.242-1.19c0-0.438,0.076-0.836,0.221-1.191
		c0.146-0.356,0.363-0.631,0.656-0.82c0.291-0.188,0.619-0.284,0.979-0.284c0.266,0,0.5,0.057,0.707,0.168
		c0.207,0.108,0.375,0.256,0.506,0.434v-2.172h0.738v6.057L650.109,75.543L650.109,75.543z M647.757,73.354
		c0,0.563,0.119,0.981,0.357,1.26c0.234,0.279,0.516,0.418,0.838,0.418c0.326,0,0.602-0.133,0.828-0.4
		c0.227-0.264,0.342-0.67,0.342-1.215c0-0.6-0.117-1.041-0.35-1.322c-0.23-0.28-0.516-0.422-0.854-0.422
		c-0.33,0-0.605,0.138-0.828,0.406C647.871,72.346,647.757,72.771,647.757,73.354z"/>
	<path fill="#F1F1F1" d="M654.972,74.131l0.77,0.097c-0.121,0.446-0.346,0.797-0.674,1.045s-0.746,0.371-1.256,0.371
		c-0.643,0-1.15-0.197-1.527-0.593c-0.375-0.396-0.564-0.95-0.564-1.664c0-0.737,0.193-1.311,0.572-1.719
		c0.381-0.408,0.871-0.61,1.479-0.61c0.588,0,1.066,0.198,1.438,0.598c0.373,0.4,0.559,0.963,0.559,1.686
		c0,0.045-0.002,0.111-0.004,0.199h-3.271c0.027,0.482,0.162,0.853,0.41,1.109c0.242,0.254,0.551,0.383,0.916,0.383
		c0.271,0,0.504-0.07,0.697-0.215C654.707,74.674,654.861,74.443,654.972,74.131z M652.531,72.927h2.451
		c-0.035-0.368-0.129-0.645-0.283-0.829c-0.234-0.287-0.543-0.431-0.92-0.431c-0.344,0-0.629,0.115-0.861,0.345
		C652.685,72.238,652.554,72.545,652.531,72.927z"/>
	<path fill="#F1F1F1" d="M659.121,75.543v-6.057h2.086c0.473,0,0.83,0.029,1.08,0.086c0.346,0.082,0.643,0.225,0.889,0.434
		c0.318,0.271,0.557,0.615,0.715,1.035c0.16,0.422,0.238,0.9,0.238,1.439c0,0.461-0.053,0.869-0.16,1.223
		c-0.107,0.357-0.244,0.65-0.414,0.885c-0.168,0.23-0.352,0.414-0.551,0.55c-0.201,0.135-0.441,0.233-0.723,0.303
		c-0.283,0.067-0.607,0.104-0.977,0.104L659.121,75.543L659.121,75.543z M659.921,74.828h1.295c0.398,0,0.713-0.035,0.939-0.111
		c0.229-0.073,0.406-0.178,0.543-0.313c0.188-0.189,0.34-0.445,0.443-0.769c0.105-0.317,0.16-0.709,0.16-1.163
		c0-0.636-0.104-1.123-0.313-1.462c-0.207-0.34-0.461-0.569-0.758-0.684c-0.215-0.084-0.561-0.127-1.037-0.127h-1.273V74.828z"/>
	<path fill="#F1F1F1" d="M668.14,74.131l0.77,0.097c-0.121,0.446-0.348,0.797-0.672,1.045c-0.328,0.248-0.748,0.371-1.256,0.371
		c-0.645,0-1.152-0.197-1.527-0.593c-0.377-0.396-0.564-0.95-0.564-1.664c0-0.737,0.189-1.311,0.57-1.719
		c0.379-0.408,0.873-0.61,1.48-0.61c0.586,0,1.064,0.198,1.436,0.598c0.373,0.4,0.559,0.963,0.559,1.686
		c0,0.045,0,0.111-0.002,0.199h-3.271c0.025,0.482,0.162,0.853,0.406,1.109c0.244,0.254,0.551,0.383,0.918,0.383
		c0.271,0,0.506-0.07,0.697-0.215C667.875,74.674,668.027,74.443,668.14,74.131z M665.699,72.927h2.449
		c-0.033-0.368-0.125-0.645-0.279-0.829c-0.238-0.287-0.545-0.431-0.922-0.431c-0.342,0-0.629,0.115-0.861,0.345
		C665.851,72.238,665.724,72.545,665.699,72.927z"/>
	<path fill="#F1F1F1" d="M669.544,74.234l0.736-0.115c0.043,0.295,0.156,0.521,0.346,0.676c0.189,0.158,0.453,0.236,0.791,0.236
		c0.342,0,0.596-0.068,0.762-0.207c0.164-0.143,0.246-0.305,0.246-0.492c0-0.168-0.072-0.301-0.219-0.396
		c-0.1-0.066-0.354-0.15-0.76-0.252c-0.547-0.138-0.924-0.259-1.135-0.357c-0.211-0.1-0.369-0.24-0.479-0.418
		c-0.111-0.176-0.164-0.373-0.164-0.588c0-0.193,0.045-0.377,0.135-0.543c0.088-0.166,0.209-0.307,0.363-0.416
		c0.117-0.084,0.275-0.156,0.475-0.217c0.199-0.06,0.414-0.088,0.645-0.088c0.344,0,0.645,0.049,0.906,0.147
		c0.26,0.101,0.451,0.234,0.576,0.402c0.123,0.17,0.209,0.396,0.256,0.68l-0.729,0.101c-0.033-0.226-0.127-0.402-0.287-0.529
		c-0.158-0.125-0.383-0.189-0.672-0.189c-0.342,0-0.586,0.058-0.73,0.17c-0.146,0.111-0.219,0.244-0.219,0.396
		c0,0.096,0.031,0.182,0.09,0.26c0.063,0.08,0.156,0.146,0.285,0.199c0.074,0.027,0.295,0.09,0.658,0.188
		c0.525,0.142,0.895,0.255,1.1,0.347c0.209,0.088,0.373,0.221,0.49,0.389c0.119,0.172,0.18,0.385,0.18,0.637
		c0,0.248-0.074,0.48-0.217,0.701c-0.146,0.219-0.355,0.39-0.627,0.508c-0.271,0.121-0.582,0.181-0.926,0.181
		c-0.57,0-1.004-0.119-1.305-0.354C669.818,75.051,669.628,74.699,669.544,74.234z"/>
	<path fill="#F1F1F1" d="M677.078,74.131l0.77,0.097c-0.121,0.446-0.346,0.797-0.672,1.045c-0.33,0.248-0.748,0.371-1.258,0.371
		c-0.643,0-1.152-0.197-1.525-0.593c-0.377-0.396-0.564-0.95-0.564-1.664c0-0.737,0.189-1.311,0.57-1.719
		c0.379-0.408,0.873-0.61,1.479-0.61c0.588,0,1.068,0.198,1.439,0.598c0.371,0.4,0.557,0.963,0.557,1.686
		c0,0.045,0,0.111-0.002,0.199h-3.273c0.027,0.482,0.164,0.853,0.408,1.109c0.244,0.254,0.551,0.383,0.918,0.383
		c0.271,0,0.506-0.07,0.697-0.215C676.812,74.674,676.964,74.443,677.078,74.131z M674.636,72.927h2.449
		c-0.033-0.368-0.125-0.645-0.279-0.829c-0.236-0.287-0.545-0.431-0.922-0.431c-0.34,0-0.629,0.115-0.859,0.345
		C674.791,72.238,674.662,72.545,674.636,72.927z"/>
	<path fill="#F1F1F1" d="M678.781,75.543v-4.387h0.67v0.623c0.32-0.482,0.787-0.723,1.395-0.723c0.266,0,0.51,0.047,0.73,0.143
		c0.223,0.094,0.387,0.219,0.498,0.373c0.109,0.154,0.188,0.338,0.23,0.549c0.027,0.139,0.041,0.379,0.041,0.723v2.699h-0.744
		v-2.668c0-0.305-0.027-0.531-0.086-0.68c-0.059-0.15-0.162-0.271-0.309-0.359c-0.146-0.092-0.32-0.135-0.52-0.135
		c-0.316,0-0.59,0.102-0.818,0.301c-0.23,0.201-0.348,0.582-0.348,1.146v2.396H678.781z"/>
	<path fill="#F1F1F1" d="M684.705,75.543l-1.668-4.387h0.783l0.943,2.627c0.102,0.285,0.193,0.58,0.279,0.883
		c0.066-0.229,0.158-0.508,0.277-0.832l0.975-2.678h0.764l-1.66,4.387H684.705z"/>
	<path fill="#F1F1F1" d="M687.441,73.35c0-0.814,0.225-1.416,0.678-1.806c0.375-0.326,0.836-0.487,1.379-0.487
		c0.604,0,1.098,0.196,1.479,0.594c0.383,0.395,0.574,0.94,0.574,1.637c0,0.564-0.084,1.01-0.254,1.334s-0.416,0.574-0.74,0.754
		c-0.32,0.179-0.676,0.269-1.061,0.269c-0.611,0-1.109-0.197-1.486-0.59C687.63,74.658,687.441,74.09,687.441,73.35z M688.207,73.35
		c0,0.561,0.121,0.981,0.365,1.262c0.246,0.281,0.555,0.42,0.926,0.42c0.369,0,0.676-0.139,0.924-0.422
		c0.244-0.279,0.365-0.709,0.365-1.285c0-0.541-0.121-0.953-0.369-1.234c-0.246-0.278-0.553-0.418-0.92-0.418
		c-0.371,0-0.68,0.14-0.926,0.416C688.328,72.369,688.207,72.787,688.207,73.35z"/>
	<path fill="#F1F1F1" d="M692.408,75.543v-6.057h0.742v6.057H692.408z"/>
	<path fill="#F1F1F1" d="M695.521,75.543l-1.668-4.387h0.785l0.941,2.627c0.102,0.285,0.193,0.58,0.281,0.883
		c0.064-0.229,0.158-0.508,0.275-0.832l0.977-2.678h0.764l-1.662,4.387H695.521z"/>
	<path fill="#F1F1F1" d="M698.539,70.342v-0.854h0.744v0.854H698.539z M698.539,75.543v-4.387h0.744v4.387H698.539z"/>
	<path fill="#F1F1F1" d="M700.414,75.543v-4.387h0.666v0.615c0.139-0.217,0.322-0.39,0.551-0.519
		c0.229-0.133,0.486-0.196,0.779-0.196c0.324,0,0.592,0.065,0.801,0.2c0.207,0.138,0.355,0.324,0.439,0.566
		c0.348-0.512,0.799-0.768,1.354-0.768c0.438,0,0.771,0.118,1.004,0.36c0.234,0.24,0.352,0.611,0.352,1.113v3.012h-0.738v-2.764
		c0-0.299-0.023-0.512-0.072-0.644c-0.049-0.133-0.137-0.233-0.262-0.315c-0.129-0.08-0.275-0.119-0.447-0.119
		c-0.309,0-0.564,0.104-0.768,0.309c-0.205,0.205-0.307,0.533-0.307,0.984v2.549h-0.746v-2.85c0-0.332-0.059-0.578-0.18-0.744
		c-0.121-0.164-0.32-0.248-0.596-0.248c-0.209,0-0.402,0.055-0.578,0.164c-0.18,0.111-0.309,0.271-0.389,0.484
		c-0.08,0.213-0.119,0.518-0.119,0.918v2.274h-0.744V75.543z"/>
	<path fill="#F1F1F1" d="M710.466,74.131l0.771,0.097c-0.121,0.446-0.348,0.797-0.672,1.045c-0.33,0.248-0.748,0.371-1.258,0.371
		c-0.643,0-1.152-0.197-1.525-0.593c-0.377-0.396-0.564-0.95-0.564-1.664c0-0.737,0.189-1.311,0.57-1.719
		c0.379-0.408,0.873-0.61,1.479-0.61c0.586,0,1.066,0.198,1.438,0.598c0.371,0.4,0.557,0.963,0.557,1.686
		c0,0.045,0,0.111-0.002,0.199h-3.271c0.025,0.482,0.164,0.853,0.406,1.109c0.244,0.254,0.553,0.383,0.918,0.383
		c0.271,0,0.508-0.07,0.697-0.215C710.203,74.674,710.353,74.443,710.466,74.131z M708.025,72.927h2.449
		c-0.031-0.368-0.125-0.645-0.277-0.829c-0.238-0.287-0.545-0.431-0.922-0.431c-0.342,0-0.631,0.115-0.861,0.345
		C708.179,72.238,708.052,72.545,708.025,72.927z"/>
	<path fill="#F1F1F1" d="M712.171,75.543v-4.387h0.67v0.623c0.32-0.482,0.785-0.723,1.395-0.723c0.266,0,0.51,0.047,0.729,0.143
		c0.225,0.094,0.389,0.219,0.498,0.373c0.111,0.154,0.189,0.338,0.232,0.549c0.027,0.139,0.041,0.379,0.041,0.723v2.699h-0.742
		v-2.668c0-0.305-0.031-0.531-0.088-0.68c-0.059-0.15-0.162-0.271-0.311-0.359c-0.145-0.092-0.318-0.135-0.518-0.135
		c-0.316,0-0.59,0.102-0.82,0.301c-0.229,0.201-0.346,0.582-0.346,1.146v2.396H712.171z"/>
	<path fill="#F1F1F1" d="M718.5,74.879l0.107,0.656c-0.209,0.045-0.396,0.066-0.563,0.066c-0.27,0-0.479-0.043-0.629-0.129
		c-0.148-0.087-0.252-0.197-0.314-0.337c-0.059-0.139-0.09-0.432-0.09-0.877v-2.524h-0.545v-0.578h0.545v-1.088l0.74-0.445v1.533
		h0.746v0.578h-0.746v2.563c0,0.213,0.014,0.351,0.039,0.41c0.027,0.061,0.068,0.107,0.129,0.146
		c0.059,0.035,0.143,0.053,0.252,0.053C718.257,74.906,718.365,74.898,718.5,74.879z"/>
	<path fill="#F1F1F1" d="M718.951,73.35c0-0.814,0.225-1.416,0.678-1.806c0.377-0.326,0.836-0.487,1.379-0.487
		c0.604,0,1.098,0.196,1.48,0.594c0.381,0.395,0.572,0.94,0.572,1.637c0,0.564-0.084,1.01-0.254,1.334s-0.416,0.574-0.738,0.754
		c-0.322,0.179-0.678,0.269-1.063,0.269c-0.611,0-1.109-0.197-1.486-0.59C719.14,74.658,718.951,74.09,718.951,73.35z
		 M719.716,73.35c0,0.561,0.121,0.981,0.365,1.262c0.246,0.281,0.555,0.42,0.926,0.42s0.676-0.139,0.924-0.422
		c0.244-0.279,0.365-0.709,0.365-1.285c0-0.541-0.121-0.953-0.367-1.234c-0.248-0.278-0.555-0.418-0.922-0.418
		c-0.371,0-0.68,0.14-0.926,0.416C719.837,72.369,719.716,72.787,719.716,73.35z"/>
	<path fill="#F1F1F1" d="M726.392,75.543v-6.057h2.686c0.541,0,0.953,0.055,1.23,0.162c0.283,0.108,0.506,0.303,0.676,0.578
		c0.168,0.274,0.252,0.58,0.252,0.912c0,0.43-0.141,0.791-0.418,1.086c-0.279,0.297-0.709,0.481-1.289,0.563
		c0.213,0.103,0.373,0.203,0.482,0.303c0.234,0.216,0.457,0.482,0.666,0.808l1.053,1.646h-1.006l-0.803-1.26
		c-0.234-0.363-0.428-0.641-0.58-0.834c-0.148-0.193-0.287-0.33-0.406-0.406c-0.119-0.078-0.24-0.131-0.363-0.16
		c-0.092-0.018-0.24-0.028-0.447-0.028h-0.932v2.688H726.392L726.392,75.543z M727.193,72.158h1.723
		c0.367,0,0.654-0.037,0.859-0.111c0.207-0.078,0.363-0.198,0.473-0.362c0.107-0.168,0.16-0.351,0.16-0.545
		c0-0.287-0.104-0.521-0.311-0.707c-0.211-0.185-0.539-0.275-0.986-0.275h-1.918V72.158z"/>
	<path fill="#F1F1F1" d="M735.4,74.131l0.768,0.097c-0.121,0.446-0.346,0.797-0.674,1.045s-0.746,0.371-1.256,0.371
		c-0.643,0-1.15-0.197-1.527-0.593c-0.375-0.396-0.564-0.95-0.564-1.664c0-0.737,0.193-1.311,0.572-1.719
		c0.381-0.408,0.871-0.61,1.479-0.61c0.588,0,1.066,0.198,1.438,0.598c0.373,0.4,0.559,0.963,0.559,1.686
		c0,0.045-0.002,0.111-0.004,0.199h-3.271c0.027,0.482,0.162,0.853,0.408,1.109c0.246,0.254,0.553,0.383,0.918,0.383
		c0.271,0,0.504-0.07,0.697-0.215C735.132,74.674,735.287,74.443,735.4,74.131z M732.958,72.927h2.449
		c-0.033-0.368-0.127-0.645-0.281-0.829c-0.236-0.287-0.545-0.431-0.922-0.431c-0.342,0-0.627,0.115-0.861,0.345
		C733.113,72.238,732.982,72.545,732.958,72.927z"/>
	<path fill="#F1F1F1" d="M736.964,75.908l0.725,0.107c0.029,0.223,0.113,0.383,0.252,0.485c0.186,0.14,0.436,0.207,0.756,0.207
		c0.344,0,0.609-0.067,0.797-0.207c0.188-0.139,0.313-0.33,0.381-0.578c0.039-0.151,0.057-0.471,0.055-0.955
		c-0.326,0.384-0.729,0.574-1.215,0.574c-0.604,0-1.07-0.217-1.402-0.649c-0.328-0.438-0.494-0.959-0.494-1.568
		c0-0.418,0.074-0.803,0.227-1.158c0.152-0.354,0.373-0.629,0.66-0.819c0.289-0.193,0.625-0.289,1.014-0.289
		c0.518,0,0.945,0.211,1.281,0.629v-0.529h0.686v3.793c0,0.684-0.068,1.166-0.209,1.451c-0.139,0.285-0.357,0.51-0.66,0.676
		c-0.303,0.164-0.674,0.248-1.113,0.248c-0.523,0-0.945-0.119-1.27-0.352C737.109,76.736,736.953,76.381,736.964,75.908z
		 M737.582,73.271c0,0.576,0.113,0.994,0.342,1.258c0.229,0.266,0.516,0.397,0.859,0.397c0.34,0,0.627-0.129,0.857-0.395
		c0.232-0.264,0.35-0.676,0.35-1.236c0-0.539-0.119-0.942-0.357-1.215s-0.525-0.41-0.861-0.41c-0.33,0-0.613,0.138-0.844,0.404
		C737.695,72.344,737.582,72.742,737.582,73.271z"/>
	<path fill="#F1F1F1" d="M741.812,70.342v-0.854h0.744v0.854H741.812z M741.812,75.543v-4.387h0.744v4.387H741.812z"/>
	<path fill="#F1F1F1" d="M743.412,73.35c0-0.814,0.225-1.416,0.676-1.806c0.377-0.326,0.838-0.487,1.381-0.487
		c0.604,0,1.098,0.196,1.48,0.594c0.381,0.395,0.572,0.94,0.572,1.637c0,0.564-0.084,1.01-0.254,1.334s-0.416,0.574-0.74,0.754
		c-0.32,0.179-0.676,0.269-1.061,0.269c-0.611,0-1.109-0.197-1.486-0.59C743.601,74.658,743.412,74.09,743.412,73.35z
		 M744.177,73.35c0,0.561,0.121,0.981,0.365,1.262c0.246,0.281,0.555,0.42,0.926,0.42c0.369,0,0.676-0.139,0.924-0.422
		c0.244-0.279,0.365-0.709,0.365-1.285c0-0.541-0.121-0.953-0.369-1.234c-0.246-0.278-0.553-0.418-0.92-0.418
		c-0.371,0-0.68,0.14-0.926,0.416C744.298,72.369,744.177,72.787,744.177,73.35z"/>
	<path fill="#F1F1F1" d="M748.394,75.543v-4.387h0.672v0.623c0.32-0.482,0.785-0.723,1.395-0.723c0.264,0,0.508,0.047,0.729,0.143
		c0.223,0.094,0.389,0.219,0.498,0.373s0.188,0.338,0.23,0.549c0.029,0.139,0.043,0.379,0.043,0.723v2.699h-0.744v-2.668
		c0-0.305-0.029-0.531-0.088-0.68c-0.057-0.15-0.16-0.271-0.309-0.359c-0.146-0.092-0.318-0.135-0.518-0.135
		c-0.316,0-0.592,0.102-0.82,0.301c-0.229,0.201-0.346,0.582-0.346,1.146v2.396H748.394z"/>
	<path fill="#F1F1F1" d="M755.964,75.002c-0.275,0.234-0.543,0.398-0.797,0.496c-0.254,0.096-0.527,0.146-0.818,0.146
		c-0.482,0-0.854-0.119-1.113-0.354c-0.258-0.233-0.389-0.537-0.389-0.901c0-0.216,0.051-0.412,0.148-0.589
		c0.098-0.178,0.225-0.321,0.383-0.428s0.338-0.188,0.535-0.244c0.146-0.041,0.367-0.076,0.662-0.112
		c0.6-0.07,1.043-0.156,1.326-0.257c0.002-0.102,0.002-0.166,0.002-0.192c0-0.306-0.068-0.517-0.209-0.642
		c-0.191-0.168-0.475-0.252-0.85-0.252c-0.348,0-0.605,0.063-0.771,0.185c-0.168,0.123-0.291,0.34-0.371,0.651l-0.729-0.1
		c0.066-0.313,0.176-0.564,0.326-0.756c0.152-0.189,0.369-0.338,0.656-0.441c0.287-0.103,0.621-0.153,0.996-0.153
		s0.68,0.045,0.916,0.133c0.232,0.088,0.404,0.199,0.516,0.33c0.109,0.135,0.188,0.305,0.23,0.508
		c0.023,0.127,0.037,0.354,0.037,0.686v0.99c0,0.693,0.016,1.131,0.047,1.314c0.031,0.182,0.096,0.358,0.189,0.524h-0.777
		C756.035,75.391,755.986,75.209,755.964,75.002z M755.902,73.34c-0.271,0.111-0.678,0.205-1.217,0.283
		c-0.305,0.043-0.521,0.092-0.646,0.146c-0.129,0.055-0.229,0.137-0.293,0.241c-0.068,0.107-0.105,0.226-0.105,0.354
		c0,0.197,0.074,0.363,0.227,0.496c0.148,0.131,0.369,0.197,0.658,0.197c0.285,0,0.543-0.062,0.764-0.188
		c0.223-0.125,0.389-0.297,0.492-0.514c0.08-0.168,0.121-0.416,0.121-0.744V73.34z"/>
	<path fill="#F1F1F1" d="M757.791,75.543v-6.057h0.742v6.057H757.791z"/>
</g>
<path fill="#F1F1F1" d="M64.338,45.206c0,9.915,8.471,14.524,15.012,9.553c1.784-1.082,2.826-3.168,2.826-5.375v-0.086
	c0-0.154-0.007-0.316-0.023-0.47c0.841,1.318,1.305,2.94,1.305,4.694c0,7.021-7.622,10.756-15.121,8.094
	c-4.277-2.51-7.042-7.013-7.042-12.232v-0.086c0-4.1,1.722-7.774,4.541-10.4C64.863,40.835,64.338,43.012,64.338,45.206
	 M107.342,42.834c2.14,0,3.521,1.06,3.521,2.881c2.17-0.672,2.912-2.085,2.912-3.637c0-4.31-4.796-6.634-10.093-6.634h-9.63v7.39
	H107.342z M91.504,49.298c0,7.895-6.378,14.219-14.703,14.435c5.629-0.178,9.159-4.942,9.159-10.209v-0.132
	c0-5.431-3.722-10.324-9.607-10.341c-3.529,0.017-5.729,2.936-5.729,6.171v0.076c0,3.26,2.216,6.21,5.729,6.255
	c-5.83-0.061-9.514-4.94-9.514-10.347v-0.132c0-5.366,3.661-10.209,9.491-10.209h0.1c8.548,0,15.074,6.324,15.074,14.354V49.298z
	 M40.236,35.444h-9.174l18.51,27.699h9.175L40.236,35.444z M49.572,35.444h9.175V57.77l-9.175-13.53V35.444z M31.063,41.112v22.031
	h9.174v-8.494L31.063,41.112z M116.053,55.822l5.012,7.321h-10.557l-3.622-5.481c3.058-0.155,6.302-0.556,8.75-1.653
	C115.783,55.956,115.914,55.885,116.053,55.822 M114.617,53.729c3.251-1.442,5.459-4.433,5.459-8.463v-0.085
	c0-2.842-0.865-4.903-2.525-6.557c-1.753-1.761-4.479-2.935-8.61-3.135c-0.394-0.031-0.803-0.047-1.229-0.047h-0.13
	c0.471,0,0.918,0.023,1.359,0.047c4.494,0.316,7.336,2.425,7.336,6.401v0.186c0,4.139-3.267,6.557-8.657,6.557h-2.331v6.602
	C105.289,55.235,111.374,55.175,114.617,53.729 M121.258,35.444h25.576v7.282h-25.576V35.444z M148.965,42.727h23.569v-7.273
	h-23.569V42.727z M148.965,55.908h23.569v7.274h-23.569V55.908z M94.053,63.144h9.182V45.677h-9.182V63.144z M138.687,63.144h-9.181
	V45.677h9.181V63.144z M148.965,52.942h18.387v-7.267h-18.387V52.942z"/>
</svg>
