<?xml version="1.0" encoding="utf-8"?>
<!-- Generator: Adobe Illustrator 16.0.0, SVG Export Plug-In . SVG Version: 6.00 Build 0)  -->
<!DOCTYPE svg PUBLIC "-//W3C//DTD SVG 1.0//EN" "http://www.w3.org/TR/2001/REC-SVG-20010904/DTD/svg10.dtd" [
	<!ENTITY ns_flows "http://ns.adobe.com/Flows/1.0/">
	<!ENTITY ns_extend "http://ns.adobe.com/Extensibility/1.0/">
	<!ENTITY ns_ai "http://ns.adobe.com/AdobeIllustrator/10.0/">
	<!ENTITY ns_graphs "http://ns.adobe.com/Graphs/1.0/">
]>
<svg version="1.0" id="Layer_1" xmlns:x="&ns_extend;" xmlns:i="&ns_ai;" xmlns:graph="&ns_graphs;"
	 xmlns="http://www.w3.org/2000/svg" xmlns:xlink="http://www.w3.org/1999/xlink" xmlns:a="http://ns.adobe.com/AdobeSVGViewerExtensions/3.0/"
	 x="0px" y="0px" width="30px" height="30px" viewBox="8.939 1.436 30 30" enable-background="new 8.939 1.436 30 30"
	 xml:space="preserve">
<g>
	<g>
		<path fill="#0099A8" d="M36.864,4.261c0-1.547-1.422-2.823-3.203-2.823c-1.762,0-3.202,1.276-3.202,2.823
			c0,1.579,1.44,2.816,3.202,2.816C35.442,7.078,36.864,5.84,36.864,4.261"/>
		<path fill="#222222" d="M27.308,29.84l-1.44-4.006c-0.842,0.496-1.578,0.805-3.046,0.805c-3.858,0-5.367-4.393-5.367-8.91
			c0-4.554,1.313-9.106,5.404-9.106c1.47,0,2.398,0.339,3.132,0.803l1.27-3.78c-1.313-0.968-3.162-1.539-5.753-1.539
			c-7.115,0.002-10.472,6.555-10.492,13.598v0.133c0.021,7.145,3.3,13.598,10.454,13.598C24.021,31.434,25.944,30.895,27.308,29.84"
			/>
		<rect x="30.669" y="10.201" fill="#222222" width="6.193" height="21.233"/>
	</g>
</g>
</svg>
