<?xml version="1.0" encoding="utf-8"?>
<!-- Generator: Adobe Illustrator 16.0.0, SVG Export Plug-In . SVG Version: 6.00 Build 0)  -->
<!DOCTYPE svg PUBLIC "-//W3C//DTD SVG 1.1//EN" "http://www.w3.org/Graphics/SVG/1.1/DTD/svg11.dtd">
<svg version="1.1" id="Layer_1" xmlns="http://www.w3.org/2000/svg" xmlns:xlink="http://www.w3.org/1999/xlink" x="0px" y="0px"
	 width="343px" height="60px" viewBox="0 5 343 60" enable-background="new 0 5 343 60" xml:space="preserve">
<g>
	<path fill="#231F20" d="M12.843,50.952c-2.707,0-5.09-0.221-7.135-0.676C3.662,49.821,1.756,49.252,0,48.567v-7.309h0.808
		c1.77,1.313,3.725,2.305,5.864,3.014c2.133,0.709,4.205,1.063,6.215,1.063c0.513,0,1.177-0.059,2.007-0.145
		c0.833-0.104,1.496-0.256,2-0.461c0.626-0.229,1.143-0.563,1.577-0.98c0.42-0.424,0.632-0.979,0.632-1.665
		c0-0.769-0.348-1.396-1.042-1.874c-0.7-0.492-1.532-0.84-2.489-1.055c-1.211-0.285-2.491-0.553-3.859-0.797
		c-1.366-0.237-2.65-0.549-3.832-0.916c-2.74-0.832-4.697-1.945-5.885-3.377c-1.188-1.422-1.777-3.201-1.777-5.334
		c0-2.879,1.393-5.22,4.196-7.006c2.799-1.787,6.291-2.662,10.497-2.662c2.094,0,4.192,0.166,6.272,0.547
		c2.078,0.379,3.94,0.879,5.587,1.506v7.043H25.99c-1.312-0.99-2.922-1.814-4.808-2.479c-1.891-0.683-3.835-1.029-5.831-1.029
		c-0.764,0-1.474,0.049-2.083,0.144c-0.618,0.101-1.269,0.296-1.95,0.558c-0.552,0.231-1.032,0.563-1.436,0.984
		c-0.396,0.434-0.603,0.926-0.603,1.471c0,0.771,0.324,1.404,0.955,1.863c0.646,0.458,1.886,0.883,3.726,1.245
		c1.188,0.233,2.325,0.47,3.422,0.688c1.103,0.228,2.277,0.514,3.531,0.912c2.449,0.762,4.275,1.805,5.462,3.107
		c1.192,1.307,1.789,3.02,1.789,5.15c0,3.061-1.38,5.521-4.139,7.389C21.27,50.028,17.54,50.952,12.843,50.952z"/>
	<path fill="#231F20" d="M28.907,50.396l11.934-30.785h9.692l11.933,30.785h-9.142l-2.198-6.281H40.012l-2.203,6.281H28.907z
		 M53.042,8.04l-7.117,8.116H40.27l4.922-8.116H53.042z M49.173,38.528l-3.6-10.149L41.96,38.528H49.173z"/>
	<path fill="#231F20" d="M130.561,50.396h-8.84V29.989l-6.425,13.172h-6.054l-6.425-13.172v20.406h-8.354V19.61H104.7l7.824,15.202
		l7.8-15.202h10.236L130.561,50.396L130.561,50.396z"/>
	<path fill="#231F20" d="M134.062,50.396l11.954-30.785h9.668l11.957,30.785h-9.135l-2.23-6.281h-11.091l-2.22,6.281H134.062z
		 M154.352,38.528l-3.624-10.149l-3.609,10.149H154.352z"/>
	<path fill="#231F20" d="M186.384,50.991c-5.307,0-9.509-1.396-12.636-4.188c-3.117-2.78-4.662-6.702-4.662-11.767
		c0-4.883,1.544-8.766,4.678-11.676c3.137-2.895,7.332-4.354,12.652-4.354c1.4,0,2.658,0.076,3.795,0.211
		c1.105,0.131,2.184,0.338,3.216,0.574c0.82,0.217,1.677,0.494,2.624,0.848c0.95,0.354,1.735,0.668,2.318,0.936v7.339h-0.905
		c-0.428-0.342-0.955-0.727-1.619-1.191c-0.637-0.455-1.366-0.916-2.192-1.354c-0.813-0.438-1.741-0.809-2.717-1.124
		c-0.992-0.313-2.021-0.466-3.095-0.466c-1.303,0-2.481,0.18-3.548,0.527c-1.066,0.354-2.068,0.963-3.039,1.828
		c-0.891,0.791-1.602,1.854-2.178,3.182c-0.559,1.332-0.848,2.92-0.848,4.729c0,1.914,0.306,3.524,0.89,4.83
		c0.583,1.308,1.37,2.356,2.317,3.157c0.9,0.763,1.918,1.324,3.063,1.679c1.119,0.345,2.261,0.503,3.37,0.503
		c1.168,0,2.294-0.158,3.351-0.496c1.057-0.336,1.971-0.713,2.682-1.129c0.802-0.427,1.492-0.857,2.098-1.303
		c0.604-0.441,1.115-0.832,1.572-1.188h0.802v7.24c-0.663,0.27-1.396,0.561-2.254,0.896c-0.862,0.348-1.738,0.621-2.646,0.855
		c-1.109,0.297-2.146,0.521-3.111,0.672C189.395,50.92,188.083,50.991,186.384,50.991z"/>
	<path fill="#231F20" d="M233.434,50.396h-8.892V36.75h-12.083v13.646h-8.871V19.61h8.871v11.271h12.083V19.61h8.892V50.396z"/>
	<path fill="#231F20" d="M236.924,50.396l11.951-30.785h9.68L270.5,50.396h-9.145l-2.209-6.281h-11.104l-2.215,6.281H236.924z
		 M257.198,38.528l-3.595-10.149l-3.623,10.149H257.198z"/>
	<path fill="#231F20" d="M305.564,35.039c0,2.858-0.713,5.435-2.15,7.698c-1.441,2.264-3.255,4.009-5.463,5.215
		c-1.826,1.033-3.823,1.699-5.98,1.998c-2.164,0.299-4.47,0.445-6.902,0.445h-11.063V19.61h10.975c2.479,0,4.803,0.148,6.979,0.423
		c2.163,0.257,4.19,0.946,6.094,2.007c2.331,1.288,4.16,3.037,5.5,5.23C304.91,29.47,305.564,32.065,305.564,35.039z
		 M296.465,34.965c0-2.019-0.404-3.747-1.205-5.194c-0.794-1.436-2.029-2.558-3.693-3.375c-1.209-0.582-2.457-0.896-3.774-0.945
		c-1.326-0.065-2.897-0.096-4.729-0.096h-0.18V44.63h0.18c1.985,0,3.676-0.027,5.033-0.094c1.385-0.055,2.68-0.43,3.903-1.102
		c1.456-0.81,2.565-1.904,3.328-3.314C296.076,38.714,296.465,36.997,296.465,34.965z"/>
	<path fill="#231F20" d="M343,35.024c0,4.969-1.521,8.883-4.574,11.729c-3.055,2.854-7.238,4.284-12.56,4.284
		c-5.335,0-9.522-1.444-12.556-4.332c-3.033-2.894-4.563-6.788-4.563-11.687c0-4.957,1.522-8.867,4.563-11.744
		c3.029-2.872,7.221-4.311,12.556-4.311c5.321,0,9.505,1.436,12.56,4.284C341.479,26.12,343,30.043,343,35.024z M333.836,34.997
		c0-1.84-0.212-3.398-0.648-4.682c-0.432-1.295-1.015-2.354-1.744-3.179c-0.76-0.84-1.612-1.438-2.572-1.81
		c-0.957-0.355-1.95-0.545-2.979-0.545c-1.092,0-2.074,0.171-2.967,0.496c-0.885,0.338-1.736,0.945-2.563,1.82
		c-0.727,0.797-1.316,1.854-1.762,3.188c-0.457,1.314-0.682,2.896-0.682,4.734c0,1.893,0.206,3.446,0.646,4.694
		c0.428,1.242,1.008,2.295,1.75,3.132c0.763,0.854,1.617,1.459,2.592,1.827c0.953,0.366,1.96,0.541,2.984,0.541
		c1.045,0,2.061-0.19,3.037-0.589c0.987-0.389,1.824-0.988,2.538-1.82c0.761-0.898,1.349-1.945,1.757-3.137
		C333.641,38.478,333.836,36.922,333.836,34.997z"/>
</g>
</svg>
