<?xml version="1.0" encoding="utf-8"?>
<!-- Generator: Adobe Illustrator 16.0.4, SVG Export Plug-In . SVG Version: 6.00 Build 0)  -->
<!DOCTYPE svg PUBLIC "-//W3C//DTD SVG 1.1//EN" "http://www.w3.org/Graphics/SVG/1.1/DTD/svg11.dtd">
<svg version="1.1" id="Layer_1" xmlns="http://www.w3.org/2000/svg" xmlns:xlink="http://www.w3.org/1999/xlink" x="0px" y="0px"
	 width="60px" height="96px" viewBox="0 0 60 96" enable-background="new 0 0 60 96" xml:space="preserve">
<path opacity="0.4" fill="#FFFFFF" d="M39.381,46.677l19.309-19.215c0.949-0.945,1.373-2.221,1.304-3.458
	c0.069-1.244-0.354-2.511-1.304-3.454L39.381,1.324c-1.771-1.766-4.669-1.766-6.441,0l-1.61,1.61c-1.771,1.757-1.771,4.639,0,6.4
	l14.733,14.669L31.329,38.67c-1.771,1.758-1.771,4.642,0,6.398l1.61,1.604C34.71,48.441,37.609,48.441,39.381,46.677z"/>
<path opacity="0.4" fill="#FFFFFF" d="M20.619,1.323L1.311,20.538c-0.95,0.945-1.374,2.221-1.304,3.458
	c-0.07,1.244,0.354,2.511,1.304,3.454l19.308,19.226c1.771,1.766,4.669,1.766,6.441,0l1.611-1.61c1.771-1.757,1.771-4.639,0-6.4
	l-14.733-14.67L28.671,9.329c1.771-1.758,1.771-4.642,0-6.398L27.06,1.327C25.29-0.442,22.39-0.442,20.619,1.323z"/>
<path fill="#FFFFFF" enable-background="new    " d="M20.619,49.323L1.311,68.538c-0.95,0.944-1.374,2.221-1.304,3.458
	c-0.07,1.244,0.354,2.511,1.304,3.454l19.308,19.226c1.771,1.766,4.669,1.766,6.441,0l1.611-1.609c1.771-1.758,1.771-4.64,0-6.4
	l-14.733-14.67l14.734-14.667c1.771-1.759,1.771-4.642,0-6.397l-1.611-1.604C25.29,47.558,22.39,47.558,20.619,49.323z"/>
<path fill="#FFFFFF" enable-background="new    " d="M39.381,94.677l19.309-19.215c0.949-0.944,1.373-2.221,1.304-3.458
	c0.069-1.244-0.354-2.511-1.304-3.454L39.381,49.324c-1.771-1.766-4.67-1.766-6.441,0l-1.61,1.609c-1.771,1.758-1.771,4.64,0,6.4
	l14.733,14.669L31.329,86.67c-1.771,1.758-1.771,4.643,0,6.398l1.61,1.604C34.71,96.441,37.609,96.441,39.381,94.677z"/>
</svg>
