<?xml version="1.0" encoding="utf-8"?>
<!-- Generator: Adobe Illustrator 16.0.4, SVG Export Plug-In . SVG Version: 6.00 Build 0)  -->
<!DOCTYPE svg PUBLIC "-//W3C//DTD SVG 1.1//EN" "http://www.w3.org/Graphics/SVG/1.1/DTD/svg11.dtd">
<svg version="1.1" id="Layer_1" xmlns="http://www.w3.org/2000/svg" xmlns:xlink="http://www.w3.org/1999/xlink" x="0px" y="0px"
	 width="84px" height="204px" viewBox="0 0 84 204" enable-background="new 0 0 84 204" xml:space="preserve">
<path opacity="0.6" fill="#FFFFFF" d="M83,51l-38.65,50l-1.349-1.413L80.557,51L43,2.412L44.35,1L83,51z"/>
<path opacity="0.6" fill="#FFFFFF" d="M1,51L39.651,1l1.348,1.413L3.443,51L41,99.588L39.651,101L1,51z"/>
<path fill="#FFFFFF" d="M83,153l-38.65,50l-1.349-1.413L80.557,153L43,104.412L44.35,103L83,153z"/>
<path fill="#FFFFFF" enable-background="new    " d="M1,153l38.651-50l1.348,1.413L3.443,153L41,201.588L39.651,203L1,153z"/>
</svg>
