<?xml version="1.0" encoding="utf-8"?>
<!-- Generator: Adobe Illustrator 16.0.4, SVG Export Plug-In . SVG Version: 6.00 Build 0)  -->
<!DOCTYPE svg PUBLIC "-//W3C//DTD SVG 1.1//EN" "http://www.w3.org/Graphics/SVG/1.1/DTD/svg11.dtd">
<svg version="1.1" id="Layer_1" xmlns="http://www.w3.org/2000/svg" xmlns:xlink="http://www.w3.org/1999/xlink" x="0px" y="0px"
	 width="59.999px" height="112px" viewBox="0 0 59.999 112" enable-background="new 0 0 59.999 112" xml:space="preserve">
<path d="M30.654,52.153c-0.873,0.88-0.873,2.307,0,3.188c0.87,0.879,2.286,0.88,3.159,0l25.531-25.747
	c0.873-0.879,0.873-2.307,0-3.187L33.813,0.661c-0.873-0.88-2.287-0.881-3.159,0c-0.873,0.881-0.873,2.306-0.001,3.187L53.938,28
	L30.654,52.153z"/>
<path d="M29.344,3.847c0.873-0.88,0.873-2.307,0-3.188c-0.869-0.879-2.285-0.88-3.158,0L0.654,26.407
	c-0.873,0.879-0.873,2.307,0,3.187l25.531,25.746c0.873,0.88,2.287,0.881,3.158,0c0.873-0.881,0.873-2.306,0.002-3.187L6.061,28
	L29.344,3.847z"/>
<path opacity="0.5" d="M30.654,108.152c-0.873,0.881-0.873,2.307,0,3.188c0.87,0.879,2.286,0.881,3.159,0l25.531-25.747
	c0.873-0.879,0.873-2.307,0-3.187L33.813,56.661c-0.873-0.88-2.287-0.881-3.159,0c-0.873,0.881-0.873,2.306-0.001,3.187L53.938,84
	L30.654,108.152z"/>
<path opacity="0.5" d="M29.344,59.847c0.873-0.88,0.873-2.307,0-3.188c-0.869-0.879-2.285-0.88-3.158,0L0.654,82.407
	c-0.873,0.879-0.873,2.307,0,3.187l25.531,25.746c0.873,0.879,2.287,0.881,3.158,0c0.873-0.881,0.873-2.307,0.002-3.188L6.061,84
	L29.344,59.847z"/>
</svg>
