<?xml version="1.0" encoding="utf-8"?>
<!-- Generator: Adobe Illustrator 16.0.0, SVG Export Plug-In . SVG Version: 6.00 Build 0)  -->
<!DOCTYPE svg PUBLIC "-//W3C//DTD SVG 1.1//EN" "http://www.w3.org/Graphics/SVG/1.1/DTD/svg11.dtd">
<svg version="1.1" id="Layer_1" xmlns="http://www.w3.org/2000/svg" xmlns:xlink="http://www.w3.org/1999/xlink" x="0px" y="0px"
	 width="367.541px" height="291.251px" viewBox="-3.459 0 367.541 291.251" enable-background="new -3.459 0 367.541 291.251"
	 xml:space="preserve">
<g>
	<g>
		<path fill="#C49A6C" d="M188.689,330.109c-3.428-19.067-11.511-85.584-12.021-112.151c0,0,24.961-47.778,99.4-69.203
			c0,0-64.368,7.407-96.94,36.148c0,0,3.985-59.766,27.767-114.199c0,0-38.818,53.649-50.563,115.412
			c0,0-35.168-50.165-79.904-75.948c0,0,58.072,44.776,70.37,116.474c0,0-8.113,74.229-9.211,103.468H188.689z"/>
		<g>
			<path fill="#4C8F41" d="M140.088,208.816c0,0-32.916,35.806-73.885,8.608C66.203,217.425,94.924,173.441,140.088,208.816z"/>
			<g>
				<path fill="#FFFFFF" d="M133.899,209.422c0,0-3.156-0.627-7.887-1.164c-1.179-0.156-2.47-0.229-3.819-0.387
					c-1.36-0.076-2.785-0.223-4.267-0.277c-0.74-0.036-1.492-0.072-2.253-0.108c-0.762-0.014-1.532-0.029-2.31-0.044
					c-1.553-0.068-3.131-0.019-4.708,0.009c-1.579-0.029-3.153,0.118-4.706,0.167c-1.551,0.083-3.074,0.229-4.552,0.335
					c-1.478,0.116-2.895,0.33-4.25,0.463c-1.358,0.13-2.625,0.356-3.804,0.526c-1.173,0.2-2.271,0.296-3.221,0.492
					c-0.957,0.176-1.791,0.329-2.478,0.455c-1.381,0.238-2.182,0.354-2.182,0.354s0.741-0.304,2.057-0.802
					c0.662-0.242,1.465-0.536,2.387-0.874c0.922-0.346,1.996-0.607,3.16-0.937c1.166-0.317,2.426-0.698,3.792-0.933
					c1.362-0.253,2.79-0.609,4.294-0.785c1.503-0.169,3.051-0.455,4.64-0.542c1.589-0.077,3.201-0.257,4.819-0.251
					c1.617-0.001,3.234-0.022,4.824,0.072c1.592,0.036,3.151,0.203,4.658,0.358c1.51,0.113,2.952,0.407,4.324,0.6
					c1.364,0.26,2.654,0.491,3.828,0.794c1.18,0.266,2.248,0.566,3.188,0.853c0.944,0.266,1.75,0.566,2.416,0.794
					C133.172,209.078,133.899,209.422,133.899,209.422z"/>
			</g>
		</g>
		<g>
			<path fill="#4C8F41" d="M199.471,196.793c0,0,25.672,47.444,77.115,29.323C276.586,226.116,257.645,171.016,199.471,196.793z"/>
			<g>
				<path fill="#FFFFFF" d="M205.96,199.125c0,0,0.877-0.162,2.433-0.31c0.777-0.058,1.726-0.153,2.813-0.174
					c0.544-0.017,1.124-0.033,1.734-0.053c0.609,0.009,1.252,0.017,1.922,0.024c1.343,0,2.791,0.11,4.326,0.207
					c1.524,0.172,3.152,0.255,4.805,0.546c1.66,0.245,3.379,0.495,5.099,0.889c1.733,0.33,3.464,0.794,5.201,1.235
					c1.74,0.431,3.422,1.06,5.108,1.573c0.848,0.247,1.658,0.581,2.461,0.896c0.805,0.316,1.599,0.627,2.38,0.935
					c1.569,0.594,3.009,1.356,4.405,1.993c1.408,0.615,2.662,1.36,3.832,2.012c1.166,0.663,2.252,1.228,3.153,1.842
					c0.903,0.605,1.691,1.132,2.339,1.567c1.287,0.88,2.006,1.398,2.006,1.398s-0.822-0.352-2.235-0.997
					c-0.702-0.328-1.554-0.726-2.531-1.183c-0.964-0.478-2.116-0.886-3.321-1.427c-1.22-0.511-2.518-1.106-3.941-1.62
					c-1.422-0.519-2.885-1.142-4.443-1.67c-1.563-0.52-3.158-1.098-4.807-1.609c-1.658-0.476-3.313-1.063-5.021-1.464
					c-1.69-0.457-3.378-0.938-5.067-1.286c-0.842-0.194-1.676-0.386-2.5-0.576c-0.83-0.166-1.649-0.329-2.457-0.489
					c-1.609-0.342-3.186-0.563-4.67-0.845c-1.496-0.191-2.906-0.456-4.219-0.599c-1.311-0.166-2.515-0.312-3.586-0.414
					c-1.07-0.113-2.007-0.184-2.779-0.252c-0.774-0.052-1.383-0.094-1.799-0.122C206.182,199.136,205.96,199.125,205.96,199.125z"/>
			</g>
		</g>
		<g>
			<path fill="#4C8F41" d="M243.275,166.706c0,0,23.262,48.672,75.549,33.155C318.825,199.86,302.671,143.879,243.275,166.706z"/>
			<g>
				<path fill="#FFFFFF" d="M249.641,169.361c0,0,0.885-0.118,2.445-0.188c0.779-0.018,1.73-0.065,2.816-0.032
					c0.543,0.011,1.123,0.022,1.734,0.035c0.609,0.038,1.25,0.078,1.918,0.12c1.342,0.068,2.781,0.25,4.311,0.424
					c1.515,0.247,3.136,0.412,4.771,0.785c1.646,0.328,3.351,0.664,5.048,1.144c1.715,0.417,3.42,0.967,5.131,1.495
					c1.717,0.518,3.365,1.23,5.023,1.827c0.833,0.288,1.625,0.663,2.413,1.02c0.787,0.355,1.565,0.707,2.33,1.052
					c1.538,0.672,2.938,1.507,4.301,2.211c1.375,0.687,2.589,1.493,3.726,2.201c1.129,0.721,2.188,1.339,3.057,1.998
					c0.872,0.65,1.632,1.216,2.258,1.682c1.241,0.943,1.934,1.498,1.934,1.498s-0.805-0.393-2.184-1.106
					c-0.686-0.363-1.516-0.803-2.468-1.309c-0.938-0.524-2.069-0.99-3.245-1.592c-1.193-0.57-2.459-1.23-3.855-1.815
					c-1.393-0.588-2.824-1.284-4.354-1.892c-1.534-0.597-3.1-1.254-4.721-1.848c-1.631-0.559-3.254-1.229-4.939-1.714
					c-1.666-0.541-3.326-1.106-4.997-1.539c-0.829-0.236-1.653-0.47-2.467-0.701c-0.821-0.207-1.631-0.411-2.429-0.613
					c-1.592-0.421-3.153-0.721-4.623-1.077c-1.484-0.267-2.881-0.601-4.184-0.81c-1.301-0.231-2.496-0.437-3.561-0.594
					c-1.064-0.166-1.996-0.284-2.764-0.392c-0.771-0.091-1.377-0.163-1.789-0.212C249.863,169.382,249.641,169.361,249.641,169.361z
					"/>
			</g>
		</g>
		<g>
			<path fill="#4C8F41" d="M280.854,144.892c0,0,41.592,35.099,83.229-0.873C364.082,144.02,325.992,99.25,280.854,144.892z"/>
			<g>
				<path fill="#FFFFFF" d="M287.809,144.692c0,0,0.764-0.474,2.17-1.187c0.709-0.339,1.563-0.777,2.578-1.197
					c0.504-0.215,1.043-0.445,1.609-0.687c0.576-0.218,1.182-0.446,1.814-0.685c1.262-0.494,2.662-0.923,4.139-1.398
					c1.496-0.399,3.055-0.921,4.714-1.256c1.649-0.381,3.354-0.779,5.114-1.043c1.75-0.328,3.546-0.53,5.34-0.756
					c1.793-0.236,3.605-0.265,5.377-0.406c0.886-0.08,1.77-0.063,2.643-0.063c0.87,0,1.731,0,2.577,0
					c1.692-0.021,3.326,0.165,4.872,0.247c1.549,0.06,3,0.297,4.339,0.476c1.339,0.193,2.567,0.322,3.64,0.567
					c1.072,0.234,2.006,0.438,2.774,0.607c1.533,0.352,2.4,0.573,2.4,0.573s-0.903-0.028-2.468-0.114
					c-0.779-0.05-1.727-0.11-2.812-0.181c-1.081-0.093-2.313-0.054-3.644-0.118c-1.334-0.03-2.772-0.112-4.299-0.071
					c-1.525,0.037-3.131-0.009-4.789,0.067c-1.658,0.087-3.371,0.133-5.107,0.259c-1.732,0.164-3.503,0.221-5.254,0.476
					c-1.758,0.193-3.518,0.363-5.234,0.659c-0.861,0.128-1.716,0.256-2.56,0.381c-0.841,0.15-1.671,0.299-2.487,0.444
					c-1.638,0.274-3.199,0.647-4.697,0.931c-1.477,0.37-2.897,0.643-4.183,0.992c-1.292,0.328-2.478,0.636-3.521,0.935
					c-1.047,0.289-1.953,0.567-2.703,0.79c-0.748,0.236-1.334,0.422-1.733,0.549C288.021,144.619,287.809,144.692,287.809,144.692z"
					/>
			</g>
		</g>
		<g>
			<path fill="#4C8F41" d="M242.621,150.576c0,0,45.115-8.671,43.449-54.561C286.07,96.015,236.438,97.351,242.621,150.576z"/>
			<g>
				<path fill="#FFFFFF" d="M246.167,145.95c0,0,0.078-0.751,0.335-2.049c0.143-0.644,0.295-1.437,0.546-2.32
					c0.229-0.893,0.515-1.893,0.88-2.967c0.334-1.086,0.781-2.23,1.247-3.447c0.521-1.188,0.996-2.484,1.651-3.745
					c0.617-1.277,1.254-2.604,2.013-3.89c0.709-1.314,1.529-2.59,2.329-3.879c0.799-1.29,1.739-2.484,2.588-3.71
					c0.859-1.221,1.854-2.31,2.735-3.421c0.889-1.107,1.881-2.066,2.76-3.021c0.865-0.97,1.798-1.778,2.631-2.547
					c0.841-0.76,1.584-1.481,2.32-2.039c0.728-0.562,1.362-1.052,1.886-1.456c1.053-0.794,1.666-1.228,1.666-1.228
					s-0.484,0.583-1.354,1.57c-0.438,0.485-0.969,1.076-1.578,1.755c-0.624,0.659-1.239,1.489-1.977,2.325
					c-0.714,0.858-1.52,1.755-2.291,2.771c-0.775,1.014-1.641,2.038-2.465,3.155c-0.814,1.124-1.677,2.266-2.513,3.456
					c-0.806,1.211-1.698,2.39-2.457,3.657c-0.802,1.241-1.624,2.47-2.336,3.737c-0.374,0.625-0.744,1.244-1.109,1.856
					c-0.348,0.623-0.69,1.237-1.028,1.843c-0.69,1.204-1.281,2.408-1.895,3.527c-0.545,1.148-1.126,2.211-1.588,3.224
					C247.245,143.132,246.167,145.95,246.167,145.95z"/>
			</g>
		</g>
		<g>
			<path fill="#4C8F41" d="M198.729,104.708c0,0,20.114-49.904,72.484-37.668C271.213,67.04,258.514,123.786,198.729,104.708z"/>
			<g>
				<path fill="#FFFFFF" d="M204.843,101.672c0,0,0.218-0.034,0.625-0.1c0.404-0.074,0.998-0.183,1.753-0.322
					c0.752-0.154,1.664-0.329,2.704-0.561c1.041-0.221,2.208-0.501,3.478-0.813c1.271-0.291,2.628-0.708,4.076-1.067
					c1.428-0.445,2.949-0.841,4.494-1.36c0.773-0.25,1.561-0.503,2.356-0.76c0.788-0.281,1.586-0.565,2.39-0.853
					c1.622-0.533,3.223-1.201,4.832-1.842c1.631-0.59,3.189-1.354,4.764-2.011c1.56-0.694,3.063-1.441,4.539-2.13
					c1.469-0.701,2.836-1.479,4.174-2.149c1.34-0.667,2.546-1.402,3.688-2.042c1.122-0.669,2.208-1.201,3.1-1.781
					c0.908-0.56,1.701-1.048,2.353-1.45c1.315-0.794,2.085-1.234,2.085-1.234s-0.646,0.594-1.811,1.607
					c-0.586,0.502-1.299,1.11-2.116,1.81c-0.813,0.709-1.817,1.389-2.886,2.174c-1.075,0.773-2.219,1.652-3.531,2.419
					c-1.299,0.785-2.628,1.699-4.1,2.466c-1.477,0.758-2.953,1.645-4.547,2.355c-1.598,0.697-3.181,1.505-4.84,2.13
					c-1.656,0.63-3.304,1.286-4.97,1.807c-0.827,0.277-1.647,0.55-2.47,0.789c-0.824,0.225-1.64,0.445-2.44,0.663
					c-1.591,0.475-3.183,0.739-4.661,1.079c-1.498,0.27-2.908,0.538-4.229,0.69c-0.658,0.083-1.288,0.163-1.887,0.238
					c-0.603,0.051-1.174,0.099-1.711,0.144c-1.07,0.101-2.013,0.111-2.783,0.141C205.723,101.735,204.843,101.672,204.843,101.672z"
					/>
			</g>
		</g>
		<g>
			<path fill="#4C8F41" d="M187.029,164.507c0,0,45.9-1.931,51.013-47.564C238.043,116.942,188.755,110.951,187.029,164.507z"/>
			<g>
				<path fill="#FFFFFF" d="M191.219,160.454c0,0,0.188-0.73,0.633-1.977c0.236-0.615,0.504-1.377,0.883-2.215
					c0.358-0.85,0.787-1.798,1.308-2.805c0.491-1.024,1.101-2.091,1.741-3.225c0.689-1.1,1.351-2.313,2.185-3.461
					c0.8-1.173,1.624-2.392,2.564-3.551c0.895-1.195,1.894-2.336,2.875-3.494c0.979-1.158,2.086-2.201,3.106-3.289
					c1.029-1.081,2.174-2.011,3.209-2.98c1.043-0.964,2.166-1.766,3.176-2.582c0.998-0.832,2.041-1.495,2.978-2.132
					c0.944-0.628,1.785-1.231,2.595-1.675c0.803-0.449,1.504-0.84,2.08-1.162c1.159-0.63,1.829-0.969,1.829-0.969
					s-0.565,0.506-1.569,1.353c-0.504,0.417-1.117,0.923-1.819,1.503c-0.714,0.561-1.445,1.292-2.298,2.011
					c-0.832,0.743-1.76,1.511-2.674,2.403c-0.916,0.89-1.922,1.775-2.901,2.757c-0.972,0.991-1.993,1.994-2.995,3.049
					c-0.977,1.077-2.032,2.113-2.969,3.256c-0.976,1.108-1.969,2.203-2.861,3.352c-0.461,0.563-0.918,1.121-1.371,1.672
					c-0.436,0.565-0.865,1.123-1.289,1.671c-0.859,1.091-1.621,2.193-2.393,3.209c-0.709,1.057-1.44,2.021-2.047,2.955
					C192.699,157.825,191.219,160.454,191.219,160.454z"/>
			</g>
		</g>
		<g>
			<path fill="#4C8F41" d="M208.814,67.051c0,0,48.818-16.332,40.15-67.051C248.965,0,194.041,8.857,208.814,67.051z"/>
			<g>
				<path fill="#FFFFFF" d="M212.066,61.386c0,0-0.015-0.845,0.095-2.32c0.071-0.734,0.131-1.635,0.286-2.652
					c0.072-0.511,0.148-1.054,0.229-1.627c0.106-0.567,0.218-1.166,0.333-1.79c0.219-1.253,0.553-2.586,0.895-4.002
					c0.408-1.395,0.75-2.899,1.295-4.393c0.5-1.509,1.016-3.07,1.667-4.609c0.593-1.562,1.313-3.098,2.011-4.646
					c0.693-1.55,1.559-3.016,2.316-4.501c0.771-1.481,1.707-2.841,2.516-4.206c0.818-1.362,1.77-2.577,2.598-3.771
					c0.811-1.208,1.719-2.249,2.521-3.229c0.814-0.974,1.523-1.891,2.251-2.624c0.717-0.738,1.343-1.383,1.856-1.912
					c1.041-1.048,1.647-1.629,1.647-1.629s-0.461,0.712-1.291,1.926c-0.419,0.601-0.929,1.331-1.513,2.168
					c-0.604,0.82-1.172,1.829-1.872,2.863c-0.673,1.055-1.443,2.165-2.155,3.407c-0.716,1.239-1.534,2.502-2.286,3.864
					c-0.741,1.369-1.539,2.764-2.291,4.211c-0.718,1.465-1.536,2.91-2.192,4.433c-0.705,1.5-1.436,2.988-2.039,4.505
					c-0.32,0.751-0.639,1.495-0.952,2.23c-0.292,0.745-0.58,1.481-0.864,2.205c-0.585,1.443-1.054,2.872-1.563,4.209
					c-0.43,1.36-0.909,2.63-1.264,3.827c-0.373,1.193-0.71,2.29-0.984,3.271c-0.284,0.978-0.508,1.839-0.701,2.547
					c-0.18,0.713-0.32,1.271-0.416,1.653C212.113,61.181,212.066,61.386,212.066,61.386z"/>
			</g>
		</g>
		<g>
			<path fill="#4C8F41" d="M190.486,89.977c0,0,15.869-48.971-30.074-72.134C160.412,17.844,134.901,67.282,190.486,89.977z"/>
			<g>
				<path fill="#FFFFFF" d="M187.863,83.996c0,0-0.688-0.491-1.811-1.455c-0.548-0.493-1.236-1.077-1.962-1.806
					c-0.368-0.361-0.76-0.746-1.172-1.152c-0.395-0.423-0.809-0.867-1.242-1.331c-0.878-0.92-1.751-1.98-2.688-3.098
					c-0.879-1.157-1.887-2.327-2.765-3.651c-0.917-1.298-1.866-2.641-2.717-4.079c-0.904-1.404-1.711-2.897-2.542-4.378
					c-0.834-1.479-1.499-3.044-2.244-4.538c-0.733-1.501-1.27-3.061-1.888-4.522c-0.609-1.467-1.021-2.955-1.49-4.33
					c-0.49-1.37-0.788-2.718-1.1-3.947c-0.298-1.232-0.615-2.349-0.773-3.37c-0.168-1.016-0.314-1.9-0.435-2.63
					c-0.225-1.459-0.332-2.292-0.332-2.292s0.299,0.794,0.783,2.184c0.234,0.694,0.518,1.538,0.844,2.505
					c0.302,0.972,0.775,2.027,1.191,3.206c0.448,1.168,0.884,2.446,1.46,3.758c0.571,1.312,1.102,2.72,1.75,4.135
					c0.66,1.41,1.308,2.88,2.025,4.345c0.752,1.448,1.428,2.965,2.262,4.397c0.788,1.458,1.551,2.93,2.413,4.316
					c0.414,0.703,0.824,1.401,1.229,2.092c0.426,0.677,0.847,1.347,1.261,2.005c0.813,1.328,1.684,2.554,2.457,3.758
					c0.839,1.153,1.576,2.294,2.328,3.29c0.737,1.009,1.419,1.932,2.045,2.736c0.618,0.81,1.179,1.5,1.633,2.077
					c0.468,0.567,0.833,1.013,1.083,1.316C187.725,83.836,187.863,83.996,187.863,83.996z"/>
			</g>
		</g>
		<g>
			<path fill="#4C8F41" d="M167.303,125.538c0,0,14.689-42.68-27.628-66.268C139.675,59.27,116.099,101.755,167.303,125.538z"/>
			<g>
				<path fill="#FFFFFF" d="M164.892,120.035c0,0-0.63-0.462-1.659-1.364c-0.504-0.459-1.132-1.008-1.8-1.686
					c-0.68-0.667-1.437-1.433-2.213-2.313c-0.808-0.854-1.607-1.841-2.468-2.877c-0.812-1.069-1.727-2.163-2.542-3.384
					c-0.834-1.208-1.721-2.443-2.5-3.778c-0.827-1.304-1.585-2.677-2.342-4.051c-0.77-1.367-1.39-2.812-2.072-4.195
					c-0.349-0.689-0.639-1.398-0.913-2.104c-0.281-0.702-0.559-1.396-0.832-2.078c-0.578-1.351-0.944-2.731-1.378-4.004
					c-0.449-1.268-0.737-2.511-1.016-3.651c-0.276-1.141-0.557-2.175-0.709-3.116c-0.151-0.94-0.283-1.761-0.391-2.436
					c-0.202-1.35-0.294-2.122-0.294-2.122s0.285,0.731,0.745,2.012c0.222,0.64,0.492,1.417,0.801,2.308
					c0.296,0.893,0.734,1.868,1.126,2.953c0.414,1.079,0.841,2.251,1.375,3.461c0.536,1.208,1.02,2.51,1.638,3.809
					c0.615,1.301,1.206,2.66,1.884,4.006c0.689,1.341,1.32,2.736,2.091,4.061c0.715,1.353,1.431,2.706,2.217,3.993
					c0.379,0.65,0.756,1.298,1.127,1.936c0.388,0.63,0.771,1.251,1.147,1.863c0.751,1.226,1.531,2.376,2.236,3.494
					c0.765,1.073,1.427,2.139,2.109,3.068C162.916,117.619,164.892,120.035,164.892,120.035z"/>
			</g>
		</g>
		<g>
			<path fill="#4C8F41" d="M123.237,171.153c0,0-34.617,34.164-74.216,5.008C49.021,176.161,79.847,133.625,123.237,171.153z"/>
			<g>
				<path fill="#FFFFFF" d="M117.027,171.458c0,0-3.122-0.779-7.821-1.546c-1.17-0.214-2.456-0.349-3.796-0.572
					c-1.355-0.142-2.771-0.357-4.249-0.484c-0.737-0.071-1.486-0.145-2.245-0.217c-0.76-0.052-1.529-0.104-2.305-0.156
					c-1.548-0.144-3.126-0.17-4.704-0.219c-1.576-0.105-3.155-0.035-4.708-0.063c-1.554,0.008-3.082,0.079-4.563,0.113
					c-1.481,0.044-2.907,0.188-4.268,0.256c-1.362,0.063-2.639,0.228-3.825,0.34c-1.181,0.144-2.283,0.186-3.241,0.335
					c-0.964,0.129-1.805,0.241-2.497,0.334c-1.391,0.171-2.196,0.249-2.196,0.249s0.754-0.268,2.093-0.702
					c0.672-0.21,1.489-0.465,2.426-0.757c0.938-0.301,2.023-0.51,3.202-0.782c1.18-0.261,2.457-0.581,3.833-0.747
					c1.373-0.186,2.816-0.473,4.327-0.574c1.51-0.097,3.069-0.307,4.661-0.316c1.591,0,3.209-0.101,4.825-0.017
					c1.616,0.078,3.232,0.134,4.815,0.307c1.588,0.113,3.137,0.356,4.635,0.585c1.503,0.188,2.929,0.55,4.29,0.809
					c1.35,0.326,2.626,0.619,3.784,0.979c1.166,0.323,2.218,0.675,3.143,1.007c0.93,0.312,1.72,0.651,2.374,0.91
					C116.317,171.078,117.027,171.458,117.027,171.458z"/>
			</g>
		</g>
		<g>
			<path fill="#4C8F41" d="M95.409,137.817c0,0-33.72,28.011-67.032-1.224C28.377,136.594,59.337,100.771,95.409,137.817z"/>
			<g>
				<path fill="#FFFFFF" d="M89.808,137.612c0,0-2.759-0.906-6.924-1.929c-1.036-0.275-2.181-0.488-3.367-0.786
					c-1.206-0.228-2.461-0.522-3.777-0.747c-0.656-0.119-1.323-0.24-1.998-0.362c-0.678-0.103-1.364-0.208-2.056-0.313
					c-1.377-0.246-2.792-0.392-4.202-0.556c-1.404-0.217-2.826-0.276-4.217-0.422c-1.394-0.112-2.77-0.173-4.101-0.26
					c-1.333-0.078-2.622-0.064-3.849-0.115c-1.227-0.053-2.385-0.011-3.459-0.009c-1.071,0.031-2.064-0.025-2.936,0.029
					c-0.876,0.033-1.64,0.062-2.27,0.086c-1.264,0.033-1.994,0.032-1.994,0.032s0.697-0.192,1.931-0.491
					c0.617-0.146,1.368-0.33,2.235-0.515c0.865-0.204,1.855-0.317,2.935-0.477c1.081-0.15,2.252-0.347,3.502-0.396
					c1.248-0.066,2.568-0.22,3.934-0.198c1.365,0.027,2.784-0.048,4.216,0.065c1.43,0.122,2.894,0.154,4.34,0.354
					c1.447,0.195,2.896,0.373,4.306,0.65c1.419,0.225,2.792,0.569,4.12,0.894c1.336,0.286,2.588,0.729,3.79,1.073
					c1.188,0.401,2.311,0.771,3.321,1.19c1.021,0.386,1.937,0.791,2.74,1.168c0.81,0.357,1.491,0.731,2.055,1.021
					C89.204,137.208,89.808,137.612,89.808,137.612z"/>
			</g>
		</g>
		<g>
			<path fill="#4C8F41" d="M73.314,108.068c0,0-45.398,13.783-66.353-29.367C6.961,78.701,52.886,55.969,73.314,108.068z"/>
			<g>
				<path fill="#FFFFFF" d="M67.813,105.512c0,0-0.564-0.542-1.58-1.45c-0.514-0.448-1.125-1.003-1.861-1.601
					c-0.727-0.606-1.563-1.271-2.477-1.991c-0.9-0.735-1.937-1.457-2.987-2.272c-1.098-0.754-2.213-1.604-3.43-2.395
					c-0.603-0.403-1.216-0.813-1.836-1.227c-0.633-0.395-1.273-0.794-1.919-1.196c-1.274-0.833-2.628-1.579-3.971-2.345
					c-1.32-0.806-2.722-1.461-4.059-2.188c-1.35-0.701-2.716-1.316-4.02-1.953c-1.307-0.629-2.617-1.133-3.832-1.677
					c-1.214-0.551-2.402-0.967-3.487-1.389c-1.094-0.393-2.073-0.838-2.975-1.126c-0.9-0.3-1.684-0.562-2.33-0.778
					c-1.292-0.438-2.028-0.709-2.028-0.709s0.767,0.139,2.106,0.417c0.67,0.144,1.483,0.316,2.416,0.516
					c0.939,0.183,1.963,0.515,3.095,0.834c1.127,0.332,2.364,0.656,3.619,1.149c1.26,0.479,2.623,0.904,3.966,1.508
					c1.339,0.608,2.766,1.151,4.14,1.863c1.366,0.724,2.802,1.372,4.152,2.179c1.357,0.794,2.723,1.569,4.01,2.431
					c1.316,0.814,2.549,1.707,3.74,2.574c1.214,0.833,2.289,1.773,3.354,2.599c1.024,0.879,2.006,1.691,2.854,2.509
					c0.871,0.79,1.632,1.555,2.291,2.246c0.669,0.681,1.221,1.307,1.683,1.811C67.352,104.88,67.813,105.512,67.813,105.512z"/>
			</g>
		</g>
		<g>
			<path fill="#4C8F41" d="M107.448,126.251c0,0-36.953-29.755-13.094-71.37C94.353,54.881,139,80.032,107.448,126.251z"/>
			<g>
				<path fill="#FFFFFF" d="M106.463,120.266c0,0,0.13-0.772,0.308-2.122c0.081-0.678,0.196-1.495,0.275-2.439
					c0.092-0.942,0.171-2.007,0.251-3.168c0.1-1.158,0.113-2.421,0.196-3.748c0.005-1.332,0.08-2.732,0.047-4.183
					c-0.007-0.726-0.014-1.462-0.021-2.208c-0.031-0.745-0.061-1.499-0.092-2.26c-0.029-1.522-0.174-3.062-0.298-4.603
					c-0.077-1.544-0.326-3.073-0.477-4.586c-0.181-1.51-0.442-2.986-0.649-4.421c-0.216-1.434-0.538-2.8-0.772-4.111
					c-0.229-1.313-0.554-2.528-0.817-3.663c-0.291-1.126-0.475-2.185-0.745-3.092c-0.258-0.912-0.483-1.708-0.669-2.363
					c-0.366-1.313-0.556-2.075-0.556-2.075s0.318,0.712,0.841,1.976c0.259,0.634,0.574,1.404,0.935,2.287
					c0.377,0.879,0.68,1.912,1.053,3.027c0.361,1.118,0.789,2.322,1.087,3.638c0.314,1.31,0.73,2.677,0.988,4.126
					c0.25,1.45,0.606,2.935,0.791,4.471c0.172,1.536,0.444,3.088,0.538,4.658c0.107,1.568,0.236,3.135,0.249,4.682
					c0.068,1.547,0.024,3.068-0.021,4.54c-0.005,1.473-0.177,2.892-0.259,4.235c-0.15,1.341-0.269,2.61-0.466,3.771
					c-0.162,1.164-0.365,2.224-0.566,3.157c-0.185,0.937-0.392,1.744-0.548,2.41C106.725,119.528,106.463,120.266,106.463,120.266z"
					/>
			</g>
		</g>
		<g>
			<path fill="#4C8F41" d="M151.6,170.998c0,0-35.543-20.311-20.892-59.021C130.709,111.977,172.178,127.316,151.6,170.998z"/>
			<g>
				<path fill="#FFFFFF" d="M149.945,166.033c0,0-0.003-0.676-0.047-1.851c-0.043-1.176-0.151-2.85-0.357-4.846
					c-0.079-0.999-0.248-2.074-0.362-3.215c-0.183-1.134-0.316-2.335-0.544-3.564c-0.106-0.615-0.214-1.241-0.324-1.875
					c-0.128-0.63-0.259-1.268-0.39-1.91c-0.233-1.291-0.568-2.58-0.884-3.874c-0.274-1.304-0.693-2.571-1.027-3.838
					c-0.36-1.261-0.776-2.482-1.146-3.678c-0.377-1.191-0.831-2.313-1.204-3.398c-0.369-1.089-0.806-2.082-1.178-3.014
					c-0.396-0.922-0.689-1.803-1.036-2.541c-0.338-0.745-0.632-1.396-0.875-1.931c-0.481-1.075-0.739-1.703-0.739-1.703
					s0.376,0.559,1.005,1.56c0.312,0.503,0.691,1.112,1.125,1.813c0.448,0.695,0.855,1.53,1.33,2.429
					c0.467,0.901,1.002,1.867,1.441,2.946c0.452,1.072,0.999,2.18,1.419,3.379c0.414,1.201,0.926,2.418,1.293,3.703
					c0.357,1.287,0.804,2.573,1.099,3.899c0.305,1.323,0.627,2.642,0.848,3.961c0.269,1.31,0.434,2.615,0.593,3.877
					c0.194,1.257,0.235,2.491,0.344,3.649c0.05,1.164,0.116,2.263,0.099,3.28c0.015,1.017-0.021,1.947-0.073,2.771
					c-0.037,0.823-0.109,1.54-0.157,2.129C150.078,165.37,149.945,166.033,149.945,166.033z"/>
			</g>
		</g>
	</g>
	<g>
		<g>
			<path fill="#939598" d="M339.538,335.062L339.538,335.062c0-24.196-19.615-43.812-43.812-43.812H43.811
				C19.615,291.25,0,310.865,0,335.062l0,0c0,24.196,19.615,43.811,43.811,43.811h251.916
				C319.923,378.873,339.538,359.259,339.538,335.062z"/>
		</g>
		<g>
			<g>
				<path fill="#E6E7E8" d="M76.679,304.979v60.165h8.433v-10.844c0-3.44,1.373-6.564,3.61-8.869l6.258-5.126v-0.008
					c1.643-1.266,2.707-3.246,2.707-5.48s-1.063-4.215-2.707-5.479v-0.009l-6.258-5.126c-2.237-2.306-3.61-5.43-3.61-8.868v-10.354
					h-8.433V304.979z M93.553,334.816c0,1.81-1.466,3.275-3.275,3.275s-3.275-1.466-3.275-3.275c0-1.809,1.466-3.274,3.275-3.274
					C92.086,331.541,93.553,333.008,93.553,334.816z"/>
				<g>
					<path fill="#E6E7E8" d="M73.89,322.392h-4.361c-1.454,0-2.633,1.179-2.633,2.633v19.583c0,1.454,1.179,2.632,2.633,2.632h4.361
						V322.392z"/>
					<path fill="#E6E7E8" d="M97.77,328.008v0.091c1.735,1.797,2.707,4.178,2.707,6.718s-0.972,4.921-2.707,6.718v0.083
						l-1.022,0.846l-5.834,4.778h9.788c1.454,0,2.633-1.179,2.633-2.632v-19.583c0-1.454-1.179-2.633-2.633-2.633h-9.788
						L97.77,328.008z"/>
				</g>
				<g>
					<path fill="#E6E7E8" d="M94.154,298.742v2.941c0,3.222-2.612,5.833-5.833,5.833h-15.14c-3.222,0-5.833-2.612-5.833-5.833
						v-2.941c0-3.222,2.612-5.833,5.833-5.833h15.14C91.543,292.909,94.154,295.52,94.154,298.742z"/>
					<path fill="#E6E7E8" d="M94.154,368.44v2.941c0,3.222-2.612,5.833-5.833,5.833h-15.14c-3.222,0-5.833-2.612-5.833-5.833v-2.941
						c0-3.222,2.612-5.833,5.833-5.833h15.14C91.543,362.607,94.154,365.219,94.154,368.44z"/>
				</g>
			</g>
			<g>
				<path fill="#E6E7E8" d="M262.859,365.144v-60.165h-8.434v10.845c0,3.44-1.373,6.564-3.609,8.869l-6.258,5.126v0.008
					c-1.644,1.266-2.707,3.246-2.707,5.48s1.063,4.215,2.707,5.479v0.009l6.258,5.126c2.236,2.306,3.609,5.43,3.609,8.868v10.354
					L262.859,365.144L262.859,365.144z M245.986,335.308c0-1.81,1.466-3.275,3.274-3.275c1.81,0,3.275,1.466,3.275,3.275
					c0,1.809-1.466,3.274-3.275,3.274C247.452,338.583,245.986,337.116,245.986,335.308z"/>
				<g>
					<path fill="#E6E7E8" d="M265.648,347.732h4.36c1.454,0,2.634-1.179,2.634-2.633v-19.583c0-1.454-1.18-2.632-2.634-2.632h-4.36
						V347.732z"/>
					<path fill="#E6E7E8" d="M241.768,342.116v-0.091c-1.734-1.797-2.707-4.178-2.707-6.718s0.973-4.921,2.707-6.718v-0.083
						l1.022-0.846l5.834-4.778h-9.788c-1.454,0-2.633,1.179-2.633,2.632v19.583c0,1.454,1.179,2.633,2.633,2.633h9.788
						L241.768,342.116z"/>
				</g>
				<g>
					<path fill="#E6E7E8" d="M245.384,371.382v-2.941c0-3.222,2.612-5.833,5.833-5.833h15.141c3.222,0,5.832,2.612,5.832,5.833
						v2.941c0,3.222-2.611,5.833-5.832,5.833h-15.141C247.996,377.216,245.384,374.603,245.384,371.382z"/>
					<path fill="#E6E7E8" d="M245.384,301.683v-2.941c0-3.222,2.612-5.833,5.833-5.833h15.141c3.222,0,5.832,2.612,5.832,5.833
						v2.941c0,3.222-2.611,5.833-5.832,5.833h-15.141C247.996,307.517,245.384,304.905,245.384,301.683z"/>
				</g>
			</g>
		</g>
	</g>
</g>
</svg>
