<?xml version="1.0" encoding="utf-8"?>
<!-- Generator: Adobe Illustrator 16.0.0, SVG Export Plug-In . SVG Version: 6.00 Build 0)  -->
<!DOCTYPE svg PUBLIC "-//W3C//DTD SVG 1.1//EN" "http://www.w3.org/Graphics/SVG/1.1/DTD/svg11.dtd">
<svg version="1.1" id="Capa_1" xmlns="http://www.w3.org/2000/svg" xmlns:xlink="http://www.w3.org/1999/xlink" x="0px" y="0px"
	 width="30px" height="20px" viewBox="254.887 259.503 30 20" enable-background="new 254.887 259.503 30 20" xml:space="preserve">
<g>
	<g>
		<path fill="#FFFFFF" d="M269.143,276.837h-13.508c-0.412,0-0.748,0.36-0.748,0.8v1.065c0,0.441,0.338,0.801,0.748,0.801h13.504
			c0.413,0,0.748-0.361,0.748-0.801v-1.065C269.895,277.193,269.558,276.837,269.143,276.837z"/>
		<path fill="#FFFFFF" d="M261.868,275.405c0.146,0.156,0.337,0.236,0.527,0.236c0.191,0,0.383-0.08,0.525-0.236l5.117-5.468
			c0.29-0.311,0.29-0.817,0-1.132l-0.708-0.755c-0.29-0.313-0.765-0.313-1.06,0l-2.629,2.812v-10.56c0-0.442-0.34-0.799-0.749-0.799
			h-0.999c-0.412,0-0.747,0.355-0.747,0.799v10.564l-2.633-2.814c-0.29-0.311-0.767-0.311-1.06,0l-0.708,0.755
			c-0.291,0.311-0.291,0.82,0,1.133L261.868,275.405z"/>
	</g>
</g>
<g>
	<g>
		<path fill="#777777" d="M284.144,276.837h-13.508c-0.412,0-0.749,0.36-0.749,0.8v1.065c0,0.441,0.34,0.801,0.749,0.801h13.503
			c0.413,0,0.748-0.361,0.748-0.801v-1.065C284.896,277.193,284.557,276.837,284.144,276.837z"/>
		<path fill="#777777" d="M276.868,275.405c0.146,0.156,0.337,0.236,0.526,0.236c0.193,0,0.384-0.08,0.526-0.236l5.118-5.468
			c0.29-0.309,0.29-0.815,0-1.132l-0.709-0.755c-0.289-0.313-0.764-0.313-1.059,0l-2.63,2.812v-10.56
			c0-0.442-0.339-0.799-0.748-0.799h-1c-0.411,0-0.747,0.355-0.747,0.799v10.564l-2.633-2.814c-0.289-0.311-0.766-0.311-1.059,0
			l-0.708,0.757c-0.291,0.309-0.291,0.82,0,1.131L276.868,275.405z"/>
	</g>
</g>
</svg>
