<?xml version="1.0" encoding="utf-8"?>
<!-- Generator: Adobe Illustrator 16.0.0, SVG Export Plug-In . SVG Version: 6.00 Build 0)  -->
<!DOCTYPE svg PUBLIC "-//W3C//DTD SVG 1.1//EN" "http://www.w3.org/Graphics/SVG/1.1/DTD/svg11.dtd">
<svg version="1.1" id="Capa_1" xmlns="http://www.w3.org/2000/svg" xmlns:xlink="http://www.w3.org/1999/xlink" x="0px" y="0px"
	 width="20px" height="20px" viewBox="0 0 20 20" enable-background="new 0 0 20 20" xml:space="preserve">
<path fill="#FFFFFF" d="M10,20c-0.058,0-0.116,0-0.174-0.002c-0.018,0.001-0.035,0-0.052,0.002c-0.034,0-0.068-0.002-0.103-0.006
	c-3.322-0.107-6.239-1.843-7.979-4.432c-0.02-0.021-0.035-0.046-0.048-0.072C0.604,13.909-0.003,12.017,0,9.986l0,0
	c0.004-2.671,1.048-5.181,2.938-7.067C4.756,1.107,7.146,0.079,9.7,0.005C9.734,0.001,9.773,0.004,9.803,0
	C9.82,0,9.838,0,9.855,0.001C9.908,0,9.961,0,10.014,0c2.672,0.003,5.182,1.047,7.067,2.939c1.886,1.891,2.923,4.404,2.919,7.075
	c-0.003,2.029-0.613,3.918-1.658,5.496c-0.014,0.029-0.032,0.057-0.055,0.08C16.488,18.249,13.443,20,10,20z M9.66,19.404
	c0.057,0.005,0.113,0.008,0.17,0.011c0.553-0.06,1.145-1.032,1.594-2.626c0.1-0.352,0.189-0.725,0.271-1.117l-3.829-0.006
	c0.081,0.394,0.17,0.768,0.268,1.118C8.563,18.322,9.126,19.283,9.66,19.404z M12.288,15.673c-0.091,0.45-0.192,0.876-0.304,1.274
	c-0.298,1.055-0.651,1.847-1.049,2.359c1.603-0.383,3.002-1.725,3.943-3.63L12.288,15.673z M5.105,15.662
	c0.827,1.689,2.015,2.937,3.387,3.471c-0.346-0.513-0.654-1.248-0.918-2.192c-0.111-0.398-0.212-0.825-0.301-1.274L5.105,15.662z
	 M15.512,15.678c-0.635,1.366-1.492,2.487-2.493,3.244c1.802-0.611,3.361-1.754,4.489-3.242L15.512,15.678z M2.476,15.658
	c1.124,1.491,2.68,2.639,4.479,3.256c-0.998-0.761-1.852-1.884-2.483-3.252L2.476,15.658z M15.763,15.096l2.153,0.004
	c0.898-1.391,1.441-3.033,1.498-4.795L16.701,10.3C16.665,12.048,16.327,13.684,15.763,15.096z M12.396,15.092l2.747,0.004
	c0.585-1.392,0.938-3.033,0.976-4.796l-3.318-0.004C12.783,12.011,12.645,13.652,12.396,15.092z M7.757,15.085l4.05,0.006
	c0.253-1.429,0.396-3.073,0.412-4.797l-4.86-0.007C7.37,12.011,7.508,13.656,7.757,15.085z M4.842,15.08l2.325,0.004
	c-0.244-1.439-0.379-3.082-0.391-4.798l-2.897-0.004C3.912,12.045,4.261,13.688,4.842,15.08z M2.07,15.076l2.152,0.004
	c-0.561-1.414-0.894-3.051-0.925-4.799l-2.712-0.004C0.637,12.04,1.175,13.684,2.07,15.076z M16.702,9.719l2.712,0.004
	c-0.047-1.667-0.526-3.26-1.384-4.651l-2.187-0.003C16.377,6.476,16.673,8.064,16.702,9.719z M12.801,9.713l3.32,0.005
	c-0.031-1.667-0.343-3.259-0.902-4.65l-2.783-0.004C12.664,6.467,12.79,8.056,12.801,9.713z M7.359,9.706l4.86,0.007
	c-0.011-1.665-0.141-3.255-0.374-4.649l-4.1-0.006C7.509,6.451,7.375,8.041,7.359,9.706z M3.88,9.701l2.897,0.004
	c0.016-1.657,0.146-3.246,0.379-4.648L4.795,5.053C4.231,6.442,3.915,8.034,3.88,9.701z M0.586,9.696L3.299,9.7
	c0.033-1.655,0.335-3.242,0.872-4.648L1.983,5.049C1.122,6.438,0.639,8.029,0.586,9.696z M15.604,4.487l2.036,0.003
	c-0.291-0.401-0.615-0.783-0.971-1.14c-1.032-1.034-2.262-1.8-3.604-2.26c0.631,0.481,1.212,1.117,1.723,1.892
	C15.096,3.448,15.367,3.952,15.604,4.487z M12.333,4.482l2.632,0.003c-0.197-0.417-0.418-0.814-0.662-1.185
	c-0.924-1.403-2.086-2.302-3.34-2.605c0.396,0.514,0.746,1.307,1.041,2.363C12.127,3.501,12.236,3.978,12.333,4.482z M7.853,4.476
	l3.888,0.006c-0.088-0.448-0.187-0.871-0.297-1.266c-0.444-1.595-1.034-2.569-1.586-2.631c-0.057,0.002-0.113,0.005-0.17,0.01
	C9.152,0.715,8.587,1.674,8.153,3.21C8.042,3.605,7.942,4.028,7.853,4.476z M5.051,4.472l2.21,0.003
	C7.358,3.97,7.47,3.495,7.594,3.053C7.86,2.108,8.171,1.374,8.519,0.863c-1.046,0.403-2.01,1.23-2.802,2.425
	C5.472,3.659,5.249,4.055,5.051,4.472z M2.375,4.468l2.036,0.003c0.238-0.534,0.513-1.038,0.821-1.503
	C5.745,2.193,6.328,1.561,6.96,1.081c-1.344,0.457-2.576,1.218-3.61,2.25C2.992,3.688,2.667,4.067,2.375,4.468z"/>
</svg>
