<?xml version="1.0" encoding="utf-8"?>
<!-- Generator: Adobe Illustrator 16.0.0, SVG Export Plug-In . SVG Version: 6.00 Build 0)  -->
<!DOCTYPE svg PUBLIC "-//W3C//DTD SVG 1.1//EN" "http://www.w3.org/Graphics/SVG/1.1/DTD/svg11.dtd">
<svg version="1.1" id="Capa_1" xmlns="http://www.w3.org/2000/svg" xmlns:xlink="http://www.w3.org/1999/xlink" x="0px" y="0px"
	 width="20px" height="20px" viewBox="205.058 205.059 20 20" enable-background="new 205.058 205.059 20 20" xml:space="preserve">
<g>
	<path id="LinkedIn" fill="#FFFFFF" d="M225.058,217.32v7.738h-4.287v-7.22c0-1.814-0.619-3.052-2.171-3.052
		c-1.185,0-1.89,0.834-2.2,1.641c-0.112,0.289-0.142,0.69-0.142,1.095v7.536h-4.288c0,0,0.058-12.228,0-13.495h4.287v1.913
		c-0.008,0.015-0.02,0.029-0.027,0.044h0.027v-0.044c0.57-0.919,1.588-2.229,3.864-2.229
		C222.943,211.247,225.058,213.175,225.058,217.32z M207.484,205.059c-1.467,0-2.426,1.007-2.426,2.331
		c0,1.295,0.932,2.332,2.369,2.332h0.029c1.495,0,2.426-1.037,2.426-2.332C209.853,206.065,208.952,205.059,207.484,205.059z
		 M205.313,225.059h4.286v-13.495h-4.286V225.059z"/>
</g>
</svg>
