<?xml version="1.0" encoding="utf-8"?>
<!-- Generator: Adobe Illustrator 16.0.0, SVG Export Plug-In . SVG Version: 6.00 Build 0)  -->
<!DOCTYPE svg PUBLIC "-//W3C//DTD SVG 1.1//EN" "http://www.w3.org/Graphics/SVG/1.1/DTD/svg11.dtd">
<svg version="1.1" id="Layer_1" xmlns="http://www.w3.org/2000/svg" xmlns:xlink="http://www.w3.org/1999/xlink" x="0px" y="0px"
	 width="40px" height="32.011px" viewBox="0 0 40 32.011" enable-background="new 0 0 40 32.011" xml:space="preserve">
<g>
	<g>
		<path fill="#F1F1F2" d="M40,25.751c0,0.318-0.142,0.604-0.403,0.854c-0.241,0.218-0.554,0.344-0.905,0.344
			c-0.378,0-0.688-0.126-0.938-0.344c-0.254-0.25-0.384-0.536-0.384-0.854c0-0.335,0.13-0.621,0.384-0.859
			c0.25-0.229,0.56-0.351,0.938-0.351c0.352,0,0.664,0.121,0.905,0.351C39.858,25.13,40,25.416,40,25.751z M39.7,25.751
			c0-0.272-0.106-0.487-0.296-0.669c-0.205-0.19-0.439-0.284-0.713-0.284c-0.28,0-0.536,0.094-0.742,0.284
			c-0.195,0.182-0.29,0.396-0.29,0.669c0,0.26,0.095,0.471,0.29,0.665c0.206,0.191,0.462,0.272,0.742,0.272
			c0.273,0,0.508-0.081,0.713-0.272C39.594,26.222,39.7,26.011,39.7,25.751z M39.387,26.321h-0.383l-0.396-0.442h-0.13v0.442h-0.295
			v-1.195h0.469c0.098,0,0.156,0,0.228,0.003c0.039,0.003,0.087,0.037,0.158,0.037c0.052,0.038,0.084,0.088,0.122,0.121
			c0.032,0.035,0.039,0.104,0.039,0.159c0,0.101-0.039,0.158-0.078,0.227c-0.055,0.053-0.117,0.087-0.207,0.118L39.387,26.321z
			 M38.848,25.479c0-0.034,0-0.057-0.029-0.067c-0.007-0.021-0.01-0.051-0.039-0.051c-0.023-0.003-0.049-0.038-0.088-0.038
			c-0.034,0-0.064,0-0.098,0h-0.115v0.351h0.093c0.035,0,0.081-0.002,0.12-0.005c0.039-0.033,0.068-0.033,0.091-0.062
			c0.026-0.008,0.031-0.028,0.065-0.04C38.848,25.544,38.848,25.517,38.848,25.479z"/>
	</g>
	<g>
		<g>
			<path fill-rule="evenodd" clip-rule="evenodd" fill="#F1F1F2" d="M18.794,26.226h4.233c3.198-3.211,6.794-7.584,7.13-12.333
				C30.595,7.878,25.371,0.821,16.807,0c9.287,1.623,12.068,9.142,11.138,13.633C26.877,18.816,22.147,24.97,18.794,26.226
				L18.794,26.226z"/>
		</g>
		<g>
			<path fill-rule="evenodd" clip-rule="evenodd" fill="#F1F1F2" d="M25.332,26.226h4.221c3.201-3.211,6.795-7.584,7.146-12.333
				C37.129,7.878,31.904,0.821,23.34,0c9.296,1.623,12.07,9.142,11.133,13.633C33.417,18.816,28.688,24.97,25.332,26.226
				L25.332,26.226z"/>
		</g>
	</g>
	<g>
		<path fill-rule="evenodd" clip-rule="evenodd" fill="#F1F1F2" d="M13.084,26.226H8.86c-3.207-3.211-6.801-7.584-7.14-12.333
			C1.299,7.878,6.505,0.821,15.067,0C5.785,1.623,3.018,9.142,3.935,13.633C5.003,18.816,9.737,24.97,13.084,26.226L13.084,26.226z"
			/>
	</g>
	<g>
		<path fill="#F1F1F2" d="M1.489,32.006c-0.314,0-0.597-0.025-0.833-0.083C0.42,31.859,0.205,31.802,0,31.705v-0.876h0.092
			c0.209,0.156,0.426,0.274,0.679,0.369c0.249,0.099,0.491,0.131,0.724,0.131c0.058,0,0.136-0.004,0.231-0.031
			c0.1,0,0.178-0.037,0.233-0.038c0.075-0.037,0.139-0.079,0.181-0.118c0.052-0.067,0.077-0.125,0.077-0.221
			c0-0.092-0.039-0.163-0.118-0.215c-0.079-0.071-0.174-0.107-0.295-0.132c-0.134-0.027-0.29-0.058-0.447-0.096
			C1.2,30.444,1.046,30.414,0.908,30.36c-0.313-0.096-0.542-0.231-0.675-0.407c-0.142-0.164-0.215-0.374-0.215-0.647
			c0-0.352,0.166-0.629,0.499-0.858c0.313-0.21,0.722-0.313,1.213-0.313c0.239,0,0.485,0.035,0.722,0.071
			c0.252,0.045,0.458,0.086,0.658,0.181v0.842H3.018c-0.156-0.118-0.343-0.212-0.564-0.276c-0.217-0.097-0.436-0.13-0.668-0.13
			c-0.095,0-0.173,0.004-0.251,0.011c-0.062,0.017-0.139,0.028-0.217,0.057c-0.065,0.026-0.126,0.088-0.173,0.127
			c-0.045,0.056-0.063,0.122-0.063,0.177c0,0.104,0.031,0.163,0.107,0.229c0.076,0.057,0.22,0.118,0.424,0.156
			c0.139,0.03,0.278,0.055,0.409,0.08c0.12,0.013,0.261,0.076,0.405,0.11c0.28,0.084,0.494,0.21,0.636,0.367
			c0.142,0.158,0.209,0.38,0.209,0.627c0,0.378-0.158,0.69-0.487,0.904C2.471,31.885,2.035,32.006,1.489,32.006z"/>
		<path fill="#F1F1F2" d="M3.349,31.949l1.388-3.743h1.128l1.39,3.743H6.189l-0.262-0.771H4.64l-0.257,0.771H3.349z M6.161,26.799
			L5.33,27.782H4.677l0.565-0.983H6.161z M5.708,30.481l-0.425-1.215l-0.418,1.215H5.708z"/>
		<path fill="#F1F1F2" d="M15.146,31.949h-1.028V29.46l-0.738,1.593h-0.701l-0.753-1.593v2.489H10.96v-3.743h1.186l0.911,1.842
			l0.901-1.842h1.188V31.949z"/>
		<path fill="#F1F1F2" d="M15.557,31.949l1.385-3.743h1.115l1.388,3.743h-1.057l-0.253-0.771h-1.294l-0.25,0.771H15.557z
			 M17.9,30.481l-0.411-1.215l-0.418,1.215H17.9z"/>
		<path fill="#F1F1F2" d="M21.621,32.009c-0.625,0-1.094-0.174-1.469-0.501c-0.358-0.337-0.533-0.81-0.533-1.429
			c0-0.599,0.175-1.068,0.541-1.412c0.367-0.376,0.865-0.532,1.461-0.532c0.156,0,0.313,0,0.436,0.034
			c0.133,0.004,0.262,0.032,0.385,0.058c0.083,0.024,0.201,0.064,0.313,0.103c0.117,0.039,0.189,0.079,0.273,0.118v0.881H22.91
			c-0.039-0.031-0.109-0.1-0.195-0.14c-0.067-0.05-0.156-0.116-0.247-0.171c-0.104-0.038-0.189-0.102-0.314-0.136
			c-0.123-0.03-0.25-0.051-0.376-0.051c-0.123,0-0.273,0.021-0.398,0.056c-0.128,0.064-0.227,0.124-0.345,0.224
			c-0.107,0.091-0.194,0.223-0.259,0.393c-0.056,0.159-0.092,0.351-0.092,0.577c0,0.217,0.037,0.437,0.093,0.593
			c0.063,0.156,0.157,0.274,0.278,0.372c0.098,0.097,0.215,0.159,0.347,0.191c0.133,0.062,0.259,0.062,0.408,0.062
			c0.124,0,0.244,0,0.372-0.038c0.129-0.054,0.221-0.09,0.313-0.156c0.102-0.051,0.182-0.089,0.256-0.156
			c0.057-0.053,0.121-0.088,0.179-0.119h0.099v0.862c-0.088,0.038-0.188,0.076-0.273,0.111c-0.103,0.032-0.195,0.083-0.313,0.086
			c-0.124,0.062-0.252,0.075-0.352,0.095C21.973,32.004,21.816,32.009,21.621,32.009z"/>
		<path fill="#F1F1F2" d="M27.09,31.949h-1.029v-1.666h-1.406v1.666h-1.04v-3.743h1.04v1.373h1.406v-1.373h1.029V31.949z"/>
		<path fill="#F1F1F2" d="M27.493,31.949l1.386-3.743h1.119l1.387,3.743h-1.066l-0.26-0.771h-1.284l-0.239,0.771H27.493z
			 M29.842,30.481l-0.408-1.215l-0.43,1.215H29.842z"/>
		<path fill="#F1F1F2" d="M35.449,30.079c0,0.342-0.078,0.654-0.256,0.936c-0.161,0.283-0.369,0.479-0.63,0.63
			c-0.208,0.122-0.442,0.204-0.683,0.24c-0.26,0.038-0.536,0.064-0.814,0.064h-1.289v-3.743h1.289c0.274,0,0.554,0.018,0.814,0.046
			c0.24,0.039,0.475,0.114,0.688,0.233c0.28,0.156,0.489,0.376,0.646,0.653C35.371,29.385,35.449,29.697,35.449,30.079z
			 M34.397,30.075c0-0.257-0.044-0.462-0.146-0.628c-0.092-0.181-0.219-0.313-0.438-0.428c-0.122-0.065-0.278-0.104-0.435-0.104
			c-0.13-0.025-0.313-0.026-0.54-0.026h-0.021v2.342h0.021c0.228,0,0.423-0.002,0.594-0.007c0.158-0.004,0.298-0.047,0.45-0.121
			c0.16-0.118,0.277-0.239,0.372-0.403C34.354,30.517,34.397,30.322,34.397,30.075z"/>
		<path fill="#F1F1F2" d="M39.785,30.077c0,0.596-0.156,1.064-0.527,1.416c-0.346,0.342-0.84,0.518-1.444,0.518
			c-0.621,0-1.114-0.177-1.466-0.52c-0.352-0.35-0.531-0.818-0.531-1.414c0-0.602,0.18-1.084,0.531-1.436
			c0.352-0.351,0.845-0.507,1.466-0.507c0.604,0,1.099,0.156,1.444,0.507C39.629,28.991,39.785,29.475,39.785,30.077z M38.73,30.076
			c0-0.223-0.039-0.418-0.078-0.574c-0.047-0.156-0.117-0.299-0.201-0.392c-0.072-0.098-0.189-0.156-0.296-0.223
			c-0.122-0.034-0.213-0.057-0.341-0.057c-0.13,0-0.253,0.021-0.338,0.053c-0.119,0.032-0.224,0.125-0.309,0.227
			c-0.078,0.088-0.156,0.221-0.195,0.379c-0.065,0.17-0.088,0.364-0.088,0.588c0,0.216,0.022,0.401,0.088,0.558
			c0.039,0.156,0.097,0.281,0.195,0.388c0.078,0.118,0.184,0.178,0.307,0.212c0.089,0.063,0.215,0.063,0.34,0.063
			c0.128,0,0.222,0,0.346-0.065c0.123-0.036,0.219-0.129,0.303-0.213c0.072-0.11,0.146-0.229,0.191-0.385
			C38.724,30.479,38.73,30.294,38.73,30.076z"/>
	</g>
</g>
</svg>
