<?xml version="1.0" encoding="utf-8"?>
<!-- Generator: Adobe Illustrator 16.0.0, SVG Export Plug-In . SVG Version: 6.00 Build 0)  -->
<!DOCTYPE svg PUBLIC "-//W3C//DTD SVG 1.1//EN" "http://www.w3.org/Graphics/SVG/1.1/DTD/svg11.dtd">
<svg version="1.1" id="Layer_1" xmlns="http://www.w3.org/2000/svg" xmlns:xlink="http://www.w3.org/1999/xlink" x="0px" y="0px"
	 width="343px" height="43px" viewBox="0 0 343 43" enable-background="new 0 0 343 43" xml:space="preserve">
<g>
	<path fill="#FFFFFF" d="M12.843,42.913c-2.707,0-5.09-0.221-7.135-0.676C3.662,41.782,1.756,41.212,0,40.528v-7.307h0.808
		c1.77,1.312,3.725,2.302,5.864,3.011c2.133,0.71,4.205,1.063,6.215,1.063c0.513,0,1.177-0.056,2.007-0.143
		c0.833-0.103,1.496-0.255,2-0.461c0.626-0.229,1.143-0.564,1.577-0.982c0.42-0.422,0.632-0.979,0.632-1.665
		c0-0.766-0.348-1.394-1.042-1.874c-0.7-0.492-1.532-0.84-2.489-1.053c-1.211-0.287-2.491-0.553-3.859-0.796
		c-1.366-0.24-2.65-0.55-3.832-0.917c-2.74-0.832-4.697-1.947-5.885-3.376c-1.188-1.422-1.777-3.202-1.777-5.337
		c0-2.879,1.393-5.219,4.196-7.006c2.799-1.787,6.291-2.661,10.497-2.661c2.094,0,4.192,0.166,6.272,0.547
		c2.078,0.378,3.94,0.878,5.587,1.505v7.043H25.99c-1.312-0.99-2.922-1.814-4.808-2.479c-1.891-0.681-3.835-1.028-5.831-1.028
		c-0.764,0-1.474,0.048-2.083,0.143c-0.618,0.101-1.269,0.296-1.95,0.557c-0.552,0.232-1.032,0.563-1.436,0.985
		c-0.396,0.433-0.603,0.926-0.603,1.47c0,0.77,0.324,1.405,0.955,1.864c0.646,0.458,1.886,0.882,3.726,1.245
		c1.188,0.235,2.325,0.469,3.422,0.688c1.103,0.227,2.277,0.514,3.531,0.913c2.449,0.762,4.275,1.804,5.462,3.109
		c1.192,1.305,1.789,3.017,1.789,5.153c0,3.058-1.38,5.518-4.139,7.386C21.27,41.988,17.54,42.913,12.843,42.913z"/>
	<path fill="#FFFFFF" d="M28.907,42.355l11.934-30.784h9.692l11.933,30.784h-9.142l-2.198-6.281H40.012l-2.203,6.281H28.907z
		 M53.042,0l-7.117,8.116h-5.655L45.192,0H53.042z M49.173,30.489l-3.6-10.15l-3.613,10.15H49.173z"/>
	<path fill="#FFFFFF" d="M130.561,42.355h-8.84V21.949l-6.425,13.172h-6.054l-6.425-13.172v20.406h-8.354V11.571h10.237l7.824,15.2
		l7.8-15.2h10.236V42.355z"/>
	<path fill="#FFFFFF" d="M134.062,42.355l11.954-30.784h9.668l11.957,30.784h-9.135l-2.231-6.281h-11.091l-2.22,6.281H134.062z
		 M154.352,30.489l-3.624-10.15l-3.609,10.15H154.352z"/>
	<path fill="#FFFFFF" d="M186.384,42.952c-5.307,0-9.509-1.397-12.636-4.187c-3.117-2.782-4.662-6.704-4.662-11.766
		c0-4.881,1.544-8.764,4.678-11.675c3.137-2.895,7.332-4.354,12.652-4.354c1.401,0,2.658,0.077,3.795,0.212
		c1.105,0.13,2.184,0.337,3.216,0.574c0.82,0.217,1.676,0.494,2.624,0.848c0.95,0.354,1.735,0.668,2.318,0.935v7.339h-0.905
		c-0.428-0.341-0.955-0.726-1.619-1.192c-0.637-0.455-1.366-0.916-2.192-1.353c-0.817-0.436-1.746-0.808-2.718-1.124
		c-0.992-0.312-2.021-0.465-3.094-0.465c-1.303,0-2.481,0.179-3.548,0.528c-1.067,0.353-2.069,0.963-3.039,1.827
		c-0.89,0.792-1.602,1.853-2.178,3.182c-0.559,1.333-0.848,2.919-0.848,4.73c0,1.915,0.306,3.527,0.89,4.831
		c0.583,1.306,1.371,2.358,2.318,3.158c0.904,0.761,1.918,1.325,3.063,1.677c1.119,0.345,2.261,0.503,3.37,0.503
		c1.168,0,2.294-0.159,3.351-0.497c1.056-0.335,1.97-0.713,2.68-1.128c0.799-0.426,1.493-0.858,2.095-1.302
		c0.605-0.443,1.118-0.832,1.575-1.186h0.799v7.241c-0.663,0.269-1.393,0.559-2.253,0.896c-0.863,0.346-1.739,0.621-2.644,0.856
		c-1.111,0.295-2.147,0.522-3.113,0.671C189.394,42.88,188.083,42.952,186.384,42.952z"/>
	<path fill="#FFFFFF" d="M233.434,42.355h-8.892V28.71h-12.083v13.645h-8.871V11.571h8.871v11.271h12.083V11.571h8.892V42.355z"/>
	<path fill="#FFFFFF" d="M236.924,42.355l11.951-30.784h9.679L270.5,42.355h-9.145l-2.208-6.281h-11.102l-2.215,6.281H236.924z
		 M257.198,30.489l-3.595-10.15l-3.622,10.15H257.198z"/>
	<path fill="#FFFFFF" d="M305.565,26.999c0,2.858-0.713,5.435-2.151,7.698c-1.441,2.264-3.255,4.009-5.463,5.215
		c-1.826,1.034-3.823,1.7-5.981,1.998c-2.164,0.299-4.469,0.446-6.902,0.446h-11.064V11.571h10.972c2.48,0,4.801,0.147,6.98,0.422
		c2.163,0.257,4.193,0.946,6.094,2.007c2.331,1.288,4.16,3.037,5.5,5.231C304.91,21.43,305.565,24.026,305.565,26.999z
		 M296.465,26.925c0-2.019-0.405-3.748-1.205-5.195c-0.794-1.435-2.03-2.557-3.693-3.375c-1.209-0.581-2.457-0.897-3.779-0.946
		c-1.326-0.066-2.902-0.095-4.734-0.095h-0.175v19.276h0.175c1.99,0,3.677-0.028,5.037-0.093c1.382-0.055,2.677-0.43,3.904-1.102
		c1.456-0.806,2.569-1.905,3.328-3.314C296.076,30.674,296.465,28.957,296.465,26.925z"/>
	<path fill="#FFFFFF" d="M343,26.984c0,4.969-1.521,8.883-4.574,11.732c-3.055,2.855-7.238,4.284-12.56,4.284
		c-5.335,0-9.522-1.445-12.555-4.332c-3.034-2.89-4.561-6.788-4.561-11.684c0-4.959,1.526-8.867,4.561-11.743
		c3.033-2.873,7.22-4.312,12.555-4.312c5.322,0,9.505,1.436,12.56,4.285C341.479,18.08,343,22.003,343,26.984z M333.836,26.957
		c0-1.839-0.212-3.399-0.648-4.681c-0.432-1.296-1.015-2.352-1.744-3.177c-0.76-0.84-1.617-1.438-2.577-1.81
		c-0.957-0.357-1.95-0.545-2.98-0.545c-1.089,0-2.075,0.171-2.964,0.497c-0.885,0.337-1.74,0.946-2.563,1.821
		c-0.725,0.796-1.319,1.852-1.763,3.186c-0.457,1.317-0.679,2.895-0.679,4.736c0,1.891,0.206,3.447,0.645,4.695
		c0.425,1.244,1.006,2.296,1.749,3.131c0.761,0.853,1.617,1.46,2.591,1.828c0.955,0.368,1.959,0.542,2.985,0.542
		c1.046,0,2.059-0.191,3.039-0.588c0.988-0.387,1.825-0.99,2.539-1.823c0.758-0.9,1.347-1.944,1.755-3.134
		C333.64,30.438,333.836,28.882,333.836,26.957z"/>
</g>
</svg>
