<?xml version="1.0" encoding="utf-8"?>
<!-- Generator: Adobe Illustrator 16.0.0, SVG Export Plug-In . SVG Version: 6.00 Build 0)  -->
<!DOCTYPE svg PUBLIC "-//W3C//DTD SVG 1.1//EN" "http://www.w3.org/Graphics/SVG/1.1/DTD/svg11.dtd">
<svg version="1.1" id="Capa_1" xmlns="http://www.w3.org/2000/svg" xmlns:xlink="http://www.w3.org/1999/xlink" x="0px" y="0px"
	 width="40px" height="20px" viewBox="0 0 40 20" enable-background="new 0 0 40 20" xml:space="preserve">
<g>
	<g>
		<g>
			<path fill="#777777" d="M11.903,0C7.432,0,3.807,3.625,3.807,8.097c0,1.924,0.676,3.688,1.797,5.081l-5.352,5.35
				c-0.336,0.342-0.336,0.887,0,1.223c0.336,0.338,0.883,0.338,1.22,0l5.351-5.354c1.391,1.121,3.156,1.795,5.083,1.795
				c4.471,0,8.096-3.623,8.096-8.091C20,3.625,16.374,0,11.903,0z M11.903,14.945c-3.778,0-6.851-3.072-6.851-6.849
				c0-3.778,3.074-6.851,6.851-6.851c3.777,0,6.852,3.072,6.852,6.851C18.754,11.873,15.682,14.945,11.903,14.945z"/>
		</g>
	</g>
</g>
<g>
	
		<line fill="none" stroke="#777777" stroke-width="1.7008" stroke-linecap="round" stroke-linejoin="round" stroke-miterlimit="10" x1="23.933" y1="16.007" x2="35.92" y2="4.019"/>
	
		<line fill="none" stroke="#777777" stroke-width="1.7008" stroke-linecap="round" stroke-linejoin="round" stroke-miterlimit="10" x1="24.119" y1="4.007" x2="36.107" y2="15.997"/>
</g>
</svg>
