<?xml version="1.0" encoding="utf-8"?>
<!-- Generator: Adobe Illustrator 16.0.0, SVG Export Plug-In . SVG Version: 6.00 Build 0)  -->
<!DOCTYPE svg PUBLIC "-//W3C//DTD SVG 1.1//EN" "http://www.w3.org/Graphics/SVG/1.1/DTD/svg11.dtd">
<svg version="1.1" id="Capa_1" xmlns="http://www.w3.org/2000/svg" xmlns:xlink="http://www.w3.org/1999/xlink" x="0px" y="0px"
	 width="40px" height="20px" viewBox="-10 0 40 20" enable-background="new -10 0 40 20" xml:space="preserve">
<g>
	<g>
		<g>
			<path fill="#FFFFFF" d="M1.902,0c-4.471,0-8.095,3.625-8.095,8.097c0,1.924,0.675,3.688,1.796,5.081l-5.351,5.35
				c-0.336,0.338-0.336,0.883,0,1.219c0.336,0.338,0.883,0.338,1.219,0l5.351-5.35c1.39,1.121,3.156,1.795,5.082,1.795
				c4.471,0,8.096-3.624,8.096-8.095C10,3.625,6.373,0,1.902,0z M1.902,14.946c-3.778,0-6.85-3.073-6.85-6.85
				c0-3.778,3.074-6.851,6.85-6.851c3.777,0,6.852,3.072,6.852,6.851C8.754,11.873,5.681,14.946,1.902,14.946z"/>
		</g>
	</g>
</g>
<g>
	<g>
		<g>
			<path fill="#777777" d="M21.902,0c-4.471,0-8.096,3.625-8.096,8.097c0,1.924,0.676,3.688,1.797,5.081l-5.352,5.35
				c-0.336,0.338-0.336,0.883,0,1.219c0.336,0.338,0.883,0.338,1.22,0l5.351-5.35c1.391,1.121,3.156,1.795,5.082,1.795
				c4.471,0,8.096-3.624,8.096-8.095C30,3.625,26.373,0,21.902,0z M21.902,14.946c-3.778,0-6.85-3.073-6.85-6.85
				c0-3.778,3.074-6.851,6.85-6.851c3.777,0,6.852,3.072,6.852,6.851C28.754,11.873,25.681,14.946,21.902,14.946z"/>
		</g>
	</g>
</g>
</svg>
