<?xml version="1.0" encoding="utf-8"?>
<!-- Generator: Adobe Illustrator 16.0.0, SVG Export Plug-In . SVG Version: 6.00 Build 0)  -->
<!DOCTYPE svg PUBLIC "-//W3C//DTD SVG 1.1//EN" "http://www.w3.org/Graphics/SVG/1.1/DTD/svg11.dtd">
<svg version="1.1" id="Capa_1" xmlns="http://www.w3.org/2000/svg" xmlns:xlink="http://www.w3.org/1999/xlink" x="0px" y="0px"
	 width="20px" height="20px" viewBox="0 0 20 20" enable-background="new 0 0 20 20" xml:space="preserve">
<g>
	<g>
		<path fill="#FFFFFF" d="M0.857,3.923h18.286C19.614,3.923,20,3.537,20,3.065c0-0.471-0.386-0.857-0.857-0.857H0.857
			C0.386,2.208,0,2.594,0,3.065C0,3.537,0.386,3.923,0.857,3.923z"/>
		<path fill="#FFFFFF" d="M0.857,10.352h18.286c0.472,0,0.857-0.386,0.857-0.857c0-0.472-0.386-0.857-0.857-0.857H0.857
			C0.386,8.637,0,9.022,0,9.494C0,9.965,0.386,10.352,0.857,10.352z"/>
		<path fill="#FFFFFF" d="M0.857,16.779h18.286c0.472,0,0.857-0.385,0.857-0.856s-0.386-0.857-0.857-0.857H0.857
			C0.386,15.065,0,15.451,0,15.923S0.386,16.779,0.857,16.779z"/>
	</g>
</g>
</svg>
