<?xml version="1.0" encoding="utf-8"?>
<!-- Generator: Adobe Illustrator 24.1.0, SVG Export Plug-In . SVG Version: 6.00 Build 0)  -->
<svg version="1.1" id="Capa_1" xmlns="http://www.w3.org/2000/svg" xmlns:xlink="http://www.w3.org/1999/xlink" x="0px" y="0px"
	 viewBox="0 0 20 20" style="enable-background:new 0 0 20 20;" xml:space="preserve">
<style type="text/css">
	.st0{fill:#1D1D1B;}
</style>
<g>
	<g>
		<path class="st0" d="M0.9,3.9h18.3c0.5,0,0.9-0.4,0.9-0.9c0-0.5-0.4-0.9-0.9-0.9H0.9C0.4,2.2,0,2.6,0,3.1C0,3.5,0.4,3.9,0.9,3.9z"
			/>
		<path class="st0" d="M0.9,10.4h18.3c0.5,0,0.9-0.4,0.9-0.9c0-0.5-0.4-0.9-0.9-0.9H0.9C0.4,8.6,0,9,0,9.5C0,10,0.4,10.4,0.9,10.4z"
			/>
		<path class="st0" d="M0.9,16.8h18.3c0.5,0,0.9-0.4,0.9-0.9s-0.4-0.9-0.9-0.9H0.9c-0.5,0-0.9,0.4-0.9,0.9S0.4,16.8,0.9,16.8z"/>
	</g>
</g>
</svg>
