<?xml version="1.0" encoding="utf-8"?>
<!-- Generator: Adobe Illustrator 16.0.0, SVG Export Plug-In . SVG Version: 6.00 Build 0)  -->
<!DOCTYPE svg PUBLIC "-//W3C//DTD SVG 1.1//EN" "http://www.w3.org/Graphics/SVG/1.1/DTD/svg11.dtd">
<svg version="1.1" id="Capa_1" xmlns="http://www.w3.org/2000/svg" xmlns:xlink="http://www.w3.org/1999/xlink" x="0px" y="0px"
	 width="40px" height="20px" viewBox="558.75 296 40 20" enable-background="new 558.75 296 40 20" xml:space="preserve">
<g>
	<g id="_x38__3_">
		<g>
			<path fill="#FFFFFF" d="M568.75,296c-5.523,0-10,4.477-10,10s4.477,10,10,10s10-4.478,10-10S574.274,296,568.75,296z
				 M568.75,314.75c-4.832,0-8.75-3.918-8.75-8.75s3.918-8.75,8.75-8.75s8.75,3.918,8.75,8.75S573.582,314.75,568.75,314.75z
				 M572.5,305.375h-3.125v-3.125c0-0.346-0.279-0.625-0.625-0.625s-0.625,0.279-0.625,0.625v3.125H565
				c-0.346,0-0.625,0.279-0.625,0.625s0.279,0.625,0.625,0.625h3.125v3.125c0,0.345,0.279,0.625,0.625,0.625s0.625-0.28,0.625-0.625
				v-3.125h3.125c0.345,0,0.625-0.279,0.625-0.625S572.845,305.375,572.5,305.375z"/>
		</g>
	</g>
</g>
<g>
	<g id="_x38__1_">
		<g>
			<path fill="#777777" d="M588.75,296c-5.523,0-10,4.477-10,10s4.477,10,10,10s10-4.478,10-10S594.274,296,588.75,296z
				 M588.75,314.75c-4.832,0-8.75-3.918-8.75-8.75s3.918-8.75,8.75-8.75s8.75,3.918,8.75,8.75S593.582,314.75,588.75,314.75z
				 M592.5,305.375h-3.125v-3.125c0-0.346-0.279-0.625-0.625-0.625s-0.625,0.279-0.625,0.625v3.125H585
				c-0.346,0-0.625,0.279-0.625,0.625s0.279,0.625,0.625,0.625h3.125v3.125c0,0.345,0.279,0.625,0.625,0.625s0.625-0.28,0.625-0.625
				v-3.125h3.125c0.345,0,0.625-0.279,0.625-0.625S592.845,305.375,592.5,305.375z"/>
		</g>
	</g>
</g>
</svg>
