<?xml version="1.0" encoding="utf-8"?>
<!-- Generator: Adobe Illustrator 16.0.0, SVG Export Plug-In . SVG Version: 6.00 Build 0)  -->
<!DOCTYPE svg PUBLIC "-//W3C//DTD SVG 1.1//EN" "http://www.w3.org/Graphics/SVG/1.1/DTD/svg11.dtd">
<svg version="1.1" id="Capa_1" xmlns="http://www.w3.org/2000/svg" xmlns:xlink="http://www.w3.org/1999/xlink" x="0px" y="0px"
	 width="40px" height="35.001px" viewBox="205.923 208.423 40 35.001" enable-background="new 205.923 208.423 40 35.001"
	 xml:space="preserve">
<g>
	<path fill="#777777" d="M245.923,225.924c0,0.627-0.239,1.256-0.721,1.732l-15.085,15.05c-0.96,0.957-2.516,0.957-3.477,0
		c-0.959-0.958-0.959-2.509,0-3.468l13.351-13.314l-13.349-13.316c-0.959-0.957-0.959-2.508,0-3.465
		c0.959-0.959,2.515-0.959,3.475,0l15.087,15.049C245.684,224.669,245.923,225.297,245.923,225.924z"/>
</g>
<g>
	<path fill="#777777" d="M205.923,225.922c0-0.627,0.24-1.255,0.722-1.732l15.084-15.049c0.961-0.957,2.517-0.957,3.477,0
		c0.959,0.957,0.959,2.508,0,3.467l-13.35,13.314l13.349,13.316c0.96,0.957,0.96,2.509,0,3.466s-2.515,0.957-3.476,0l-15.086-15.05
		C206.164,227.178,205.923,226.549,205.923,225.922z"/>
</g>
</svg>
