<?xml version="1.0" encoding="utf-8"?>
<!-- Generator: Adobe Illustrator 16.0.0, SVG Export Plug-In . SVG Version: 6.00 Build 0)  -->
<!DOCTYPE svg PUBLIC "-//W3C//DTD SVG 1.1//EN" "http://www.w3.org/Graphics/SVG/1.1/DTD/svg11.dtd">
<svg version="1.1" id="Capa_1" xmlns="http://www.w3.org/2000/svg" xmlns:xlink="http://www.w3.org/1999/xlink" x="0px" y="0px"
	 width="40px" height="20px" viewBox="0 0 40 20" enable-background="new 0 0 40 20" xml:space="preserve">
<path fill="#777777" d="M39.386,16.728l-6.725-6.729l6.725-6.722c0.744-0.741,0.744-1.95,0-2.692c-0.742-0.742-1.947-0.742-2.688,0
	l-6.725,6.73l-6.727-6.73c-0.742-0.742-1.945-0.742-2.688,0c-0.744,0.742-0.744,1.951,0,2.692l6.726,6.722l-6.726,6.729
	c-0.744,0.744-0.744,1.943,0,2.686c0.743,0.744,1.946,0.744,2.688,0l6.727-6.722l6.725,6.722c0.741,0.744,1.946,0.744,2.688,0
	C40.13,18.671,40.13,17.472,39.386,16.728z"/>
<path fill="#FFFFFF" d="M19.442,16.728l-6.725-6.729l6.725-6.722c0.744-0.741,0.744-1.95,0-2.692c-0.742-0.742-1.947-0.742-2.688,0
	l-6.725,6.73l-6.727-6.73c-0.742-0.742-1.945-0.742-2.688,0c-0.744,0.742-0.744,1.951,0,2.692l6.726,6.722l-6.726,6.729
	c-0.744,0.744-0.744,1.943,0,2.686c0.743,0.744,1.946,0.744,2.688,0l6.727-6.722l6.725,6.722c0.741,0.744,1.946,0.744,2.688,0
	C20.186,18.671,20.186,17.472,19.442,16.728z"/>
</svg>
